<svg width="15" height="18" viewBox="0 0 15 18" fill="none" xmlns="http://www.w3.org/2000/svg">
<path fill-rule="evenodd" clip-rule="evenodd" d="M10.922 0.637497C11.03 1.6095 10.643 2.5905 10.058 3.2925C9.47299 3.9945 8.51898 4.5435 7.59198 4.4715C7.46598 3.5175 7.93398 2.5185 8.47398 1.8975C9.07698 1.1955 10.085 0.673497 10.922 0.637497ZM6.69059 5.12128C7.08372 5.27732 7.43439 5.4165 7.71799 5.4165C7.96713 5.4165 8.2921 5.28878 8.67654 5.13769C9.292 4.8958 10.0599 4.59402 10.913 4.6605C11.444 4.6965 12.965 4.8585 13.955 6.3075C13.874 6.3525 12.137 7.3605 12.155 9.4665C12.182 11.9865 14.36 12.8235 14.387 12.8325C14.369 12.8955 14.036 14.0295 13.235 15.1995C12.542 16.2165 11.822 17.2245 10.688 17.2425C10.1403 17.2557 9.7747 17.0978 9.39438 16.9334C8.99972 16.7629 8.58922 16.5855 7.94299 16.5855C7.25629 16.5855 6.82424 16.77 6.40809 16.9477C6.04975 17.1007 5.70319 17.2487 5.21599 17.2695C4.11799 17.3055 3.28999 16.1715 2.58799 15.1635C1.15699 13.0935 0.0679851 9.3315 1.53499 6.7845C2.26399 5.5155 3.55999 4.7145 4.97299 4.6965C5.58169 4.68115 6.17295 4.91582 6.69059 5.12128Z" fill="#292C38"/>
</svg>
