<svg width="20" height="20" viewBox="0 0 20 20" fill="none" xmlns="http://www.w3.org/2000/svg">
<path d="M19.9999 10.23C19.9999 9.5502 19.9437 8.86678 19.8238 8.19806H10.2015V12.0487H15.7117C15.483 13.2907 14.7484 14.3893 13.6725 15.0874V17.5859H16.9599C18.8904 15.8443 19.9999 13.2723 19.9999 10.23Z" fill="#4285F4"/>
<path d="M10.2013 19.9999C12.9527 19.9999 15.273 19.1144 16.9635 17.5859L13.6761 15.0874C12.7615 15.6973 11.5808 16.0427 10.2051 16.0427C7.54367 16.0427 5.2871 14.2827 4.47743 11.9164H1.08508V14.4921C2.81687 17.8688 6.34416 19.9999 10.2013 19.9999Z" fill="#34A853"/>
<path d="M4.47378 11.9164C4.04646 10.6745 4.04646 9.32973 4.47378 8.08781V5.51212H1.08518C-0.361726 8.33767 -0.361726 11.6666 1.08518 14.4921L4.47378 11.9164Z" fill="#FBBC04"/>
<path d="M10.2013 3.9579C11.6557 3.93586 13.0614 4.47231 14.1147 5.45702L17.0273 2.60208C15.183 0.904554 12.7353 -0.0287206 10.2013 0.000673864C6.34416 0.000673864 2.81687 2.13177 1.08508 5.51214L4.47369 8.08783C5.2796 5.7179 7.53992 3.9579 10.2013 3.9579Z" fill="#EA4335"/>
</svg>
