<svg width="359" height="219" viewBox="0 0 359 219" fill="none" xmlns="http://www.w3.org/2000/svg">
<path d="M104.67 5.24063H126.716C128.868 5.24063 130.932 6.09558 132.453 7.61731C133.974 9.13904 134.828 11.2028 134.827 13.3545V85.5881C134.827 90.0676 131.196 93.699 126.716 93.699H27.5553C23.0757 93.699 19.4443 90.0676 19.4443 85.5881V13.3545C19.4436 11.2028 20.2978 9.13904 21.8189 7.61731C23.3401 6.09558 25.4036 5.24063 27.5553 5.24063H99.8624" fill="white"/>
<path d="M126.716 94.152H27.5552C22.8334 94.1472 19.0065 90.3215 19 85.5998V13.3545C19.0065 8.63229 22.833 4.8058 27.5552 4.79932H99.8623C100.106 4.79932 100.304 4.99689 100.304 5.24061C100.304 5.48433 100.106 5.6819 99.8623 5.6819H27.5552C23.3197 5.68676 19.8874 9.11905 19.8826 13.3545V85.588C19.8891 89.8223 23.3209 93.2528 27.5552 93.2577H126.716C130.95 93.2528 134.381 89.8218 134.386 85.588V13.3545C134.383 9.11953 130.951 5.68677 126.716 5.6819H104.669C104.426 5.6819 104.228 5.48433 104.228 5.24061C104.228 4.99689 104.426 4.79932 104.669 4.79932H126.716C131.438 4.8058 135.264 8.63276 135.269 13.3545V85.588C135.27 90.3139 131.442 94.1472 126.716 94.152Z" fill="#D8D3DA"/>
<path d="M116.346 29.1763H70.1163C69.8726 29.1763 69.675 28.9787 69.675 28.735C69.675 28.4913 69.8726 28.2937 70.1163 28.2937H116.346C116.59 28.2937 116.787 28.4913 116.787 28.735C116.787 28.9787 116.59 29.1763 116.346 29.1763Z" fill="#D8D3DA"/>
<path d="M116.346 41.4913H70.1163C69.8726 41.4913 69.675 41.2937 69.675 41.05C69.675 40.8062 69.8726 40.6087 70.1163 40.6087H116.346C116.59 40.6087 116.787 40.8062 116.787 41.05C116.787 41.2937 116.59 41.4913 116.346 41.4913Z" fill="#D8D3DA"/>
<path d="M116.346 53.8121H39.4701C39.2264 53.8121 39.0288 53.6145 39.0288 53.3708C39.0288 53.1271 39.2264 52.9295 39.4701 52.9295H116.346C116.59 52.9295 116.787 53.1271 116.787 53.3708C116.787 53.6145 116.59 53.8121 116.346 53.8121Z" fill="#D8D3DA"/>
<path d="M116.346 66.1329H39.4701C39.2264 66.1329 39.0288 65.9354 39.0288 65.6917C39.0288 65.4479 39.2264 65.2504 39.4701 65.2504H116.346C116.59 65.2504 116.787 65.4479 116.787 65.6917C116.787 65.9354 116.59 66.1329 116.346 66.1329Z" fill="#D8D3DA"/>
<path d="M116.346 78.4509H39.4701C39.2264 78.4509 39.0288 78.2533 39.0288 78.0096C39.0288 77.7659 39.2264 77.5683 39.4701 77.5683H116.346C116.59 77.5683 116.787 77.7659 116.787 78.0096C116.787 78.2533 116.59 78.4509 116.346 78.4509Z" fill="#D8D3DA"/>
<path d="M54.2268 29.8794H49.6021V44.0596H47.5221V29.8794H42.9209V28.0378H54.2268V29.8794Z" fill="#D8D3DA"/>
<path fill-rule="evenodd" clip-rule="evenodd" d="M47.3722 44.2067H49.7493L49.7463 30.0177H54.3711V27.8818H42.771V30.0177H47.3722V44.2067ZM49.455 43.9125H47.6692L47.6663 29.7235H43.068V28.176H54.0797V29.7235H49.455V43.9125Z" fill="#D8D3DA"/>
<path d="M130.264 13.1103C130.039 11.4946 128.849 10.1809 127.264 9.7977L130.264 13.1103Z" fill="white"/>
<path d="M130.264 13.4045C130.117 13.406 129.991 13.2977 129.97 13.1515C129.758 11.6564 128.657 10.4411 127.19 10.083C127.085 10.0583 127.001 9.97945 126.97 9.87607C126.938 9.7727 126.965 9.66055 127.039 9.58188C127.113 9.5032 127.223 9.46995 127.328 9.49465C129.034 9.90696 130.316 11.3173 130.564 13.0544C130.587 13.2153 130.475 13.3641 130.314 13.3868L130.264 13.4045Z" fill="#D8D3DA"/>
<path d="M24.0073 85.8646C24.2312 87.4814 25.4216 88.7966 27.0081 89.1802L24.0073 85.8646Z" fill="white"/>
<path d="M27.0079 89.4744H26.9402C25.2341 89.0628 23.9517 87.6521 23.7041 85.9146C23.6814 85.7538 23.7933 85.605 23.9542 85.5822C24.0319 85.5713 24.1107 85.5919 24.1731 85.6394C24.2355 85.6869 24.2764 85.7574 24.2866 85.8352C24.4986 87.3303 25.5997 88.5456 27.0667 88.9036C27.2292 88.9231 27.3451 89.0707 27.3256 89.2331C27.3061 89.3956 27.1586 89.5115 26.9961 89.492L27.0079 89.4744Z" fill="#D8D3DA"/>
<path d="M316.537 133.944V206.181C316.537 208.332 315.682 210.396 314.16 211.917C312.638 213.438 310.575 214.292 308.423 214.292H209.279C207.128 214.292 205.064 213.438 203.542 211.917C202.02 210.396 201.166 208.332 201.166 206.181V133.944C201.166 131.793 202.022 129.73 203.543 128.21C205.065 126.689 207.128 125.835 209.279 125.836H308.423C310.574 125.835 312.637 126.689 314.159 128.21C315.681 129.73 316.536 131.793 316.537 133.944Z" fill="white"/>
<path fill-rule="evenodd" clip-rule="evenodd" d="M209.28 214.733H308.424C313.146 214.728 316.972 210.902 316.979 206.181V133.947C316.974 129.225 313.146 125.398 308.424 125.395H209.28C204.559 125.4 200.732 129.225 200.725 133.947V206.181C200.733 210.902 204.559 214.726 209.28 214.733ZM201.607 133.947C201.612 129.712 205.044 126.281 209.279 126.278H308.423C312.658 126.281 316.091 129.712 316.095 133.947V206.181C316.089 210.415 312.657 213.846 308.423 213.85H209.279C205.045 213.846 201.613 210.415 201.607 206.181V133.947Z" fill="#D8D3DA"/>
<path d="M316.537 202.621V206.192C316.537 210.672 312.905 214.303 308.426 214.303H209.265C204.784 214.303 201.151 210.671 201.151 206.19V200.756L245.239 149.719C245.313 149.634 245.42 149.586 245.533 149.586C245.646 149.586 245.753 149.634 245.827 149.719L277.427 186.729C277.631 186.965 277.929 187.102 278.242 187.102C278.554 187.102 278.852 186.965 279.056 186.729L290.636 173.322C290.748 173.196 290.908 173.123 291.077 173.123C291.246 173.123 291.407 173.196 291.519 173.322L316.537 202.621Z" fill="white"/>
<path fill-rule="evenodd" clip-rule="evenodd" d="M209.265 214.733H308.426C313.138 214.723 316.958 210.908 316.972 206.195V202.624C316.973 202.516 316.936 202.412 316.866 202.33L291.86 173.043C291.665 172.814 291.38 172.682 291.08 172.681C290.782 172.68 290.498 172.81 290.303 173.037L278.721 186.443C278.603 186.584 278.428 186.664 278.244 186.664C278.06 186.663 277.886 186.581 277.768 186.44L246.163 149.416C246.006 149.231 245.776 149.123 245.533 149.122C245.291 149.123 245.062 149.231 244.906 149.416L200.818 200.45C200.748 200.532 200.709 200.636 200.709 200.744V206.178C200.716 210.9 204.542 214.726 209.265 214.733ZM201.592 206.178V200.906L245.539 150.043L277.1 187.005C277.387 187.34 277.806 187.534 278.247 187.538C278.687 187.537 279.105 187.345 279.392 187.011L290.974 173.605C291.002 173.574 291.041 173.556 291.083 173.555C291.126 173.555 291.167 173.575 291.195 173.608L316.095 202.771V206.181C316.091 210.415 312.66 213.846 308.426 213.85H209.265C205.029 213.846 201.597 210.413 201.592 206.178Z" fill="#D8D3DA"/>
<path d="M278.062 159.666C282.649 159.666 286.367 155.947 286.367 151.361C286.367 146.774 282.649 143.055 278.062 143.055C273.475 143.055 269.757 146.774 269.757 151.361C269.757 155.947 273.475 159.666 278.062 159.666Z" fill="white"/>
<path fill-rule="evenodd" clip-rule="evenodd" d="M269.977 154.711C271.332 157.98 274.523 160.111 278.062 160.11C282.891 160.103 286.804 156.19 286.809 151.361C286.809 147.822 284.676 144.631 281.407 143.277C278.137 141.923 274.373 142.672 271.871 145.175C269.369 147.678 268.622 151.442 269.977 154.711ZM270.792 148.352C272.01 145.412 274.88 143.496 278.062 143.497V143.488C282.406 143.494 285.924 147.017 285.926 151.361C285.927 154.543 284.011 157.412 281.071 158.631C278.131 159.849 274.747 159.176 272.497 156.926C270.246 154.676 269.573 151.292 270.792 148.352Z" fill="#D8D3DA"/>
<path d="M311.936 133.594C311.711 131.978 310.52 130.665 308.935 130.282L311.936 133.594Z" fill="white"/>
<path d="M311.936 133.888C311.788 133.89 311.662 133.782 311.641 133.635C311.429 132.14 310.328 130.925 308.861 130.567C308.704 130.529 308.607 130.371 308.644 130.214C308.662 130.138 308.709 130.072 308.776 130.031C308.843 129.99 308.923 129.978 309 129.996C310.706 130.408 311.988 131.818 312.236 133.556C312.257 133.716 312.145 133.863 311.986 133.885L311.936 133.888Z" fill="#D8D3DA"/>
<path d="M250.043 195.051C249.957 195.051 249.875 195.014 249.819 194.948L244.377 188.547C244.308 188.467 244.288 188.357 244.323 188.257C244.358 188.158 244.443 188.085 244.547 188.066C244.65 188.047 244.756 188.084 244.824 188.164L250.267 194.569C250.339 194.656 250.355 194.778 250.307 194.881C250.26 194.984 250.157 195.05 250.043 195.051Z" fill="#D8D3DA"/>
<path d="M249.69 190.453C249.603 190.452 249.522 190.414 249.466 190.347L248.125 188.77C248.019 188.647 248.034 188.461 248.157 188.355C248.281 188.25 248.466 188.264 248.572 188.388L249.914 189.968C249.988 190.055 250.005 190.178 249.957 190.282C249.909 190.386 249.805 190.453 249.69 190.453Z" fill="#D8D3DA"/>
<path d="M246.398 194.972C246.311 194.973 246.228 194.935 246.171 194.869L243.265 191.447C243.161 191.324 243.176 191.141 243.297 191.036C243.356 190.985 243.433 190.96 243.511 190.966C243.589 190.972 243.661 191.009 243.712 191.068L246.622 194.489C246.672 194.549 246.696 194.626 246.69 194.704C246.683 194.782 246.646 194.854 246.586 194.904C246.533 194.948 246.467 194.972 246.398 194.972Z" fill="#D8D3DA"/>
<path d="M205.678 206.351C205.904 207.967 207.094 209.281 208.679 209.664L205.678 206.351Z" fill="white"/>
<path d="M208.679 209.958H208.612C206.906 209.547 205.623 208.136 205.376 206.398C205.354 206.236 205.468 206.086 205.63 206.065C205.792 206.043 205.942 206.157 205.964 206.319C206.176 207.814 207.277 209.029 208.744 209.387C208.907 209.407 209.022 209.554 209.003 209.717C208.983 209.879 208.836 209.995 208.673 209.976L208.679 209.958Z" fill="#D8D3DA"/>
<path d="M322.98 166.141L321.509 173.89C321.446 174.246 321.169 174.526 320.814 174.591C320.458 174.657 320.099 174.494 319.914 174.184L309.029 155.818C308.915 155.629 308.924 155.391 309.052 155.211C309.18 155.032 309.402 154.945 309.617 154.991L330.658 159.269C331.011 159.34 331.282 159.623 331.34 159.978C331.397 160.333 331.229 160.687 330.917 160.866L323.912 164.867C323.43 165.135 323.089 165.6 322.98 166.141Z" fill="white"/>
<path fill-rule="evenodd" clip-rule="evenodd" d="M319.532 174.402C319.763 174.8 320.189 175.045 320.65 175.043C320.729 175.049 320.809 175.047 320.888 175.037C321.425 174.947 321.848 174.531 321.947 173.996L323.418 166.247C323.497 165.83 323.754 165.469 324.121 165.258L331.132 161.245C331.605 160.976 331.861 160.441 331.775 159.903C331.688 159.366 331.277 158.938 330.744 158.83L309.703 154.553C309.316 154.471 308.917 154.627 308.688 154.95C308.459 155.272 308.443 155.699 308.647 156.038L319.532 174.402ZM309.397 155.462C309.418 155.432 309.452 155.415 309.488 155.415L309.503 155.417L330.543 159.695C330.716 159.73 330.849 159.869 330.877 160.043C330.905 160.217 330.823 160.39 330.67 160.478L323.668 164.479C323.075 164.816 322.66 165.397 322.532 166.067L321.062 173.816C321.031 173.991 320.894 174.127 320.719 174.158C320.545 174.188 320.37 174.106 320.282 173.952L309.397 155.588C309.371 155.55 309.371 155.5 309.397 155.462Z" fill="#D8D3DA"/>
<path d="M323.283 165.867C323.19 165.868 323.099 165.839 323.024 165.785L308.779 155.568C308.581 155.425 308.535 155.149 308.677 154.951C308.819 154.753 309.095 154.708 309.294 154.85L323.539 165.07C323.696 165.18 323.763 165.38 323.704 165.563C323.646 165.746 323.475 165.869 323.283 165.867Z" fill="#D8D3DA"/>
<path d="M77.7689 194.756C77.5252 194.756 77.3276 194.559 77.3276 194.315V182.441C77.3276 182.198 77.5252 182 77.7689 182C78.0126 182 78.2102 182.198 78.2102 182.441V194.309C78.2118 194.427 78.166 194.541 78.0831 194.625C78.0001 194.709 77.887 194.756 77.7689 194.756Z" fill="#D8D3DA"/>
<path d="M106.409 206.624H87.4596C87.2159 206.624 87.0183 206.426 87.0183 206.183V194.315C87.0183 194.071 87.2159 193.874 87.4596 193.874C87.7033 193.874 87.9009 194.071 87.9009 194.315V205.741H106.409C106.652 205.741 106.85 205.939 106.85 206.183C106.85 206.426 106.652 206.624 106.409 206.624Z" fill="#D8D3DA"/>
<path fill-rule="evenodd" clip-rule="evenodd" d="M68.0809 206.624H87.4595C87.7032 206.624 87.9008 206.426 87.9008 206.183V194.315C87.9008 194.071 87.7032 193.874 87.4595 193.874H68.0809C67.8372 193.874 67.6396 194.071 67.6396 194.315V206.183C67.6396 206.426 67.8372 206.624 68.0809 206.624ZM87.0182 205.742H68.5222V194.756H87.0182V205.742Z" fill="#D8D3DA"/>
<path d="M94.5908 194.756H51.4413C51.1976 194.756 51 194.559 51 194.315C51 194.071 51.1976 193.874 51.4413 193.874H94.5908C94.8345 193.874 95.0321 194.071 95.0321 194.315C95.0321 194.559 94.8345 194.756 94.5908 194.756Z" fill="#D8D3DA"/>
<path d="M105.005 206.624H58.8168C58.5731 206.624 58.3755 206.427 58.3755 206.183C58.3755 205.939 58.5731 205.742 58.8168 205.742H105.005C105.249 205.742 105.447 205.939 105.447 206.183C105.447 206.427 105.249 206.624 105.005 206.624Z" fill="#D8D3DA"/>
<path d="M77.7689 218.492C77.5252 218.492 77.3276 218.294 77.3276 218.051V206.183C77.3276 205.939 77.5252 205.742 77.7689 205.742H97.1475C97.3912 205.742 97.5888 205.939 97.5888 206.183V212.117C97.5888 212.36 97.3912 212.558 97.1475 212.558C96.9038 212.558 96.7062 212.36 96.7062 212.117V206.624H78.2132V218.039C78.2164 218.158 78.1709 218.274 78.0871 218.36C78.0034 218.445 77.8885 218.493 77.7689 218.492Z" fill="#D8D3DA"/>
<rect x="0.726562" y="107.556" width="56.5289" height="19.9649" rx="9.98243" fill="white"/>
<path fill-rule="evenodd" clip-rule="evenodd" d="M10.7076 128.074H47.2716C53.091 128.074 57.8085 123.356 57.8085 117.537C57.8085 111.718 53.091 107 47.2716 107H10.7076C4.8882 107 0.170654 111.718 0.170654 117.537C0.170654 123.356 4.8882 128.074 10.7076 128.074ZM1.27692 117.537C1.27692 112.328 5.49918 108.106 10.7076 108.106H47.2716C52.48 108.106 56.7023 112.328 56.7023 117.537C56.7023 122.745 52.48 126.968 47.2716 126.968H10.7076C5.49918 126.968 1.27692 122.745 1.27692 117.537Z" fill="#372168"/>
<path fill-rule="evenodd" clip-rule="evenodd" d="M45.3882 123.198C48.5148 123.198 51.0494 120.664 51.0494 117.537C51.0494 114.41 48.5148 111.876 45.3882 111.876C42.2616 111.876 39.7271 114.41 39.7271 117.537C39.7271 120.664 42.2616 123.198 45.3882 123.198Z" fill="#BDCBFF"/>
<path fill-rule="evenodd" clip-rule="evenodd" d="M39.647 119.915C40.6089 122.237 42.8749 123.751 45.3883 123.751C48.8185 123.747 51.598 120.967 51.6026 117.537C51.6026 115.023 50.0885 112.758 47.7664 111.796C45.4443 110.834 42.7714 111.365 40.9941 113.143C39.2169 114.92 38.6852 117.593 39.647 119.915ZM40.6691 115.582C41.4597 113.673 43.3223 112.429 45.3883 112.429C48.2075 112.433 50.4918 114.718 50.4964 117.537C50.4964 119.603 49.2518 121.466 47.3431 122.256C45.4343 123.047 43.2373 122.61 41.7764 121.149C40.3155 119.688 39.8784 117.491 40.6691 115.582Z" fill="#372168"/>
<rect x="57.2527" y="153.445" width="56.5289" height="19.9649" rx="9.98243" transform="rotate(-180 57.2527 153.445)" fill="white"/>
<path fill-rule="evenodd" clip-rule="evenodd" d="M10.7076 153.999H47.2716C53.0237 153.905 57.6379 149.216 57.6379 143.463C57.6379 137.71 53.0237 133.021 47.2716 132.928H10.7076C6.90296 132.866 3.36062 134.86 1.44027 138.145C-0.480089 141.43 -0.480089 145.496 1.44027 148.781C3.36062 152.066 6.90296 154.06 10.7076 153.999ZM2.406 138.701C4.1267 135.76 7.30041 133.975 10.7077 134.034H47.2717C52.4164 134.122 56.5409 138.318 56.5409 143.463C56.5409 148.609 52.4164 152.804 47.2717 152.892H10.7077C7.30041 152.951 4.1267 151.166 2.406 148.225C0.685304 145.284 0.685304 141.643 2.406 138.701Z" fill="#372168"/>
<path fill-rule="evenodd" clip-rule="evenodd" d="M12.5911 149.123C15.7177 149.123 18.2523 146.588 18.2523 143.462C18.2523 140.335 15.7177 137.8 12.5911 137.8C9.46453 137.8 6.92993 140.335 6.92993 143.462C6.92993 146.588 9.46453 149.123 12.5911 149.123Z" fill="#FFB3C4"/>
<path fill-rule="evenodd" clip-rule="evenodd" d="M6.38232 143.469C6.38181 146.899 9.16083 149.681 12.5911 149.684C16.0267 149.683 18.8109 146.897 18.8109 143.462C18.8063 140.031 16.0232 137.254 12.5929 137.256C9.16268 137.258 6.38283 140.039 6.38232 143.469ZM7.87513 141.521C8.66352 139.611 10.5249 138.364 12.5912 138.362V138.345C15.4158 138.347 17.7048 140.637 17.7048 143.462C17.7082 145.528 16.4663 147.393 14.5585 148.186C12.6507 148.98 10.4527 148.546 8.98969 147.087C7.52664 145.628 7.08673 143.431 7.87513 141.521Z" fill="#372168"/>
<path d="M4.92751 119.57C4.81653 119.57 4.71635 119.503 4.67307 119.401C4.39402 118.74 4.25105 118.03 4.2527 117.313C4.25246 116.765 4.33546 116.221 4.49884 115.698C4.54542 115.552 4.70144 115.471 4.8473 115.518C4.99317 115.565 5.07365 115.721 5.02707 115.867C4.68597 116.956 4.74082 118.132 5.18194 119.185C5.24139 119.326 5.1758 119.488 5.03536 119.548C5.00107 119.561 4.96451 119.569 4.92751 119.57Z" fill="#372168"/>
<path d="M44.3733 145.649C44.2925 145.649 44.2157 145.614 44.1631 145.552L40.5679 141.318C40.4693 141.201 40.4842 141.027 40.601 140.928C40.7179 140.83 40.8925 140.845 40.991 140.962L44.5863 145.196C44.6547 145.278 44.6696 145.392 44.6247 145.489C44.5798 145.586 44.483 145.648 44.3761 145.649H44.3733Z" fill="#372168"/>
<path d="M44.1465 142.607C44.0657 142.607 43.9889 142.572 43.9363 142.51L43.0486 141.468C42.9843 141.393 42.9651 141.289 42.998 141.196C43.0309 141.103 43.111 141.034 43.2082 141.016C43.3053 140.998 43.4047 141.033 43.4689 141.108L44.3567 142.154C44.4251 142.236 44.4401 142.35 44.3951 142.447C44.3502 142.544 44.2534 142.606 44.1465 142.607Z" fill="#372168"/>
<path d="M41.9617 145.591C41.8804 145.591 41.8035 145.554 41.7515 145.492L39.8156 143.232C39.7163 143.115 39.7305 142.94 39.8474 142.841C39.9642 142.742 40.1394 142.756 40.2387 142.873L42.1608 145.135C42.231 145.217 42.247 145.332 42.2018 145.43C42.1567 145.528 42.0586 145.591 41.9506 145.591H41.9617Z" fill="#372168"/>
<rect x="201.231" y="11.2325" width="108.538" height="87.1677" rx="43.5838" fill="white"/>
<path fill-rule="evenodd" clip-rule="evenodd" d="M208.04 98.631H302.96C306.847 98.6267 309.997 95.4762 310 91.589V18.0404C309.996 14.1539 306.846 11.0042 302.96 11H208.04C204.154 11.0042 201.004 14.1539 201 18.0404V91.5906C201.004 95.4771 204.154 98.6267 208.04 98.631ZM201.462 18.042C201.466 14.4104 204.409 11.4676 208.04 11.4633L302.96 11.4618C306.591 11.466 309.534 14.4089 309.538 18.0404V91.5906C309.534 95.2221 306.591 98.165 302.96 98.1693H208.04C204.409 98.165 201.466 95.2221 201.462 91.5906V18.042Z" fill="#D8D3DA"/>
<path d="M309.769 19.2718H201.231C201.103 19.2718 201 19.1684 201 19.0409C201 18.9134 201.103 18.81 201.231 18.81H309.769C309.897 18.81 310 18.9134 310 19.0409C310 19.1684 309.897 19.2718 309.769 19.2718Z" fill="#D8D3DA"/>
<path d="M303.434 16.7952C303.377 16.7958 303.323 16.7761 303.28 16.7397L300.715 14.5448C300.653 14.4898 300.624 14.4056 300.64 14.3238C300.657 14.242 300.715 14.1751 300.794 14.1483C300.873 14.1215 300.961 14.1389 301.023 14.1939L303.589 16.3888C303.663 16.4521 303.69 16.555 303.655 16.6461C303.621 16.7372 303.533 16.7968 303.435 16.7952H303.434Z" fill="#D8D3DA"/>
<path d="M300.868 16.7952C300.8 16.7949 300.736 16.7658 300.692 16.7151C300.652 16.6684 300.633 16.6078 300.637 16.5465C300.642 16.4853 300.671 16.4285 300.718 16.3888L303.283 14.1939C303.38 14.1089 303.527 14.1185 303.612 14.2154C303.697 14.3123 303.687 14.4598 303.591 14.5448L301.025 16.7397C300.981 16.7768 300.925 16.7966 300.868 16.7952Z" fill="#D8D3DA"/>
<path d="M209.726 16.0394C210.469 16.0394 210.469 14.885 209.726 14.885C208.982 14.885 208.982 16.0394 209.726 16.0394Z" fill="#D8D3DA"/>
<path d="M215.396 16.0394C216.138 16.0394 216.14 14.885 215.396 14.885C214.653 14.885 214.651 16.0394 215.396 16.0394Z" fill="#D8D3DA"/>
<path d="M221.065 16.0394C221.809 16.0394 221.81 14.885 221.065 14.885C220.32 14.885 220.322 16.0394 221.065 16.0394Z" fill="#D8D3DA"/>
<path d="M241.619 15.6977H226.162C226.034 15.6977 225.931 15.5944 225.931 15.4668C225.931 15.3393 226.034 15.236 226.162 15.236H241.619C241.746 15.236 241.85 15.3393 241.85 15.4668C241.85 15.5944 241.746 15.6977 241.619 15.6977Z" fill="#D8D3DA"/>
<path d="M207.003 95.728C205.586 95.4489 204.458 94.3748 204.111 92.9728L207.003 95.728Z" fill="white"/>
<path d="M207.003 95.8819H206.974C205.498 95.5896 204.324 94.4711 203.96 93.0112C203.939 92.9283 203.99 92.8446 204.073 92.8242C204.156 92.8038 204.24 92.8545 204.26 92.9374C204.593 94.2804 205.673 95.3097 207.031 95.5787C207.116 95.5867 207.178 95.6622 207.17 95.7472C207.162 95.8322 207.086 95.8946 207.001 95.8865L207.003 95.8819Z" fill="#D8D3DA"/>
<path d="M225.963 51.4415H217.003C216.876 51.4415 216.772 51.3381 216.772 51.2106C216.772 51.0831 216.876 50.9797 217.003 50.9797H225.963C226.091 50.9797 226.194 51.0831 226.194 51.2106C226.194 51.3381 226.091 51.4415 225.963 51.4415Z" fill="#D8D3DA"/>
<path d="M214.935 51.4415H208.076C207.948 51.4415 207.845 51.3381 207.845 51.2106C207.845 51.0831 207.948 50.9797 208.076 50.9797H214.935C215.062 50.9797 215.166 51.0831 215.166 51.2106C215.166 51.3381 215.062 51.4415 214.935 51.4415Z" fill="#D8D3DA"/>
<path d="M229.265 55.6913H213.939C213.811 55.6913 213.708 55.5879 213.708 55.4604C213.708 55.3329 213.811 55.2295 213.939 55.2295H229.265C229.392 55.2295 229.496 55.3329 229.496 55.4604C229.496 55.5879 229.392 55.6913 229.265 55.6913Z" fill="#D8D3DA"/>
<path d="M225.963 59.9349H208.076C207.948 59.9349 207.845 59.8316 207.845 59.7041C207.845 59.5765 207.948 59.4732 208.076 59.4732H225.963C226.091 59.4732 226.194 59.5765 226.194 59.7041C226.194 59.8316 226.091 59.9349 225.963 59.9349Z" fill="#D8D3DA"/>
<path d="M227.196 47.4241H214.934C214.807 47.4241 214.704 47.3208 214.704 47.1933C214.704 47.0657 214.807 46.9624 214.934 46.9624H227.196C227.323 46.9624 227.427 47.0657 227.427 47.1933C227.427 47.3208 227.323 47.4241 227.196 47.4241Z" fill="#D8D3DA"/>
<path d="M234.731 98.631C234.603 98.631 234.5 98.5276 234.5 98.4001V19.0378C234.5 18.9103 234.603 18.8069 234.731 18.8069C234.858 18.8069 234.962 18.9103 234.962 19.0378V98.4001C234.962 98.5276 234.858 98.631 234.731 98.631Z" fill="#D8D3DA"/>
<path d="M234.717 65.1129C241.358 65.1129 246.743 59.7287 246.743 53.0869C246.743 46.4452 241.358 41.061 234.717 41.061C228.075 41.061 222.691 46.4452 222.691 53.0869C222.691 59.7287 228.075 65.1129 234.717 65.1129Z" fill="white"/>
<path fill-rule="evenodd" clip-rule="evenodd" d="M222.458 53.0869C222.458 59.8562 227.946 65.3438 234.715 65.3438C241.481 65.3361 246.964 59.853 246.972 53.0869C246.972 46.3177 241.484 40.8301 234.715 40.8301C227.946 40.8301 222.458 46.3177 222.458 53.0869ZM223.818 48.5751C225.643 44.1674 229.944 41.2934 234.715 41.2934C241.226 41.2994 246.503 46.5758 246.51 53.0869C246.511 57.8577 243.637 62.1591 239.23 63.9853C234.822 65.8114 229.749 64.8026 226.375 61.4294C223.002 58.0562 221.992 52.9828 223.818 48.5751Z" fill="#D8D3DA"/>
<path d="M225.963 26.1983H214.934C214.807 26.1983 214.704 26.0949 214.704 25.9674C214.704 25.8399 214.807 25.7365 214.934 25.7365H225.963C226.091 25.7365 226.194 25.8399 226.194 25.9674C226.194 26.0949 226.091 26.1983 225.963 26.1983Z" fill="#D8D3DA"/>
<path d="M211.511 26.1983H208.082C207.954 26.1983 207.851 26.0949 207.851 25.9674C207.851 25.8399 207.954 25.7365 208.082 25.7365H211.511C211.639 25.7365 211.742 25.8399 211.742 25.9674C211.742 26.0949 211.639 26.1983 211.511 26.1983Z" fill="#D8D3DA"/>
<path d="M229.265 30.4465H217.003C216.876 30.4465 216.772 30.3431 216.772 30.2156C216.772 30.0881 216.876 29.9847 217.003 29.9847H229.265C229.392 29.9847 229.496 30.0881 229.496 30.2156C229.496 30.3431 229.392 30.4465 229.265 30.4465Z" fill="#D8D3DA"/>
<path d="M225.963 34.6902H208.076C207.948 34.6902 207.845 34.5868 207.845 34.4593C207.845 34.3318 207.948 34.2284 208.076 34.2284H225.963C226.091 34.2284 226.194 34.3318 226.194 34.4593C226.194 34.5868 226.091 34.6902 225.963 34.6902Z" fill="#D8D3DA"/>
<path d="M227.615 38.9353H221.601C221.473 38.9353 221.37 38.832 221.37 38.7045C221.37 38.5769 221.473 38.4736 221.601 38.4736H227.615C227.742 38.4736 227.846 38.5769 227.846 38.7045C227.846 38.832 227.742 38.9353 227.615 38.9353Z" fill="#D8D3DA"/>
<path d="M225.963 43.179H208.076C207.948 43.179 207.845 43.0756 207.845 42.9481C207.845 42.8206 207.948 42.7172 208.076 42.7172H225.963C226.091 42.7172 226.194 42.8206 226.194 42.9481C226.194 43.0756 226.091 43.179 225.963 43.179Z" fill="#D8D3DA"/>
<path d="M225.697 64.1801H219.683C219.556 64.1801 219.452 64.0767 219.452 63.9492C219.452 63.8217 219.556 63.7184 219.683 63.7184H225.697C225.824 63.7184 225.928 63.8217 225.928 63.9492C225.928 64.0767 225.824 64.1801 225.697 64.1801Z" fill="#D8D3DA"/>
<path d="M231.924 56.1407C231.874 56.141 231.824 56.1242 231.784 56.093L228.081 53.2716C228.024 53.2273 227.991 53.1592 227.99 53.0869C227.991 53.0151 228.024 52.9475 228.081 52.9038L231.784 50.0824C231.849 50.0272 231.94 50.0124 232.019 50.0438C232.098 50.0752 232.154 50.1478 232.163 50.2325C232.173 50.3173 232.135 50.4004 232.065 50.4487L228.601 53.0869L232.065 55.7267C232.113 55.7636 232.145 55.8186 232.154 55.8793C232.162 55.94 232.145 56.0015 232.108 56.0499C232.064 56.1069 231.996 56.1404 231.924 56.1407Z" fill="#D8D3DA"/>
<path d="M237.538 56.1408C237.466 56.1404 237.398 56.107 237.353 56.05C237.277 55.9484 237.297 55.8037 237.398 55.7267L240.86 53.087L237.398 50.4487C237.325 50.4019 237.284 50.3178 237.293 50.2313C237.301 50.1447 237.358 50.0704 237.439 50.0389C237.52 50.0075 237.612 50.0243 237.677 50.0824L241.382 52.9038C241.438 52.9475 241.472 53.0152 241.472 53.087C241.472 53.1592 241.439 53.2273 241.382 53.2717L237.677 56.0931C237.637 56.1239 237.588 56.1407 237.538 56.1408Z" fill="#D8D3DA"/>
<rect x="278.94" y="33.3618" width="20.9596" height="19.8236" rx="7.66" fill="white"/>
<path fill-rule="evenodd" clip-rule="evenodd" d="M280.117 53.4163H298.719C299.497 53.4155 300.128 52.7847 300.129 52.0064V34.5408C300.128 33.7625 299.497 33.1318 298.719 33.1309H280.117C279.339 33.1318 278.708 33.7625 278.708 34.5408V52.0064C278.708 52.7847 279.339 53.4155 280.117 53.4163ZM279.169 34.5347C279.171 34.0118 279.595 33.5883 280.117 33.5866L298.719 33.5927C299.242 33.5936 299.666 34.0176 299.667 34.5409V52.0003C299.667 52.5239 299.243 52.9485 298.719 52.9485H280.117C279.594 52.9476 279.17 52.5236 279.169 52.0003V34.5347Z" fill="#D8D3DA"/>
<rect x="278.94" y="58.5389" width="20.9596" height="25.1771" rx="7.66" fill="white"/>
<path fill-rule="evenodd" clip-rule="evenodd" d="M297.658 58.7728H295.153C295.025 58.7728 294.922 58.6695 294.922 58.5419C294.922 58.4144 295.025 58.3111 295.153 58.3111H297.658C297.786 58.3111 297.889 58.4144 297.889 58.5419C297.889 58.6695 297.786 58.7728 297.658 58.7728ZM299.667 61.8205C299.667 61.948 299.77 62.0514 299.898 62.0514V62.0483C300.023 62.0483 300.125 61.9487 300.129 61.8236V59.7241C300.129 59.5614 300.101 59.3999 300.046 59.2469C299.997 59.1361 299.871 59.0816 299.757 59.1221C299.643 59.1625 299.58 59.2842 299.612 59.4008C299.649 59.5035 299.667 59.6119 299.667 59.721V61.8205ZM278.938 63.1181C278.811 63.1181 278.708 63.0147 278.708 62.8872V60.3813C278.708 60.2538 278.811 60.1505 278.938 60.1505C279.066 60.1505 279.169 60.2538 279.169 60.3813V62.8872C279.168 63.0135 279.065 63.115 278.938 63.115V63.1181ZM299.667 66.8337C299.667 66.9613 299.77 67.0646 299.898 67.0646V67.0616C300.024 67.0616 300.127 66.9601 300.129 66.8337V64.3248C300.129 64.1973 300.025 64.0939 299.898 64.0939C299.77 64.0939 299.667 64.1973 299.667 64.3248V66.8337ZM278.938 68.1313C278.811 68.1313 278.708 68.0279 278.708 67.9004V65.3946C278.708 65.2671 278.811 65.1637 278.938 65.1637C279.066 65.1637 279.169 65.2671 279.169 65.3946V67.9004C279.168 68.0267 279.065 68.1282 278.938 68.1282V68.1313ZM299.667 71.847C299.667 71.9745 299.77 72.0779 299.898 72.0779V72.0748C300.024 72.0748 300.127 71.9733 300.129 71.847V69.3411C300.129 69.2136 300.025 69.1103 299.898 69.1103C299.77 69.1103 299.667 69.2136 299.667 69.3411V71.847ZM278.938 73.1446C278.811 73.1446 278.708 73.0412 278.708 72.9137V70.4047C278.708 70.2772 278.811 70.1739 278.938 70.1739C279.066 70.1739 279.169 70.2772 279.169 70.4047V72.9106C279.17 72.9724 279.146 73.0319 279.103 73.0758C279.059 73.1198 279 73.1446 278.938 73.1446ZM299.667 76.8572C299.667 76.9847 299.77 77.088 299.898 77.088C299.959 77.088 300.018 77.0637 300.061 77.0204C300.104 76.9771 300.129 76.9184 300.129 76.8572V74.3513C300.129 74.2238 300.025 74.1204 299.898 74.1204C299.77 74.1204 299.667 74.2238 299.667 74.3513V76.8572ZM278.938 78.1547C278.811 78.1547 278.708 78.0514 278.708 77.9238V75.418C278.708 75.2905 278.811 75.1871 278.938 75.1871C279.066 75.1871 279.169 75.2905 279.169 75.418V77.9238C279.169 78.0514 279.066 78.1547 278.938 78.1547ZM299.667 81.8704C299.667 81.9979 299.77 82.1013 299.898 82.1013C299.959 82.1013 300.018 82.077 300.061 82.0337C300.104 81.9904 300.129 81.9316 300.129 81.8704V79.3645C300.129 79.237 300.025 79.1337 299.898 79.1337C299.77 79.1337 299.667 79.237 299.667 79.3645V81.8704ZM279.006 83.1603C278.908 83.161 278.821 83.099 278.789 83.0064C278.735 82.8552 278.707 82.6959 278.708 82.5354V80.4313C278.708 80.3037 278.811 80.2004 278.938 80.2004C279.066 80.2004 279.169 80.3037 279.169 80.4313V82.5338C279.17 82.6387 279.188 82.7427 279.223 82.8417C279.244 82.8994 279.241 82.9631 279.214 83.0185C279.188 83.074 279.141 83.1167 279.083 83.1372C279.059 83.1487 279.033 83.1565 279.006 83.1603ZM296.213 83.9468H298.719H298.733C298.793 83.9456 298.851 83.9205 298.892 83.8769C298.934 83.8333 298.957 83.7748 298.956 83.7144C298.953 83.5858 298.847 83.4834 298.719 83.4851H296.213C296.085 83.4851 295.982 83.5884 295.982 83.716C295.982 83.8435 296.085 83.9468 296.213 83.9468ZM291.2 83.9468H293.706C293.833 83.9468 293.937 83.8435 293.937 83.716C293.937 83.5884 293.833 83.4851 293.706 83.4851H291.2C291.072 83.4851 290.969 83.5884 290.969 83.716C290.969 83.8435 291.072 83.9468 291.2 83.9468ZM288.692 83.9468H286.187C286.059 83.9468 285.956 83.8435 285.956 83.716C285.956 83.5884 286.059 83.4851 286.187 83.4851H288.692C288.82 83.4851 288.923 83.5884 288.923 83.716C288.923 83.8435 288.82 83.9468 288.692 83.9468ZM281.173 83.9468H283.679C283.807 83.9468 283.91 83.8435 283.91 83.716C283.91 83.5884 283.807 83.4851 283.679 83.4851H281.173C281.046 83.4851 280.942 83.5884 280.942 83.716C280.942 83.8435 281.046 83.9468 281.173 83.9468ZM290.139 58.7728H292.645C292.773 58.7728 292.876 58.6695 292.876 58.5419C292.876 58.4144 292.773 58.3111 292.645 58.3111H290.139C290.012 58.3111 289.908 58.4144 289.908 58.5419C289.908 58.6695 290.012 58.7728 290.139 58.7728ZM287.632 58.7728H285.126C284.999 58.7728 284.895 58.6695 284.895 58.5419C284.895 58.4144 284.999 58.3111 285.126 58.3111H287.632C287.759 58.3111 287.863 58.4144 287.863 58.5419C287.863 58.6695 287.759 58.7728 287.632 58.7728ZM280.118 58.7728H282.619H282.623C282.751 58.7728 282.854 58.6695 282.854 58.5419C282.854 58.4144 282.751 58.3111 282.623 58.3111H280.113C280.052 58.3111 279.993 58.3354 279.95 58.3788C279.907 58.4221 279.883 58.4809 279.884 58.5419C279.885 58.67 279.989 58.7728 280.118 58.7728Z" fill="#D8D3DA"/>
<rect x="253.868" y="33.3618" width="21.0119" height="50.3526" rx="7.66" fill="white"/>
<path fill-rule="evenodd" clip-rule="evenodd" d="M255.044 83.9468H273.696C274.07 83.9464 274.429 83.7973 274.694 83.5323C274.958 83.2673 275.106 82.9081 275.106 82.5338V34.5408C275.105 33.7625 274.474 33.1318 273.696 33.1309H255.044C254.265 33.1318 253.635 33.7625 253.634 34.5408V82.5369C253.635 83.3152 254.265 83.9459 255.044 83.9468ZM254.099 34.5347C254.099 34.0114 254.523 33.5874 255.047 33.5866L273.696 33.5927C274.219 33.5936 274.643 34.0176 274.644 34.5409V82.5338C274.643 83.0571 274.219 83.4811 273.696 83.482H255.047C254.523 83.4811 254.099 83.0571 254.099 82.5338V34.5347Z" fill="#D8D3DA"/>
<path d="M267.693 66.5167L274.407 83.1649L267.693 66.5167Z" fill="white"/>
<path d="M274.407 83.3188C274.344 83.3189 274.287 83.2804 274.264 83.2218L267.55 66.5736C267.524 66.4965 267.562 66.4125 267.638 66.382C267.713 66.3514 267.799 66.3848 267.835 66.4582L274.55 83.1064C274.566 83.1445 274.565 83.1873 274.549 83.2252C274.533 83.2631 274.502 83.293 274.464 83.308C274.446 83.3146 274.426 83.3182 274.407 83.3188Z" fill="#D8D3DA"/>
<path d="M254.399 33.5573L267.127 65.1129L254.399 33.5573Z" fill="white"/>
<path d="M267.126 65.2668C267.064 65.2671 267.007 65.2294 266.983 65.1714L254.255 33.6174C254.224 33.5383 254.262 33.4484 254.341 33.4165C254.42 33.3846 254.51 33.4229 254.542 33.5019L267.27 65.056C267.285 65.0939 267.284 65.1363 267.268 65.1739C267.252 65.2114 267.221 65.241 267.183 65.2561C267.165 65.2632 267.146 65.2669 267.126 65.2668Z" fill="#D8D3DA"/>
<path d="M274.407 33.5573L254.399 83.1649L274.407 33.5573Z" fill="white"/>
<path d="M254.399 83.3188C254.379 83.3182 254.36 83.3146 254.342 83.308C254.303 83.293 254.273 83.2631 254.257 83.2252C254.24 83.1873 254.24 83.1445 254.256 83.1064L274.266 33.4988C274.297 33.4197 274.387 33.3815 274.466 33.4134C274.545 33.4452 274.584 33.5352 274.552 33.6142L254.542 83.2218C254.519 83.2804 254.462 83.3189 254.399 83.3188Z" fill="#D8D3DA"/>
<path d="M356.2 21.018H282.9V73.0997H356.2V21.018Z" fill="white"/>
<path d="M356.198 73.5124H282.898C282.67 73.5124 282.485 73.3277 282.485 73.0998V21.018C282.485 20.7901 282.67 20.6053 282.898 20.6053H356.198C356.426 20.6053 356.611 20.7901 356.611 21.018V73.0998C356.611 73.3277 356.426 73.5124 356.198 73.5124ZM283.311 72.6871H355.785V21.4306H283.311V72.6871Z" fill="#372168"/>
<path d="M303.84 47.064L314.484 33.8285C314.575 33.7161 314.713 33.6518 314.858 33.6542C315.003 33.6567 315.139 33.7254 315.227 33.8409L331.281 55.224C331.364 55.3342 331.493 55.4 331.631 55.4024C331.77 55.4048 331.901 55.3436 331.988 55.2364L340.86 44.1941C340.95 44.0802 341.087 44.0137 341.232 44.0137C341.376 44.0137 341.513 44.0802 341.603 44.1941L356.184 63.6048V73.0956H282.898L301.467 50.0165" fill="#FF9966"/>
<path d="M303.84 47.064L314.484 33.8285C314.575 33.7161 314.713 33.6518 314.858 33.6542C315.003 33.6567 315.139 33.7254 315.227 33.8409L331.281 55.224C331.364 55.3342 331.493 55.4 331.631 55.4024C331.77 55.4048 331.901 55.3436 331.988 55.2364L340.86 44.1941C340.95 44.0802 341.087 44.0137 341.232 44.0137C341.376 44.0137 341.513 44.0802 341.603 44.1941L356.184 63.6048V73.0956H282.898L301.467 50.0165" fill="white" fill-opacity="0.16"/>
<path d="M356.198 73.5124H282.898C282.74 73.5115 282.596 73.4202 282.528 73.2774C282.46 73.1346 282.479 72.9654 282.578 72.8419L301.147 49.7627C301.237 49.6409 301.387 49.5784 301.537 49.5997C301.687 49.6211 301.813 49.723 301.866 49.8651C301.918 50.0072 301.889 50.1667 301.789 50.2806L283.769 72.6871H355.794V63.7534L341.295 44.454C341.285 44.439 341.268 44.4304 341.25 44.4314C341.232 44.4307 341.216 44.4383 341.205 44.452L332.333 55.4943C332.17 55.6979 331.923 55.8164 331.662 55.8162H331.648C331.382 55.8119 331.133 55.6846 330.973 55.4716L314.911 34.0884C314.9 34.0749 314.883 34.0667 314.866 34.0657C314.848 34.0648 314.83 34.0734 314.82 34.0884L304.176 47.3219C304.031 47.4914 303.778 47.5154 303.604 47.376C303.43 47.2366 303.398 46.9843 303.532 46.8061L314.156 33.5809C314.327 33.3682 314.586 33.2464 314.859 33.2507C315.131 33.2553 315.387 33.3855 315.551 33.6036L331.613 54.9868C331.619 54.9954 331.629 55.0007 331.64 55.0012C331.651 55.0001 331.661 54.995 331.668 54.9868L340.54 43.9444C340.713 43.7336 340.972 43.6128 341.244 43.6164C341.516 43.6196 341.772 43.7492 341.935 43.9671L356.516 63.3779C356.569 63.4493 356.598 63.5362 356.598 63.6255V73.1163C356.59 73.333 356.415 73.5061 356.198 73.5124Z" fill="#372168"/>
<path d="M281.413 71.6142V74.5873H284.386V71.6142H281.413Z" fill="white"/>
<path d="M284.386 75H281.413C281.185 75 281 74.8152 281 74.5873V71.6142C281 71.3863 281.185 71.2016 281.413 71.2016H284.386C284.614 71.2016 284.798 71.3863 284.798 71.6142V74.5873C284.798 74.8152 284.614 75 284.386 75ZM281.825 74.1747H283.973V72.0269H281.825V74.1747Z" fill="#372168"/>
<path d="M281.413 19.5304V22.5035H284.386V19.5304H281.413Z" fill="white"/>
<path d="M284.386 22.9161H281.413C281.185 22.9161 281 22.7314 281 22.5035V19.5304C281 19.3025 281.185 19.1177 281.413 19.1177H284.386C284.614 19.1177 284.798 19.3025 284.798 19.5304V22.5035C284.798 22.7314 284.614 22.9161 284.386 22.9161ZM281.825 22.0908H283.973V19.943H281.825V22.0908Z" fill="#372168"/>
<path d="M281.413 45.5104V48.4835H284.386V45.5104H281.413Z" fill="white"/>
<path d="M284.386 48.8961H281.413C281.185 48.8961 281 48.7114 281 48.4835V45.5104C281 45.2825 281.185 45.0978 281.413 45.0978H284.386C284.614 45.0978 284.798 45.2825 284.798 45.5104V48.4835C284.798 48.7114 284.614 48.8961 284.386 48.8961ZM281.825 48.0709H283.973V45.9231H281.825V48.0709Z" fill="#372168"/>
<path d="M318.084 19.5304V22.5035H321.057V19.5304H318.084Z" fill="white"/>
<path d="M321.057 22.9161H318.086C317.858 22.9161 317.674 22.7314 317.674 22.5035V19.5304C317.674 19.3025 317.858 19.1177 318.086 19.1177H321.057C321.285 19.1177 321.47 19.3025 321.47 19.5304V22.5035C321.47 22.7314 321.285 22.9161 321.057 22.9161ZM318.499 22.0908H320.645V19.943H318.499V22.0908Z" fill="#372168"/>
<path d="M318.086 71.6122V74.5853H321.06V71.6122H318.086Z" fill="white"/>
<path d="M321.057 75H318.086C317.858 75 317.674 74.8152 317.674 74.5873V71.6142C317.674 71.3863 317.858 71.2016 318.086 71.2016H321.057C321.285 71.2016 321.47 71.3863 321.47 71.6142V74.5873C321.47 74.8152 321.285 75 321.057 75ZM318.499 74.1747H320.645V72.0269H318.499V74.1747Z" fill="#372168"/>
<path d="M354.712 71.5524V74.5255H357.686V71.5524H354.712Z" fill="white"/>
<path d="M357.69 74.9381H354.717C354.489 74.9381 354.304 74.7534 354.304 74.5255V71.5441C354.304 71.3162 354.489 71.1315 354.717 71.1315H357.69C357.918 71.1315 358.102 71.3162 358.102 71.5441V74.5172C358.105 74.6281 358.062 74.7352 357.984 74.8143C357.907 74.8935 357.801 74.9381 357.69 74.9381ZM355.129 74.1128H357.277V71.9568H355.129V74.1128Z" fill="#372168"/>
<path d="M354.712 19.4685V22.4416H357.686V19.4685H354.712Z" fill="white"/>
<path d="M357.69 22.8522H354.717C354.489 22.8522 354.304 22.6675 354.304 22.4396V19.4685C354.304 19.2406 354.489 19.0559 354.717 19.0559H357.69C357.918 19.0559 358.102 19.2406 358.102 19.4685V22.4396C358.102 22.6675 357.918 22.8522 357.69 22.8522ZM355.129 22.0269H357.277V19.8812H355.129V22.0269Z" fill="#372168"/>
<path d="M354.712 45.4485V48.4216H357.686V45.4485H354.712Z" fill="white"/>
<path d="M357.69 48.8343H354.717C354.489 48.8343 354.304 48.6496 354.304 48.4217V45.4485C354.304 45.2206 354.489 45.0359 354.717 45.0359H357.69C357.918 45.0359 358.102 45.2206 358.102 45.4485V48.4217C358.102 48.6496 357.918 48.8343 357.69 48.8343ZM355.129 48.009H357.277V45.8612H355.129V48.009Z" fill="#372168"/>
<path d="M319.549 19.6191C319.321 19.6191 319.136 19.4344 319.136 19.2065V3.75298C319.136 3.52508 319.321 3.34033 319.549 3.34033C319.777 3.34033 319.962 3.52508 319.962 3.75298V19.2065C319.962 19.4344 319.777 19.6191 319.549 19.6191Z" fill="#372168"/>
<path d="M319.572 3.42909C320.405 3.42909 321.08 2.75384 321.08 1.92087C321.08 1.08791 320.405 0.412659 319.572 0.412659C318.739 0.412659 318.063 1.08791 318.063 1.92087C318.063 2.75384 318.739 3.42909 319.572 3.42909Z" fill="white"/>
<path d="M319.572 3.8417C318.511 3.8417 317.651 2.98171 317.651 1.92085C317.651 0.859995 318.511 0 319.572 0C320.633 0 321.493 0.859995 321.493 1.92085C321.49 2.98077 320.632 3.83944 319.572 3.8417ZM319.572 0.825286C319.129 0.825286 318.729 1.09221 318.56 1.5016C318.39 1.91098 318.484 2.38221 318.797 2.69553C319.11 3.00886 319.582 3.1026 319.991 2.93302C320.4 2.76345 320.667 2.36397 320.667 1.92085C320.667 1.31579 320.177 0.825286 319.572 0.825286Z" fill="#372168"/>
<path d="M332.283 40.0924C335.505 40.0924 338.116 37.481 338.116 34.2597C338.116 31.0384 335.505 28.427 332.283 28.427C329.062 28.427 326.451 31.0384 326.451 34.2597C326.451 37.481 329.062 40.0924 332.283 40.0924Z" fill="white"/>
<path d="M332.283 40.503C329.757 40.5038 327.479 38.9825 326.512 36.6486C325.544 34.3147 326.079 31.6279 327.865 29.8415C329.651 28.0551 332.338 27.5209 334.672 28.4881C337.006 29.4553 338.527 31.7333 338.527 34.2597C338.522 37.7059 335.729 40.4984 332.283 40.503ZM332.283 28.8396C330.091 28.8388 328.114 30.1588 327.274 32.1841C326.435 34.2094 326.898 36.541 328.448 38.0915C329.998 39.6421 332.329 40.1062 334.355 39.2674C336.38 38.4286 337.701 36.4521 337.701 34.2597C337.701 31.2664 335.277 28.8389 332.283 28.8355V28.8396Z" fill="#372168"/>
<path d="M315.883 58.422C315.822 58.422 315.765 58.3957 315.726 58.3498L312.877 54.9992C312.803 54.9126 312.813 54.7824 312.899 54.7083C312.986 54.6342 313.116 54.6444 313.19 54.731L316.04 58.0837C316.091 58.1449 316.102 58.2301 316.068 58.3025C316.035 58.3748 315.963 58.4214 315.883 58.422Z" fill="#372168"/>
<path d="M315.703 56.0143C315.643 56.0143 315.586 55.9879 315.546 55.9421L314.845 55.1168C314.809 55.0752 314.792 55.0212 314.796 54.9666C314.8 54.9121 314.826 54.8615 314.868 54.8259C314.909 54.7906 314.964 54.7733 315.018 54.778C315.073 54.7826 315.123 54.8088 315.159 54.8507L315.86 55.6759C315.912 55.7371 315.924 55.8232 315.891 55.8964C315.857 55.9695 315.784 56.0164 315.703 56.0164V56.0143Z" fill="#372168"/>
<path d="M313.974 58.3746C313.914 58.3746 313.857 58.3482 313.817 58.3024L312.295 56.5115C312.24 56.4565 312.221 56.3754 312.245 56.3016C312.269 56.2278 312.333 56.1738 312.409 56.162C312.486 56.1501 312.563 56.1823 312.608 56.2454L314.131 58.0342C314.183 58.0954 314.195 58.1814 314.162 58.2546C314.128 58.3277 314.055 58.3746 313.974 58.3746Z" fill="#372168"/>
</svg>
