<svg width="100" height="105" viewBox="0 0 100 105" fill="none" xmlns="http://www.w3.org/2000/svg">
<g clip-path="url(#clip0)">
<path d="M0.692078 35.3378V8.11921C0.693905 4.04184 3.99881 0.736935 8.07618 0.735107H66.1424C67.4453 0.735107 68.6988 1.23424 69.6457 2.12915L85.1557 16.7914C86.1737 17.755 86.7517 19.0949 86.7517 20.4967V96.3245C86.7517 100.401 83.4472 103.705 79.3709 103.705H8.07618C3.99881 103.703 0.693905 100.399 0.692078 96.3212V47.1821" fill="white"/>
<path d="M79.3709 104.378H8.07617C3.63456 104.372 0.035289 100.773 0.0298157 96.3312V47.1822C0.0298157 46.8164 0.326316 46.5199 0.692067 46.5199C1.05782 46.5199 1.35432 46.8164 1.35432 47.1822V96.3312C1.35979 100.041 4.36606 103.048 8.07617 103.053H79.3709C83.0799 103.049 86.0858 100.044 86.0894 96.3345V20.5067C86.0872 19.2865 85.5845 18.1207 84.6987 17.2815L69.1921 2.62256C68.3696 1.84046 67.2774 1.40525 66.1424 1.40733H8.07617C4.36606 1.4128 1.35979 4.41908 1.35432 8.12919V35.3378C1.35432 35.7035 1.05782 36 0.692067 36C0.326316 36 0.0298157 35.7035 0.0298157 35.3378V8.11925C0.035289 3.67764 3.63456 0.0783689 8.07617 0.0728857H66.1424C67.6149 0.0701732 69.032 0.634616 70.0994 1.64905L85.6093 16.308C86.7578 17.3991 87.4099 18.9126 87.4139 20.4967V96.3245C87.4139 100.768 83.8145 104.372 79.3709 104.378Z" fill="#372168"/>
<path d="M84.8808 18.2981H73.6722C70.6346 18.2981 68.1722 15.8357 68.1722 12.7981V2.07954C68.166 1.84135 68.3061 1.62362 68.5256 1.53073C68.745 1.43784 68.9989 1.48873 69.1656 1.65901L85.3907 17.0133C85.611 17.2229 85.6818 17.5453 85.5697 17.8279C85.4575 18.1105 85.1849 18.2966 84.8808 18.2981Z" fill="#BEC5D8"/>
<path d="M84.8808 18.2981H73.6722C70.6346 18.2981 68.1722 15.8357 68.1722 12.7981V2.07954C68.166 1.84135 68.3061 1.62362 68.5256 1.53073C68.745 1.43784 68.9989 1.48873 69.1656 1.65901L85.3907 17.0133C85.611 17.2229 85.6818 17.5453 85.5697 17.8279C85.4575 18.1105 85.1849 18.2966 84.8808 18.2981Z" fill="white" fill-opacity="0.16"/>
<path d="M84.8808 18.9603H73.6722C70.2704 18.9566 67.5136 16.1998 67.5099 12.798V2.07946C67.5083 1.58326 67.803 1.13398 68.2588 0.937822C68.7146 0.741661 69.2434 0.836494 69.6026 1.1788L85.8477 16.5331C86.268 16.9281 86.4041 17.54 86.1906 18.0759C85.9771 18.6117 85.4576 18.9625 84.8808 18.9603ZM68.8344 2.27482V12.798C68.8363 15.4691 71.0011 17.6339 73.6722 17.6357H84.8808C84.9146 17.639 84.9463 17.6184 84.9569 17.5861C84.9722 17.5553 84.9639 17.5181 84.9371 17.4967L68.8344 2.27482Z" fill="#372168"/>
<path d="M4.68543 8.78149C4.50256 8.78149 4.35431 8.63324 4.35431 8.45036C4.35796 5.99037 6.35127 3.99706 8.81126 3.99341C8.99414 3.99341 9.14239 4.14166 9.14239 4.32453C9.14239 4.50741 8.99414 4.65566 8.81126 4.65566C6.71626 4.65749 5.01839 6.35536 5.01656 8.45036C5.01656 8.63324 4.86831 8.78149 4.68543 8.78149Z" fill="#372168"/>
<path d="M52.4636 75.0199C52.3904 75.0197 52.3194 74.9952 52.2616 74.9503L49.5662 72.8808C49.4955 72.8276 49.4491 72.7482 49.4373 72.6605C49.4254 72.5728 49.4492 72.484 49.5033 72.4139C49.6151 72.2698 49.8223 72.2431 49.9669 72.3543L52.6656 74.4238C52.7801 74.5097 52.8265 74.6595 52.7805 74.795C52.7346 74.9306 52.6067 75.0213 52.4636 75.0199Z" fill="#372168"/>
<path d="M55.1656 74.5034C55.0924 74.5032 55.0214 74.4787 54.9636 74.4339L49.5696 70.2915C49.4676 70.2223 49.4125 70.1023 49.4264 69.98C49.4403 69.8576 49.521 69.753 49.6359 69.7086C49.7508 69.6641 49.8809 69.6871 49.9735 69.7683L55.3676 73.9074C55.5117 74.0191 55.5384 74.2264 55.4272 74.3709C55.3653 74.4534 55.2686 74.5024 55.1656 74.5034Z" fill="#372168"/>
<path d="M55.1656 71.861C55.0924 71.8608 55.0214 71.8364 54.9636 71.7915L53.4801 70.6524C53.344 70.539 53.3213 70.3385 53.4286 70.1975C53.5359 70.0565 53.7352 70.025 53.8808 70.1259L55.3676 71.2683C55.5117 71.3801 55.5384 71.5873 55.4272 71.7319C55.3646 71.8131 55.2681 71.8608 55.1656 71.861Z" fill="#372168"/>
<path d="M76.8973 99.1623C76.7145 99.1623 76.5662 99.0141 76.5662 98.8312C76.5662 98.6483 76.7145 98.5001 76.8973 98.5001C78.9924 98.4983 80.6902 96.8004 80.6921 94.7054C80.6921 94.5225 80.8403 94.3743 81.0232 94.3743C81.2061 94.3743 81.3543 94.5225 81.3543 94.7054C81.3525 97.1661 79.3581 99.1605 76.8973 99.1623Z" fill="#372168"/>
<path d="M28.9205 21.7053H19.4967C17.4851 21.7053 15.8543 23.3361 15.8543 25.3477V34.7715C15.8543 36.7832 17.4851 38.4139 19.4967 38.4139H28.9205C30.9322 38.4139 32.5629 36.7832 32.5629 34.7715V25.3477C32.5629 23.3361 30.9322 21.7053 28.9205 21.7053Z" fill="#8AB99E"/>
<path d="M28.9205 21.7053H19.4967C17.4851 21.7053 15.8543 23.3361 15.8543 25.3477V34.7715C15.8543 36.7832 17.4851 38.4139 19.4967 38.4139H28.9205C30.9322 38.4139 32.5629 36.7832 32.5629 34.7715V25.3477C32.5629 23.3361 30.9322 21.7053 28.9205 21.7053Z" fill="white" fill-opacity="0.09"/>
<path d="M28.9206 39.0729H19.4967C17.1193 39.0729 15.1921 37.1457 15.1921 34.7683V25.3444C15.1921 22.967 17.1193 21.0398 19.4967 21.0398H28.9206C31.2979 21.0398 33.2252 22.967 33.2252 25.3444V34.7683C33.2252 35.9099 32.7717 37.0048 31.9644 37.8121C31.1571 38.6194 30.0622 39.0729 28.9206 39.0729ZM19.4967 22.3643C17.8508 22.3643 16.5166 23.6985 16.5166 25.3444V34.7683C16.5166 36.4141 17.8508 37.7484 19.4967 37.7484H28.9206C30.5664 37.7484 31.9007 36.4141 31.9007 34.7683V25.3444C31.9007 23.6985 30.5664 22.3643 28.9206 22.3643H19.4967Z" fill="#372168"/>
<path d="M23.5828 34.4703C23.3396 34.4659 23.1185 34.3286 23.0066 34.1127L21.0596 30.3709C20.9508 30.1604 20.9625 29.9077 21.0905 29.7082C21.2184 29.5086 21.4431 29.3925 21.6799 29.4036C21.9167 29.4146 22.1296 29.5511 22.2384 29.7617L23.606 32.4107L27.2053 25.9802C27.3882 25.6611 27.7951 25.5507 28.1142 25.7335C28.4334 25.9164 28.5438 26.3234 28.3609 26.6425L24.1589 34.1458C24.0385 34.349 23.819 34.4726 23.5828 34.4703Z" fill="white"/>
<path d="M28.9205 44.7318H19.4967C17.4851 44.7318 15.8543 46.3626 15.8543 48.3742V57.798C15.8543 59.8097 17.4851 61.4404 19.4967 61.4404H28.9205C30.9322 61.4404 32.5629 59.8097 32.5629 57.798V48.3742C32.5629 46.3626 30.9322 44.7318 28.9205 44.7318Z" fill="#8AB99E"/>
<path d="M28.9205 44.7318H19.4967C17.4851 44.7318 15.8543 46.3626 15.8543 48.3742V57.798C15.8543 59.8097 17.4851 61.4404 19.4967 61.4404H28.9205C30.9322 61.4404 32.5629 59.8097 32.5629 57.798V48.3742C32.5629 46.3626 30.9322 44.7318 28.9205 44.7318Z" fill="white" fill-opacity="0.09"/>
<path d="M28.9206 62.0994H19.4967C17.1193 62.0994 15.1921 60.1721 15.1921 57.7947V48.3742C15.1921 45.9968 17.1193 44.0696 19.4967 44.0696H28.9206C31.2979 44.0696 33.2252 45.9968 33.2252 48.3742V57.7947C33.2252 60.1721 31.2979 62.0994 28.9206 62.0994ZM19.4967 45.3941C17.8508 45.3941 16.5166 46.7283 16.5166 48.3742V57.7947C16.5166 59.4406 17.8508 60.7749 19.4967 60.7749H28.9206C30.5664 60.7749 31.9007 59.4406 31.9007 57.7947V48.3742C31.9007 46.7283 30.5664 45.3941 28.9206 45.3941H19.4967Z" fill="#372168"/>
<path d="M23.5828 57.5C23.3389 57.495 23.1176 57.3563 23.0066 57.1391L21.0729 53.3907C20.9046 53.0652 21.0321 52.6649 21.3576 52.4967C21.6832 52.3284 22.0834 52.4559 22.2517 52.7814L23.6192 55.4305L27.2186 49C27.4014 48.6809 27.8084 48.5704 28.1275 48.7533C28.4466 48.9362 28.5571 49.3431 28.3742 49.6622L24.1722 57.1656C24.052 57.3767 23.8257 57.5051 23.5828 57.5Z" fill="white"/>
<path d="M28.9205 67.7583H19.4967C17.4851 67.7583 15.8543 69.3891 15.8543 71.4007V80.8245C15.8543 82.8361 17.4851 84.4669 19.4967 84.4669H28.9205C30.9322 84.4669 32.5629 82.8361 32.5629 80.8245V71.4007C32.5629 69.3891 30.9322 67.7583 28.9205 67.7583Z" fill="#8AB99E"/>
<path d="M28.9205 67.7583H19.4967C17.4851 67.7583 15.8543 69.3891 15.8543 71.4007V80.8245C15.8543 82.8361 17.4851 84.4669 19.4967 84.4669H28.9205C30.9322 84.4669 32.5629 82.8361 32.5629 80.8245V71.4007C32.5629 69.3891 30.9322 67.7583 28.9205 67.7583Z" fill="white" fill-opacity="0.09"/>
<path d="M28.9206 85.1259H19.4967C17.1193 85.1259 15.1921 83.1986 15.1921 80.8212V71.4007C15.1921 69.0233 17.1193 67.0961 19.4967 67.0961H28.9206C31.2979 67.0961 33.2252 69.0233 33.2252 71.4007V80.8212C33.2252 81.9629 32.7717 83.0578 31.9644 83.8651C31.1571 84.6724 30.0622 85.1259 28.9206 85.1259ZM19.4967 68.4206C17.8508 68.4206 16.5166 69.7548 16.5166 71.4007V80.8212C16.5166 82.4671 17.8508 83.8014 19.4967 83.8014H28.9206C30.5664 83.8014 31.9007 82.4671 31.9007 80.8212V71.4007C31.9007 69.7548 30.5664 68.4206 28.9206 68.4206H19.4967Z" fill="#372168"/>
<path d="M23.5828 80.5266C23.3397 80.5222 23.1185 80.3849 23.0066 80.169L21.0729 76.4173C20.9055 76.0918 21.0338 75.6923 21.3593 75.5249C21.6848 75.3576 22.0843 75.4858 22.2517 75.8113L23.6192 78.4604L27.2186 72.0332C27.4014 71.7141 27.8084 71.6036 28.1275 71.7865C28.4466 71.9694 28.5571 72.3763 28.3742 72.6954L24.1722 80.2021C24.0494 80.4094 23.8237 80.5337 23.5828 80.5266Z" fill="white"/>
<path d="M95.5033 72.4041L88 80.063L90.1259 82.1425C91.494 83.4828 93.4733 83.9914 95.3181 83.4768C97.1629 82.9621 98.5931 81.5023 99.0698 79.6473C99.5464 77.7923 98.9973 75.8239 97.6292 74.4835L95.5033 72.4041Z" fill="white"/>
<path d="M93.8775 84.169C92.3465 84.1776 90.8737 83.5828 89.7782 82.5133L87.298 80.0895L95.4967 71.7186L97.9768 74.1458C99.668 75.804 100.194 78.3175 99.3099 80.5148C98.4258 82.7121 96.3054 84.1607 93.9371 84.1855L93.8775 84.169ZM88.7053 80.0564L90.4735 81.7882C92.3937 83.6681 95.4743 83.6355 97.3543 81.7153C99.2343 79.7951 99.2017 76.7145 97.2815 74.8345L95.5133 73.1027L88.7053 80.0564Z" fill="#372168"/>
<path d="M94.7289 71.5931L87.2273 79.2535L88.008 80.0181L95.5096 72.3576L94.7289 71.5931Z" fill="white"/>
<path d="M88.0066 80.7683L86.5199 79.3047L94.7153 70.9371L96.2086 72.3974L88.0066 80.7683ZM87.9239 79.2915L87.9934 79.361L94.8013 72.4073L94.7318 72.3378L87.9239 79.2915Z" fill="#372168"/>
<path d="M85.6292 77.7484L54.6523 47.3974C54.6233 47.3667 54.6233 47.3188 54.6523 47.2881L62.053 39.7351C62.0673 39.7204 62.0871 39.712 62.1076 39.712C62.1282 39.712 62.1479 39.7204 62.1623 39.7351L93.1391 70.0828" fill="#FFCB6D"/>
<path d="M85.6292 77.7484L54.6523 47.3974C54.6233 47.3667 54.6233 47.3188 54.6523 47.2881L62.053 39.7351C62.0673 39.7204 62.0871 39.712 62.1076 39.712C62.1282 39.712 62.1479 39.7204 62.1623 39.7351L93.1391 70.0828" fill="white" fill-opacity="0.05"/>
<path d="M85.6292 78.2451C85.5051 78.2395 85.3874 78.1889 85.298 78.1027L54.3212 47.7517C54.2085 47.6395 54.1457 47.4869 54.1457 47.3279C54.1478 47.1777 54.2098 47.0347 54.3179 46.9305L61.7086 39.3875C61.8135 39.2803 61.9561 39.2185 62.106 39.2151C62.2647 39.2115 62.4176 39.2753 62.5265 39.3908L93.4967 69.7318C93.6239 69.856 93.6751 70.0387 93.6311 70.2109C93.5871 70.3831 93.4546 70.5188 93.2834 70.5669C93.1123 70.6149 92.9285 70.568 92.8013 70.4437L62.1192 40.3841L55.3113 47.3378L85.9901 77.3941C86.131 77.5341 86.1757 77.7443 86.1039 77.9295C86.0321 78.1148 85.8575 78.2399 85.659 78.2484L85.6292 78.2451Z" fill="#372168"/>
<path d="M62.0265 39.6424L56.2086 37.6556L52.457 41.4835L54.5729 47.2616C54.5798 47.2777 54.5943 47.2894 54.6115 47.2927C54.6288 47.296 54.6465 47.2906 54.659 47.2782L62.0464 39.7351C62.0653 39.7244 62.0751 39.7027 62.0705 39.6814C62.066 39.6602 62.0481 39.6444 62.0265 39.6424Z" fill="white"/>
<path d="M54.6225 47.7948C54.5841 47.7997 54.5451 47.7997 54.5066 47.7948C54.3258 47.7591 54.1751 47.6345 54.106 47.4636L51.8841 41.3941L56.0729 37.116L62.1888 39.2153C62.3658 39.2769 62.4993 39.4244 62.5429 39.6067C62.5864 39.7891 62.5341 39.981 62.404 40.116L55.0133 47.659C54.9055 47.7531 54.7654 47.8018 54.6225 47.7948ZM53.0166 41.6093L54.7848 46.4305L61.1854 39.8974L56.3311 38.2418L53.0166 41.6093Z" fill="#372168"/>
<path d="M56.2086 37.6557L51.0331 35.8775C50.901 35.8315 50.7543 35.8659 50.6564 35.9659C50.5586 36.0659 50.5273 36.2134 50.5762 36.3444L52.457 41.4835L56.2086 37.6557Z" fill="#FF6666"/>
<path d="M56.2086 37.6557L51.0331 35.8775C50.901 35.8315 50.7543 35.8659 50.6564 35.9659C50.5586 36.0659 50.5273 36.2134 50.5762 36.3444L52.457 41.4835L56.2086 37.6557Z" fill="white" fill-opacity="0.09"/>
<path d="M52.2616 42.3974L50.1093 36.5199C49.9961 36.2087 50.0716 35.8601 50.3033 35.6235C50.5349 35.3869 50.8818 35.3041 51.1954 35.4107L57.1126 37.4438L52.2616 42.3974ZM51.1391 36.4371L52.6523 40.5696L55.3013 37.8643L51.1391 36.4371Z" fill="#372168"/>
<path d="M93.1424 70.0895L85.6391 77.7484L87.1656 79.2418L87.2219 79.3014L88.0033 80.0663L95.5066 72.4074L94.7252 71.6425L94.6656 71.5829L93.1424 70.0895Z" fill="#FF6666"/>
<path d="M93.1424 70.0895L85.6391 77.7484L87.1656 79.2418L87.2219 79.3014L88.0033 80.0663L95.5066 72.4074L94.7252 71.6425L94.6656 71.5829L93.1424 70.0895Z" fill="white" fill-opacity="0.16"/>
<path d="M88.0066 80.7683L84.9338 77.755L93.1325 69.3842L96.2086 72.3974L88.0066 80.7683ZM86.351 77.7385L88.0066 79.361L94.8146 72.4073L93.1589 70.7881L86.351 77.7385Z" fill="#372168"/>
<path d="M95.0232 81.5861C94.9537 81.5861 94.8808 81.5861 94.8113 81.5861C94.693 81.5755 94.5893 81.5025 94.5394 81.3948C94.4895 81.287 94.5008 81.1608 94.5692 81.0636C94.6376 80.9665 94.7526 80.9132 94.8709 80.9239C95.3199 80.9671 95.7661 80.8176 96.0983 80.5125C96.4305 80.2074 96.6175 79.7756 96.6126 79.3245C96.6126 79.1417 96.7608 78.9934 96.9437 78.9934C97.1266 78.9934 97.2748 79.1417 97.2748 79.3245C97.2819 79.926 97.0477 80.5052 96.6246 80.9327C96.2015 81.3602 95.6247 81.6003 95.0232 81.5994V81.5861Z" fill="#372168"/>
<path d="M83.4338 70.659C83.3474 70.6595 83.2642 70.6262 83.202 70.5663L57.0861 44.9802C56.9554 44.8522 56.9531 44.6424 57.0811 44.5116C57.2092 44.3809 57.4189 44.3787 57.5497 44.5067L83.6656 70.0928C83.7283 70.1549 83.7635 70.2396 83.7635 70.3279C83.7635 70.4162 83.7283 70.5008 83.6656 70.563C83.6039 70.6242 83.5206 70.6586 83.4338 70.659Z" fill="#372168"/>
<path d="M88.2119 75.3411C88.1251 75.3407 88.0418 75.3063 87.9801 75.2451L85.0662 72.3908C84.9527 72.2602 84.9589 72.0643 85.0803 71.9411C85.2018 71.8179 85.3976 71.8089 85.5298 71.9206L88.4437 74.7749C88.5721 74.904 88.5721 75.1126 88.4437 75.2418C88.3826 75.3042 88.2993 75.3399 88.2119 75.3411Z" fill="#372168"/>
<path d="M88.3875 70.4537C88.3006 70.4533 88.2173 70.4188 88.1557 70.3576L62.8245 45.5232C62.6961 45.3941 62.6961 45.1855 62.8245 45.0563C62.8867 44.9936 62.9713 44.9584 63.0596 44.9584C63.1479 44.9584 63.2326 44.9936 63.2947 45.0563L88.6259 69.8742C88.6885 69.9364 88.7238 70.021 88.7238 70.1093C88.7238 70.1976 88.6885 70.2822 88.6259 70.3444C88.5648 70.4121 88.4786 70.4516 88.3875 70.4537Z" fill="#372168"/>
<path d="M58.5696 34.3908C58.4456 34.3911 58.3319 34.3221 58.2749 34.212C58.1899 34.0502 58.2521 33.8501 58.4139 33.765L60.1821 32.8445C60.2878 32.7795 60.4208 32.779 60.5269 32.8432C60.633 32.9073 60.6944 33.0254 60.686 33.1491C60.6775 33.2728 60.6006 33.3814 60.4868 33.4306L58.7219 34.3511C58.675 34.3764 58.6228 34.39 58.5696 34.3908Z" fill="#372168"/>
<path d="M56.5828 33.0663C56.5208 33.0665 56.46 33.0493 56.4073 33.0166C56.2536 32.92 56.2063 32.7177 56.3013 32.563L57.4934 30.6557C57.5561 30.5551 57.6677 30.4957 57.7861 30.4997C57.9045 30.5037 58.0118 30.5706 58.0675 30.6752C58.1233 30.7798 58.119 30.9061 58.0563 31.0067L56.8642 32.9107C56.8036 33.0077 56.6972 33.0665 56.5828 33.0663Z" fill="#372168"/>
<path d="M54.3808 32.096C54.198 32.096 54.0497 31.9478 54.0497 31.7649L53.9702 29.6358C53.9638 29.4529 54.1069 29.2995 54.2898 29.2931C54.4726 29.2867 54.6261 29.4297 54.6325 29.6126L54.7119 31.7417C54.7119 31.9246 54.5637 32.0729 54.3808 32.0729V32.096Z" fill="#372168"/>
</g>
<defs>
<clipPath id="clip0">
<rect width="100" height="104.636" fill="white"/>
</clipPath>
</defs>
</svg>
