<svg width="36" height="36" viewBox="0 0 36 36" fill="none" xmlns="http://www.w3.org/2000/svg">
<path d="M35.8352 30.2676L25.9824 20.4148C25.877 20.3093 25.7339 20.25 25.5848 20.25H20.8125C20.6633 20.25 20.5202 20.3093 20.4148 20.4148C20.3093 20.5202 20.25 20.6633 20.25 20.8125V25.5848C20.25 25.7339 20.3093 25.877 20.4148 25.9824L30.267 35.8352C30.3725 35.9406 30.5155 35.9999 30.6647 35.9999C30.8138 35.9999 30.9569 35.9406 31.0624 35.8352L35.8352 31.0629C35.9406 30.9575 35.9999 30.8144 35.9999 30.6652C35.9999 30.5161 35.9406 30.373 35.8352 30.2676ZM23.1986 23.7611C23.0874 23.7611 22.9786 23.7281 22.8861 23.6663C22.7936 23.6045 22.7215 23.5167 22.6789 23.4139C22.6364 23.3111 22.6252 23.198 22.6469 23.0889C22.6686 22.9798 22.7222 22.8795 22.8009 22.8009C22.8795 22.7222 22.9798 22.6686 23.0889 22.6469C23.198 22.6252 23.3111 22.6364 23.4139 22.6789C23.5167 22.7215 23.6045 22.7936 23.6663 22.8861C23.7281 22.9786 23.7611 23.0874 23.7611 23.1986C23.7611 23.3478 23.7019 23.4909 23.5964 23.5964C23.4909 23.7019 23.3478 23.7611 23.1986 23.7611Z" fill="#C4A2FC"/>
<path d="M30.8198 29.4322L28.0579 9.18222C27.9639 8.50914 27.6303 7.89255 27.1183 7.44565C26.6063 6.99875 25.9503 6.75154 25.2707 6.7494H23.0207C22.7992 4.89036 21.9037 3.17707 20.5038 1.93401C19.1038 0.690937 17.2966 0.00439453 15.4244 0.00439453C13.5522 0.00439453 11.7451 0.690937 10.3451 1.93401C8.94514 3.17707 8.04963 4.89036 7.82815 6.7494H5.57815C4.89859 6.75144 4.24258 6.99863 3.73065 7.44556C3.21872 7.89249 2.88526 8.50914 2.79153 9.18222L0.0296536 29.4322C-0.0244917 29.8296 0.00698482 30.234 0.121971 30.6182C0.236957 31.0025 0.432794 31.3577 0.69634 31.66C0.959886 31.9623 1.28505 32.2048 1.65 32.3711C2.01496 32.5375 2.41127 32.6238 2.81234 32.6244H28.0326C28.434 32.6245 28.8309 32.5386 29.1964 32.3725C29.5619 32.2065 29.8876 31.9641 30.1516 31.6617C30.4157 31.3593 30.6119 31.0039 30.7271 30.6193C30.8424 30.2348 30.874 29.83 30.8198 29.4322ZM23.64 15.7494C23.64 15.9719 23.574 16.1894 23.4504 16.3744C23.3268 16.5594 23.1511 16.7036 22.9455 16.7888C22.74 16.8739 22.5138 16.8962 22.2956 16.8528C22.0773 16.8094 21.8769 16.7022 21.7195 16.5449C21.5622 16.3876 21.4551 16.1871 21.4116 15.9689C21.3682 15.7507 21.3905 15.5245 21.4757 15.3189C21.5608 15.1133 21.705 14.9376 21.89 14.814C22.075 14.6904 22.2925 14.6244 22.515 14.6244C22.8134 14.6244 23.0995 14.7429 23.3105 14.9539C23.5215 15.1649 23.64 15.451 23.64 15.7494ZM15.423 1.1244C16.9964 1.12727 18.5158 1.6978 19.7023 2.73117C20.8887 3.76454 21.6623 5.19134 21.8811 6.7494H8.96328C9.18208 5.19105 9.95599 3.76403 11.1428 2.73062C12.3295 1.69721 13.8494 1.12686 15.423 1.1244ZM8.33047 14.6244C8.55297 14.6244 8.77048 14.6904 8.95548 14.814C9.14049 14.9376 9.28468 15.1133 9.36983 15.3189C9.45498 15.5245 9.47726 15.7507 9.43385 15.9689C9.39044 16.1871 9.28329 16.3876 9.12596 16.5449C8.96863 16.7022 8.76817 16.8094 8.54994 16.8528C8.33171 16.8962 8.10551 16.8739 7.89995 16.7888C7.69438 16.7036 7.51868 16.5594 7.39506 16.3744C7.27145 16.1894 7.20547 15.9719 7.20547 15.7494C7.20547 15.451 7.32399 15.1649 7.53497 14.9539C7.74595 14.7429 8.0321 14.6244 8.33047 14.6244ZM28.0326 31.4994H2.81234C2.57184 31.4992 2.33415 31.4476 2.1152 31.3481C1.89626 31.2486 1.70113 31.1034 1.54287 30.9223C1.38462 30.7412 1.26691 30.5283 1.19762 30.298C1.12834 30.0677 1.10909 29.8253 1.14115 29.5869L1.18672 29.2494H13.7355C13.8847 29.2494 14.0278 29.1901 14.1333 29.0847C14.2388 28.9792 14.298 28.8361 14.298 28.6869C14.298 28.5377 14.2388 28.3946 14.1333 28.2892C14.0278 28.1837 13.8847 28.1244 13.7355 28.1244H1.34028L1.64684 25.8744H13.7355C13.8847 25.8744 14.0278 25.8151 14.1333 25.7097C14.2388 25.6042 14.298 25.4611 14.298 25.3119C14.298 25.1627 14.2388 25.0196 14.1333 24.9142C14.0278 24.8087 13.8847 24.7494 13.7355 24.7494H1.79984L3.90247 9.3369C3.95806 8.93257 4.15783 8.56193 4.465 8.29321C4.77218 8.02448 5.16609 7.87575 5.57422 7.8744H7.76797V13.5793C7.23772 13.7162 6.77561 14.0418 6.46825 14.495C6.1609 14.9483 6.02939 15.4981 6.0984 16.0413C6.1674 16.5846 6.43218 17.0841 6.84309 17.4461C7.25399 17.8081 7.78283 18.0078 8.33047 18.0078C8.8781 18.0078 9.40694 17.8081 9.81785 17.4461C10.2288 17.0841 10.4935 16.5846 10.5625 16.0413C10.6315 15.4981 10.5 14.9483 10.1927 14.495C9.88532 14.0418 9.42321 13.7162 8.89297 13.5793V7.8744H21.9525V13.5793C21.4223 13.7162 20.9602 14.0418 20.6528 14.495C20.3455 14.9483 20.214 15.4981 20.283 16.0413C20.352 16.5846 20.6167 17.0841 21.0276 17.4461C21.4386 17.8081 21.9674 18.0078 22.515 18.0078C23.0627 18.0078 23.5915 17.8081 24.0024 17.4461C24.4133 17.0841 24.6781 16.5846 24.7471 16.0413C24.8161 15.4981 24.6846 14.9483 24.3772 14.495C24.0699 14.0418 23.6078 13.7162 23.0775 13.5793V7.8744H25.2713C25.6795 7.87573 26.0735 8.02444 26.3807 8.29316C26.688 8.56188 26.8879 8.93253 26.9436 9.3369L29.0451 24.7494H17.1105C16.9613 24.7494 16.8183 24.8087 16.7128 24.9142C16.6073 25.0196 16.548 25.1627 16.548 25.3119C16.548 25.4611 16.6073 25.6042 16.7128 25.7097C16.8183 25.8151 16.9613 25.8744 17.1105 25.8744H29.1987L29.5052 28.1244H17.1105C16.9613 28.1244 16.8183 28.1837 16.7128 28.2892C16.6073 28.3946 16.548 28.5377 16.548 28.6869C16.548 28.8361 16.6073 28.9792 16.7128 29.0847C16.8183 29.1901 16.9613 29.2494 17.1105 29.2494H29.6588L29.7043 29.5841C29.7369 29.8227 29.7179 30.0655 29.6488 30.2962C29.5797 30.5269 29.462 30.7401 29.3036 30.9216C29.1453 31.103 28.9499 31.2484 28.7307 31.3481C28.5114 31.4478 28.2734 31.4994 28.0326 31.4994Z" fill="#151A6A"/>
</svg>
