<svg width="64" height="64" viewBox="0 0 64 64" fill="none" xmlns="http://www.w3.org/2000/svg">
<g clip-path="url(#clip0)">
<path d="M0.549676 58.1222C-0.182574 57.39 -0.182574 56.2036 0.549676 55.4714L12.0874 43.9855C12.8197 43.2532 14.0061 43.2532 14.7383 43.9855C15.4706 44.7177 15.4706 45.9041 14.7383 46.6364L3.20055 58.1222C2.46818 58.8545 1.28193 58.8545 0.549676 58.1222Z" fill="#B8BFCC"/>
<path d="M0.549676 47.5188C-0.182574 46.7865 -0.182574 45.6001 0.549676 44.8679L6.78568 38.6819C7.51793 37.9496 8.7043 37.9496 9.43655 38.6819C10.1688 39.4141 10.1688 40.6005 9.43655 41.3328L3.20055 47.5188C2.46818 48.2511 1.28193 48.2511 0.549676 47.5188Z" fill="#B8BFCC"/>
<path d="M5.85339 63.4256C5.12114 62.6934 5.12114 61.507 5.85339 60.7748L17.3893 49.287C18.1215 48.5548 19.3079 48.5548 20.0401 49.287C20.7724 50.0193 20.7724 51.2056 20.0401 51.9379L8.50426 63.4256C7.77189 64.158 6.58576 64.158 5.85339 63.4256Z" fill="#B8BFCC"/>
<path d="M16.4569 63.4256C15.7247 62.6934 15.7247 61.507 16.4569 60.7747L22.6929 54.5887C23.4252 53.8565 24.6115 53.8565 25.3438 54.5887C26.076 55.321 26.076 56.5074 25.3438 57.2396L19.1078 63.4256C18.3754 64.158 17.189 64.158 16.4569 63.4256Z" fill="#B8BFCC"/>
<path d="M29.9942 53.27C29.2252 52.9784 28.5093 52.5806 27.8997 51.971L11.9931 36.0641C11.3833 35.4544 10.9857 34.7385 10.6941 33.9696L11.5956 31.3186L33.759 28.6675L33.5468 30.4171L31.1076 50.6188L29.9942 53.27Z" fill="#D2DAE9"/>
<path d="M63.6636 19.6131L61.0124 20.7265L44.3634 23.3654L40.5986 19.6131L40.6251 5.62912L44.3368 0.326874C45.1321 0.592124 45.848 0.989874 46.4576 1.5995L62.3644 17.5062C62.9741 18.1159 63.3719 18.8442 63.6636 19.6131Z" fill="#C7CEDD"/>
<path d="M63.6706 19.6199C55.1277 19.6197 49.6956 19.6199 40.6062 19.6199L30.0013 30.2125C30.0013 32.6691 30.0012 29.2247 30.0012 53.2767C32.2265 54.0651 34.4693 53.3552 35.8521 51.9702L62.3642 25.46C63.7481 24.0761 64.463 21.8562 63.6706 19.6199Z" fill="#DAE2F2"/>
<path d="M35.8521 51.9702L49.1084 38.7146L35.3039 24.9101L30.0015 30.2125C30.0015 32.669 30.0012 29.2246 30.0012 53.2767C32.2265 54.065 34.4692 53.3551 35.8521 51.9702Z" fill="#E6EEFF"/>
<path d="M38.7422 33.9698C35.7199 33.9698 32.8566 33.9696 29.9936 33.9696H10.6931C9.89769 31.7425 10.5871 29.5158 11.9921 28.1108L38.5034 1.5995C39.8821 0.220873 42.2416 -0.388877 44.3359 0.326873V19.6398C44.3624 22.6886 44.3359 21.377 44.3624 28.3495C44.3624 31.4245 41.8173 33.9696 38.7422 33.9698Z" fill="#A680FF"/>
<path d="M38.743 33.9696C40.2809 33.9696 41.6856 33.3335 42.7065 32.3126L25.2486 14.8549L11.9931 28.1109C10.588 29.5158 9.89874 31.7428 10.694 33.9699H29.9944C32.8575 33.9697 35.7206 33.9696 38.743 33.9696Z" fill="#B999FF"/>
</g>
<defs>
<clipPath id="clip0">
<rect width="64" height="64" fill="white"/>
</clipPath>
</defs>
</svg>
