<svg width="140" height="140" viewBox="0 0 140 140" fill="none" xmlns="http://www.w3.org/2000/svg">
<path d="M63 112.113H73.1614V61.9838L63 58.5967V112.113Z" fill="black"/>
<path d="M92.8066 39.8548C92.6937 46.6291 90.5485 50.1291 86.0323 50.1291C81.4033 50.1291 76.6614 47.6452 70.3386 44.5967C61.7581 40.5324 57.6937 39.4033 52.3871 39.4033C43.6937 39.4033 36.9194 46.6291 37.3709 59.0485H44.9356C45.0485 51.1452 47.8709 47.6452 52.3871 47.6452C56.9033 47.6452 61.6452 50.0162 67.5161 52.9518C76.2096 56.9033 80.7257 58.7099 85.8066 58.7099C93.5967 58.7099 100.823 54.5324 100.258 39.8548H92.8066Z" fill="black"/>
<path fill-rule="evenodd" clip-rule="evenodd" d="M0 69.8871C0 31.3871 31.3871 0 69.8871 0C108.5 0 139.774 31.3871 139.774 69.8871C139.774 108.387 108.387 139.774 69.8871 139.774C31.3871 139.774 0 108.387 0 69.8871ZM4.51614 69.8871C4.51614 106.016 33.871 135.258 69.8871 135.258C105.903 135.258 135.258 105.903 135.258 69.8871C135.258 33.871 105.903 4.51614 69.8871 4.51614C33.871 4.51614 4.51614 33.7581 4.51614 69.8871Z" fill="black"/>
</svg>
