<svg width="100" height="100" viewBox="0 0 100 100" fill="none" xmlns="http://www.w3.org/2000/svg">
<path d="M78.0819 34.2903H21.34V28.3401H78.0819V34.2903V34.2903ZM78.0819 46.8804H21.34V52.8306H78.0819V46.8804V46.8804ZM78.0819 65.4207H21.34V71.3709H78.0819V65.4207V65.4207ZM100 50C100 40.1109 97.0675 30.444 91.5735 22.2215C86.0794 13.999 78.2705 7.59043 69.1342 3.80604C59.9979 0.0216642 49.9445 -0.968502 40.2455 0.960758C30.5464 2.89002 21.6373 7.65206 14.6447 14.6447C7.65206 21.6373 2.89002 30.5464 0.960758 40.2455C-0.968502 49.9445 0.0216642 59.9979 3.80604 69.1342C7.59043 78.2705 13.999 86.0794 22.2215 91.5735C30.444 97.0675 40.1109 100 50 100C63.2562 99.9849 75.9652 94.7123 85.3387 85.3387C94.7123 75.9652 99.9849 63.2562 100 50ZM95.3758 50C95.3758 58.9745 92.7146 67.7475 87.7286 75.2095C82.7427 82.6715 75.6559 88.4874 67.3646 91.9218C59.0732 95.3562 49.9496 96.2548 41.1476 94.504C32.3455 92.7531 24.2603 88.4315 17.9144 82.0856C11.5685 75.7396 7.24686 67.6544 5.49602 58.8524C3.74519 50.0503 4.64379 40.9268 8.07818 32.6354C11.5126 24.3441 17.3285 17.2573 24.7905 12.2714C32.2526 7.2854 41.0255 4.62416 50 4.62417C62.0302 4.63786 73.5638 9.42291 82.0704 17.9296C90.5771 26.4362 95.3622 37.9698 95.3758 50H95.3758Z" fill="#529ADA"/>
</svg>
