<svg width="94" height="24" viewBox="0 0 94 24" fill="none" xmlns="http://www.w3.org/2000/svg">
<path d="M2.1 5H8C9.48 5 10.7933 5.29333 11.94 5.88C13.0867 6.46667 13.9733 7.29333 14.6 8.36C15.24 9.41333 15.56 10.6267 15.56 12C15.56 13.3733 15.24 14.5933 14.6 15.66C13.9733 16.7133 13.0867 17.5333 11.94 18.12C10.7933 18.7067 9.48 19 8 19H2.1V5ZM7.88 17.26C9.01333 17.26 10.0067 17.04 10.86 16.6C11.7267 16.16 12.3933 15.5467 12.86 14.76C13.3267 13.96 13.56 13.04 13.56 12C13.56 10.96 13.3267 10.0467 12.86 9.26C12.3933 8.46 11.7267 7.84 10.86 7.4C10.0067 6.96 9.01333 6.74 7.88 6.74H4.1V17.26H7.88ZM22.8834 19.12C21.8301 19.12 20.8834 18.8867 20.0434 18.42C19.2034 17.9533 18.5434 17.3133 18.0634 16.5C17.5968 15.6733 17.3634 14.74 17.3634 13.7C17.3634 12.66 17.5968 11.7333 18.0634 10.92C18.5434 10.0933 19.2034 9.45333 20.0434 9C20.8834 8.53333 21.8301 8.3 22.8834 8.3C23.9368 8.3 24.8768 8.53333 25.7034 9C26.5434 9.45333 27.1968 10.0933 27.6634 10.92C28.1434 11.7333 28.3834 12.66 28.3834 13.7C28.3834 14.74 28.1434 15.6733 27.6634 16.5C27.1968 17.3133 26.5434 17.9533 25.7034 18.42C24.8768 18.8867 23.9368 19.12 22.8834 19.12ZM22.8834 17.44C23.5634 17.44 24.1701 17.2867 24.7034 16.98C25.2501 16.66 25.6768 16.22 25.9834 15.66C26.2901 15.0867 26.4434 14.4333 26.4434 13.7C26.4434 12.9667 26.2901 12.32 25.9834 11.76C25.6768 11.1867 25.2501 10.7467 24.7034 10.44C24.1701 10.1333 23.5634 9.98 22.8834 9.98C22.2034 9.98 21.5901 10.1333 21.0434 10.44C20.5101 10.7467 20.0834 11.1867 19.7634 11.76C19.4568 12.32 19.3034 12.9667 19.3034 13.7C19.3034 14.4333 19.4568 15.0867 19.7634 15.66C20.0834 16.22 20.5101 16.66 21.0434 16.98C21.5901 17.2867 22.2034 17.44 22.8834 17.44ZM35.6588 19.12C34.5788 19.12 33.6121 18.8867 32.7588 18.42C31.9188 17.9533 31.2588 17.3133 30.7788 16.5C30.2988 15.6733 30.0588 14.74 30.0588 13.7C30.0588 12.66 30.2988 11.7333 30.7788 10.92C31.2588 10.0933 31.9188 9.45333 32.7588 9C33.6121 8.53333 34.5788 8.3 35.6588 8.3C36.6188 8.3 37.4721 8.49333 38.2188 8.88C38.9788 9.26667 39.5654 9.82667 39.9788 10.56L38.5188 11.5C38.1854 10.9933 37.7721 10.6133 37.2788 10.36C36.7854 10.1067 36.2388 9.98 35.6388 9.98C34.9454 9.98 34.3188 10.1333 33.7588 10.44C33.2121 10.7467 32.7788 11.1867 32.4588 11.76C32.1521 12.32 31.9988 12.9667 31.9988 13.7C31.9988 14.4467 32.1521 15.1067 32.4588 15.68C32.7788 16.24 33.2121 16.6733 33.7588 16.98C34.3188 17.2867 34.9454 17.44 35.6388 17.44C36.2388 17.44 36.7854 17.3133 37.2788 17.06C37.7721 16.8067 38.1854 16.4267 38.5188 15.92L39.9788 16.84C39.5654 17.5733 38.9788 18.14 38.2188 18.54C37.4721 18.9267 36.6188 19.12 35.6588 19.12ZM48.5613 18.38C48.2813 18.62 47.9346 18.8067 47.5213 18.94C47.1079 19.06 46.6813 19.12 46.2413 19.12C45.1746 19.12 44.3479 18.8333 43.7613 18.26C43.1746 17.6867 42.8813 16.8667 42.8813 15.8V9.98H41.0813V8.4H42.8813V6.08H44.8013V8.4H47.8413V9.98H44.8013V15.72C44.8013 16.2933 44.9413 16.7333 45.2213 17.04C45.5146 17.3467 45.9279 17.5 46.4613 17.5C47.0479 17.5 47.5479 17.3333 47.9613 17L48.5613 18.38ZM52.7225 10.18C53.0558 9.56667 53.5492 9.1 54.2025 8.78C54.8558 8.46 55.6492 8.3 56.5825 8.3V10.16C56.4758 10.1467 56.3292 10.14 56.1425 10.14C55.1025 10.14 54.2825 10.4533 53.6825 11.08C53.0958 11.6933 52.8025 12.5733 52.8025 13.72V19H50.8825V8.4H52.7225V10.18ZM58.9489 8.4H60.8689V19H58.9489V8.4ZM59.9089 6.36C59.5356 6.36 59.2222 6.24 58.9689 6C58.7289 5.76 58.6089 5.46667 58.6089 5.12C58.6089 4.77333 58.7289 4.48 58.9689 4.24C59.2222 3.98667 59.5356 3.86 59.9089 3.86C60.2822 3.86 60.5889 3.98 60.8289 4.22C61.0822 4.44667 61.2089 4.73333 61.2089 5.08C61.2089 5.44 61.0822 5.74667 60.8289 6C60.5889 6.24 60.2822 6.36 59.9089 6.36ZM70.1948 8.3C71.5415 8.3 72.6082 8.69333 73.3948 9.48C74.1948 10.2533 74.5948 11.3933 74.5948 12.9V19H72.6748V13.12C72.6748 12.0933 72.4282 11.32 71.9348 10.8C71.4415 10.28 70.7348 10.02 69.8148 10.02C68.7748 10.02 67.9548 10.3267 67.3548 10.94C66.7548 11.54 66.4548 12.4067 66.4548 13.54V19H64.5348V8.4H66.3748V10C66.7615 9.45333 67.2815 9.03333 67.9348 8.74C68.6015 8.44667 69.3548 8.3 70.1948 8.3ZM87.7867 13.76C87.7867 13.9067 87.7734 14.1 87.7467 14.34H79.1467C79.2667 15.2733 79.6734 16.0267 80.3667 16.6C81.0734 17.16 81.9467 17.44 82.9867 17.44C84.2534 17.44 85.2734 17.0133 86.0467 16.16L87.1067 17.4C86.6267 17.96 86.0267 18.3867 85.3067 18.68C84.6001 18.9733 83.8067 19.12 82.9267 19.12C81.8067 19.12 80.8134 18.8933 79.9467 18.44C79.0801 17.9733 78.4067 17.3267 77.9267 16.5C77.4601 15.6733 77.2267 14.74 77.2267 13.7C77.2267 12.6733 77.4534 11.7467 77.9067 10.92C78.3734 10.0933 79.0067 9.45333 79.8067 9C80.6201 8.53333 81.5334 8.3 82.5467 8.3C83.5601 8.3 84.4601 8.53333 85.2467 9C86.0467 9.45333 86.6667 10.0933 87.1067 10.92C87.5601 11.7467 87.7867 12.6933 87.7867 13.76ZM82.5467 9.92C81.6267 9.92 80.8534 10.2 80.2267 10.76C79.6134 11.32 79.2534 12.0533 79.1467 12.96H85.9467C85.8401 12.0667 85.4734 11.34 84.8467 10.78C84.2334 10.2067 83.4667 9.92 82.5467 9.92Z" fill="#1A1A1A"/>
<path d="M90.9128 19.12C90.5395 19.12 90.2195 18.9933 89.9528 18.74C89.6861 18.4733 89.5528 18.14 89.5528 17.74C89.5528 17.3533 89.6861 17.0333 89.9528 16.78C90.2195 16.5133 90.5395 16.38 90.9128 16.38C91.2861 16.38 91.5995 16.5067 91.8528 16.76C92.1061 17.0133 92.2328 17.34 92.2328 17.74C92.2328 18.14 92.0995 18.4733 91.8328 18.74C91.5795 18.9933 91.2728 19.12 90.9128 19.12Z" fill="#7A76FF"/>
</svg>
