<?xml version="1.0" encoding="utf-8"?><svg viewBox="0 0 18 16" xmlns="http://www.w3.org/2000/svg" xmlns:xlink="http://www.w3.org/1999/xlink"><style>:root>svg{display:none}:root>svg:target{display:block}</style><svg viewBox="0 0 9 16" id="ic_facebook" xmlns="http://www.w3.org/2000/svg"><path d="M5.5 9.125h1.875l.75-3H5.5v-1.5c0-.772 0-1.5 1.5-1.5h1.125V.605A21.125 21.125 0 0 0 5.982.5C3.946.5 2.5 1.743 2.5 4.025v2.1H.25v3H2.5V15.5h3V9.125z"/></svg><svg viewBox="0 0 12 12" id="ic_instagram" xmlns="http://www.w3.org/2000/svg"><path fill-rule="evenodd" clip-rule="evenodd" d="M8.405.202C7.783.172 7.585.167 6 .167S4.217.174 3.596.202C2.974.23 2.55.328 2.179.472c-.39.147-.742.377-1.033.673A2.847 2.847 0 0 0 .473 2.18c-.145.372-.242.795-.271 1.416-.03.622-.035.82-.035 2.405s.007 1.783.035 2.404c.029.622.126 1.045.271 1.417.146.39.376.742.673 1.034.291.296.644.526 1.033.672.372.144.795.242 1.417.271.621.03.82.035 2.404.035 1.585 0 1.783-.007 2.405-.035.62-.029 1.044-.127 1.416-.271.39-.146.742-.376 1.034-.672a2.85 2.85 0 0 0 .672-1.034c.144-.372.242-.795.271-1.417.03-.621.035-.82.035-2.404 0-1.585-.007-1.783-.035-2.405-.029-.62-.127-1.044-.27-1.416a2.864 2.864 0 0 0-.673-1.034A2.845 2.845 0 0 0 9.82.473C9.449.328 9.026.23 8.405.202zM3.083 6a2.917 2.917 0 1 1 5.834 0 2.917 2.917 0 0 1-5.834 0zm6.709-3.063a.73.73 0 1 0-1.459 0 .73.73 0 0 0 1.459 0zM7.75 6a1.75 1.75 0 1 0-3.5 0 1.75 1.75 0 0 0 3.5 0z"/></svg><svg viewBox="0 0 18 11" id="ic_vkontakte" xmlns="http://www.w3.org/2000/svg"><path d="M17.838 9.192c-.048-.08-.347-.73-1.787-2.067-1.508-1.4-1.305-1.173.51-3.593C17.667 2.06 18.11 1.16 17.971.774c-.132-.367-.945-.27-.945-.27L14.322.52s-.2-.027-.35.062c-.146.087-.239.29-.239.29s-.428 1.14-1 2.11c-1.205 2.047-1.688 2.155-1.884 2.028-.458-.296-.344-1.19-.344-1.825 0-1.984.3-2.81-.586-3.024C9.625.09 9.41.043 8.656.035c-.965-.01-1.783.003-2.246.23-.308.15-.545.486-.4.506.179.023.584.109.799.401.278.377.268 1.225.268 1.225s.16 2.335-.373 2.625c-.365.2-.866-.207-1.94-2.064-.55-.951-.967-2.003-.967-2.003s-.08-.196-.223-.3C3.401.528 3.158.487 3.158.487L.586.503S.201.514.06.682c-.126.15-.01.458-.01.458s2.013 4.71 4.293 7.085c2.091 2.177 4.465 2.034 4.465 2.034h1.075s.325-.036.49-.215c.154-.164.148-.473.148-.473s-.021-1.443.65-1.656c.66-.209 1.508 1.395 2.407 2.013.68.467 1.196.365 1.196.365l2.404-.034s1.258-.078.661-1.067z"/></svg><svg viewBox="0 0 16 12" id="ic_youtube" xmlns="http://www.w3.org/2000/svg"><path fill-rule="evenodd" clip-rule="evenodd" d="M15.5 6s0-2.79-.343-4.127A2.108 2.108 0 0 0 13.704.357C12.422 0 8 0 8 0S3.58 0 2.296.357c-.705.197-1.263.778-1.453 1.516C.5 3.21.5 6 .5 6s0 2.79.343 4.127a2.108 2.108 0 0 0 1.453 1.516C3.58 12 8 12 8 12s4.422 0 5.704-.357c.705-.197 1.263-.778 1.453-1.517C15.5 8.79 15.5 6 15.5 6zM11 6L6.5 8.625v-5.25L11 6z"/></svg></svg>