<svg width="120" height="107" viewBox="0 0 120 107" fill="none" xmlns="http://www.w3.org/2000/svg">
<path d="M2.01043 45.8329L27.2604 14.7849C28.5018 13.2584 30.7456 13.0274 32.2721 14.2688L71.5713 46.2292C72.9196 47.3257 73.1237 49.3075 72.0272 50.6558L46.4897 82.0572C45.3933 83.4055 43.4114 83.6096 42.0632 82.5131L2.47919 50.3212C1.10997 49.2076 0.902692 47.195 2.01622 45.8257L2.01043 45.8329Z" fill="white"/>
<path fill-rule="evenodd" clip-rule="evenodd" d="M41.6637 83.0037C42.3303 83.5499 43.1657 83.8481 44.0275 83.8477C44.1559 83.8477 44.2813 83.8385 44.4219 83.8202C45.4135 83.7203 46.3241 83.2282 46.9508 82.4533L72.506 51.036C73.135 50.2627 73.431 49.2713 73.3289 48.2797C73.2269 47.2882 72.7351 46.3778 71.9617 45.7489L32.6611 13.7873C31.8017 13.089 30.7 12.7611 29.5987 12.8759C28.4974 12.9906 27.4869 13.5385 26.7899 14.3989L1.53128 45.4553C0.893705 46.2381 0.593469 47.2423 0.696712 48.2466C0.799954 49.2509 1.29821 50.173 2.08171 50.8097L41.6637 83.0037ZM29.7254 14.0809H30.0312C30.7075 14.0809 31.3631 14.3142 31.8874 14.7414L71.1972 46.706C72.2809 47.5892 72.445 49.183 71.5641 50.2685L46.012 81.6888C45.1268 82.7713 43.5335 82.9353 42.4464 82.0558L2.85223 49.8435C2.32069 49.4114 1.9827 48.7858 1.91273 48.1044C1.84275 47.423 2.04653 46.7417 2.47916 46.2106L27.7377 15.1542C28.2299 14.5448 28.9459 14.1582 29.7254 14.0809Z" fill="#372168"/>
<path d="M28.4099 31.3521C28.2873 31.3527 28.1683 31.3105 28.0735 31.2328C27.8449 31.046 27.8107 30.7095 27.9971 30.4805L31.7859 25.8233C31.9763 25.6089 32.3019 25.5827 32.5242 25.764C32.7464 25.9452 32.7863 26.2694 32.6146 26.4991L28.8258 31.1533C28.7243 31.2789 28.5714 31.352 28.4099 31.3521Z" fill="#372168"/>
<path d="M14.377 48.608C14.1702 48.6092 13.9815 48.4905 13.893 48.3037C13.8045 48.1169 13.8323 47.8957 13.9641 47.7365L26.0766 32.8413C26.2633 32.6116 26.6007 32.5767 26.8304 32.7633C27.0601 32.9499 27.095 33.2874 26.9084 33.5171L14.7928 48.4092C14.6919 48.5356 14.5387 48.6088 14.377 48.608Z" fill="#372168"/>
<path d="M27.9079 40.4648C27.7017 40.4646 27.514 40.3461 27.4252 40.1601C27.3364 39.9741 27.3624 39.7536 27.492 39.5932L35.9411 29.1963C36.1277 28.9666 36.4652 28.9317 36.6949 29.1183C36.9245 29.3049 36.9594 29.6424 36.7728 29.8721L28.3237 40.2691C28.2213 40.3932 28.0688 40.465 27.9079 40.4648Z" fill="#372168"/>
<path d="M18.537 51.9901C18.4145 51.9902 18.2957 51.9481 18.2006 51.8708C17.9707 51.6838 17.9352 51.3462 18.1211 51.1155L25.6651 41.856C25.8517 41.6264 26.1892 41.5914 26.4188 41.7781C26.6485 41.9647 26.6834 42.3022 26.4968 42.5318L18.9529 51.8066C18.8487 51.9269 18.6961 51.9942 18.537 51.9901Z" fill="#372168"/>
<path d="M22.6951 55.3721C22.4889 55.3705 22.3018 55.2512 22.2133 55.065C22.1248 54.8789 22.1504 54.6585 22.2792 54.4975L40.1009 32.5874C40.2155 32.4228 40.4126 32.3362 40.6114 32.363C40.8102 32.3897 40.9773 32.5254 41.0443 32.7144C41.1114 32.9035 41.0671 33.1141 40.9296 33.2602L23.1079 55.1733C23.0079 55.2992 22.8558 55.3724 22.6951 55.3721Z" fill="#372168"/>
<path d="M42.2556 39.8134C42.0495 39.8118 41.8624 39.6925 41.7738 39.5063C41.6853 39.3202 41.7109 39.0998 41.8398 38.9388L44.2555 35.9665C44.3763 35.8179 44.5671 35.745 44.7561 35.7753C44.9451 35.8056 45.1037 35.9344 45.172 36.1132C45.2403 36.292 45.208 36.4937 45.0873 36.6423L42.6685 39.6146C42.5685 39.7405 42.4164 39.8137 42.2556 39.8134Z" fill="#372168"/>
<path d="M26.8503 58.7512C26.7276 58.7527 26.6084 58.7104 26.514 58.6319C26.2854 58.4452 26.2512 58.1086 26.4375 57.8797L40.0331 41.1619C40.1538 41.0134 40.3447 40.9405 40.5337 40.9707C40.7227 41.001 40.8813 41.1298 40.9496 41.3086C41.0179 41.4875 40.9856 41.6892 40.8649 41.8378L27.2662 58.5555C27.1638 58.6796 27.0113 58.7514 26.8503 58.7512Z" fill="#372168"/>
<path d="M31.0094 62.1333C30.8033 62.1332 30.6156 62.0147 30.5268 61.8286C30.438 61.6426 30.464 61.4221 30.5935 61.2618L47.2073 40.8348C47.3978 40.6204 47.7234 40.5942 47.9456 40.7755C48.1679 40.9567 48.2077 41.2809 48.036 41.5106L31.4375 61.9376C31.3324 62.0651 31.1746 62.1373 31.0094 62.1333Z" fill="#372168"/>
<path d="M28.7035 16.3313C28.6176 16.3319 28.5355 16.2964 28.4772 16.2335C28.4216 16.1737 28.3923 16.0941 28.3958 16.0125C28.3992 15.931 28.4351 15.8542 28.4955 15.7993C29.2377 15.1468 30.3074 15.0248 31.1773 15.4935C31.278 15.5412 31.3447 15.6399 31.3515 15.7511C31.3583 15.8623 31.304 15.9684 31.2099 16.0281C31.1158 16.0877 30.9967 16.0914 30.8991 16.0378C30.2587 15.6846 29.4663 15.7663 28.9114 16.2427C28.856 16.2977 28.7816 16.3294 28.7035 16.3313Z" fill="#372168"/>
<path d="M31.9981 19.6244L69.6092 7.01803C71.6348 6.33908 73.8273 7.43079 74.5063 9.45643L90.7473 57.9113C91.167 59.1635 90.4921 60.5189 89.2399 60.9386L49.4107 74.2885C48.1585 74.7082 46.8031 74.0333 46.3834 72.7811L29.9471 23.7434C29.376 22.0396 30.2943 20.1955 31.9981 19.6244Z" fill="white"/>
<path fill-rule="evenodd" clip-rule="evenodd" d="M47.2869 74.7289C47.703 74.9319 48.1602 75.0365 48.6232 75.0347C48.9484 75.0354 49.2716 74.9838 49.5803 74.8818L89.4222 61.54C90.1777 61.2876 90.8018 60.7451 91.1569 60.0321C91.512 59.319 91.5689 58.4941 91.3151 57.739L75.0774 9.28293C74.2877 6.93938 71.7513 5.67596 69.405 6.4574L31.7923 19.0622C29.7658 19.7379 28.6706 21.9283 29.346 23.9549L45.7793 72.9951C46.03 73.7512 46.5729 74.3756 47.2869 74.7289ZM69.781 7.6255C70.1138 7.51227 70.463 7.45442 70.8146 7.45425V7.43896C72.2178 7.44486 73.4607 8.34568 73.9031 9.67738L90.1407 58.1335C90.4517 59.0656 89.9497 60.0736 89.0185 60.3872L49.1888 73.7351C48.2567 74.046 47.2487 73.5441 46.9351 72.6128L30.5018 23.5726C30.0414 22.1889 30.7864 20.6933 32.1683 20.2273L69.781 7.6255Z" fill="#372168"/>
<path d="M62.2704 21.6309C62.0077 21.6318 61.7831 21.4418 61.7405 21.1825C61.6979 20.9232 61.8499 20.6713 62.0992 20.5881L67.7931 18.68C68.0734 18.5863 68.3767 18.7375 68.4704 19.0179C68.5641 19.2982 68.4129 19.6015 68.1325 19.6952L62.4386 21.6003C62.3849 21.6208 62.3279 21.6312 62.2704 21.6309Z" fill="#372168"/>
<path d="M41.1835 28.707C40.9207 28.7079 40.6962 28.5179 40.6536 28.2586C40.611 27.9993 40.763 27.7474 41.0123 27.6642L59.2162 21.5483C59.4011 21.4713 59.6135 21.504 59.7667 21.633C59.9198 21.762 59.9882 21.9658 59.9437 22.1611C59.8993 22.3564 59.7495 22.5105 59.5556 22.5605L41.3517 28.6611C41.299 28.6869 41.242 28.7024 41.1835 28.707Z" fill="#372168"/>
<path d="M56.9685 29.0587C56.7063 29.0581 56.4832 28.8676 56.4414 28.6087C56.3997 28.3499 56.5516 28.0989 56.8004 28.0159L69.4969 23.7623C69.7688 23.6922 70.0487 23.8441 70.138 24.1103C70.2272 24.3766 70.0956 24.6665 69.8363 24.7745L57.1398 29.0311C57.0845 29.0492 57.0267 29.0585 56.9685 29.0587Z" fill="#372168"/>
<path d="M42.8836 33.7769C42.6214 33.7763 42.3982 33.5859 42.3565 33.327C42.3147 33.0681 42.4667 32.8172 42.7154 32.7342L54.0665 28.9362C54.3468 28.8416 54.6508 28.9922 54.7453 29.2726C54.8399 29.5529 54.6893 29.8569 54.409 29.9514L43.0579 33.7494C43.0017 33.7681 42.9428 33.7774 42.8836 33.7769Z" fill="#372168"/>
<path d="M44.5867 38.8593C44.3245 38.8587 44.1014 38.6682 44.0596 38.4094C44.0179 38.1505 44.1698 37.8995 44.4185 37.8165L71.1908 28.8415C71.4711 28.7469 71.7751 28.8975 71.8696 29.1779C71.9642 29.4582 71.8136 29.7621 71.5333 29.8567L44.7518 38.8318C44.6985 38.8492 44.6428 38.8585 44.5867 38.8593Z" fill="#372168"/>
<path d="M69.4374 36.1836C69.1747 36.1845 68.9501 35.9945 68.9075 35.7352C68.8649 35.4759 69.0169 35.224 69.2662 35.1408L72.899 33.9176C73.0804 33.857 73.2803 33.8977 73.4235 34.0245C73.5667 34.1512 73.6314 34.3447 73.5932 34.5321C73.555 34.7195 73.4198 34.8722 73.2384 34.9329L69.6087 36.1561C69.5534 36.1741 69.4956 36.1834 69.4374 36.1836Z" fill="#372168"/>
<path d="M46.2904 43.9416C46.0604 43.9396 45.8568 43.7924 45.7827 43.5746C45.7374 43.44 45.7477 43.2929 45.8115 43.1659C45.8752 43.039 45.9871 42.9428 46.1222 42.8988L66.5523 36.046C66.7363 35.9718 66.9463 36.0056 67.0978 36.1337C67.2494 36.2619 67.3175 36.4634 67.275 36.6572C67.2324 36.851 67.086 37.0053 66.8947 37.0582L46.4616 43.908C46.4066 43.9281 46.3488 43.9395 46.2904 43.9416Z" fill="#372168"/>
<path d="M47.9931 49.0208C47.7303 49.0217 47.5058 48.8317 47.4632 48.5723C47.4206 48.313 47.5726 48.0612 47.8218 47.978L72.7869 39.6145C72.9682 39.5539 73.1681 39.5946 73.3113 39.7214C73.4545 39.8481 73.5192 40.0416 73.481 40.229C73.4429 40.4164 73.3076 40.5691 73.1263 40.6298L48.1643 48.9932C48.109 49.0111 48.0512 49.0203 47.9931 49.0208Z" fill="#372168"/>
<path d="M72.5609 9.89453C72.4505 9.89434 72.3489 9.83475 72.2948 9.73858C72.0045 9.17611 71.3938 8.85486 70.7658 8.93434C70.6566 8.95182 70.5463 8.90969 70.4766 8.82382C70.4068 8.73794 70.3881 8.62138 70.4276 8.51802C70.4671 8.41467 70.5587 8.34023 70.668 8.32275C71.5475 8.2039 72.4079 8.6457 72.8238 9.42973C72.8644 9.50059 72.875 9.58475 72.8532 9.66344C72.8313 9.74214 72.7789 9.80883 72.7076 9.84867C72.663 9.8754 72.6127 9.89112 72.5609 9.89453Z" fill="#372168"/>
<path d="M85.733 12.5379L116.955 37.0014C118.637 38.319 118.932 40.7505 117.614 42.4321L86.0949 82.6589C85.2804 83.6984 83.7773 83.8809 82.7377 83.0663L49.6744 57.16C48.6348 56.3454 48.4524 54.8424 49.2669 53.8028L81.1652 13.0922C81.6974 12.413 82.4776 11.973 83.3343 11.869C84.1909 11.765 85.0537 12.0056 85.733 12.5379Z" fill="white"/>
<path fill-rule="evenodd" clip-rule="evenodd" d="M82.3604 83.5481C82.8878 83.9628 83.5395 84.1879 84.2104 84.1872C85.1346 84.1898 86.0081 83.7654 86.5773 83.0374L118.083 42.8102C118.816 41.8748 119.147 40.6864 119.004 39.5068C118.861 38.3271 118.254 37.2527 117.319 36.52L86.0972 12.0565C84.4164 10.7405 81.9873 11.0347 80.6693 12.714L48.7842 53.4243C47.7639 54.7307 47.9922 56.6162 49.2949 57.6412L82.3604 83.5481ZM81.6458 13.4694C82.1473 12.8296 82.9154 12.4562 83.7283 12.4572C84.3162 12.451 84.8892 12.6427 85.3551 13.0015L116.58 37.465C117.264 37.9982 117.707 38.7823 117.811 39.6433C117.915 40.5044 117.671 41.3713 117.133 42.0519L85.615 82.2791C85.3248 82.6516 84.8981 82.8933 84.4293 82.9507C83.9606 83.0081 83.4882 82.8764 83.1167 82.5849L50.0542 56.678C49.2815 56.0717 49.1447 54.9545 49.7485 54.1797L81.6458 13.4694Z" fill="#372168"/>
<path d="M105.91 42.8713C105.79 42.8711 105.674 42.8314 105.58 42.7582L100.852 39.055C100.701 38.937 100.625 38.7476 100.652 38.558C100.679 38.3685 100.804 38.2076 100.982 38.136C101.16 38.0645 101.362 38.0931 101.513 38.211L106.237 41.9142C106.417 42.0548 106.489 42.2946 106.414 42.5108C106.339 42.727 106.136 42.8718 105.907 42.8713H105.91Z" fill="#372168"/>
<path d="M98.7922 37.2937C98.6723 37.2928 98.556 37.2519 98.462 37.1775L83.3496 25.3432C83.19 25.2285 83.1062 25.0354 83.1313 24.8404C83.1565 24.6455 83.2865 24.4799 83.4699 24.4094C83.6534 24.3388 83.8608 24.3745 84.0102 24.5023L99.1225 36.3518C99.3028 36.4925 99.3739 36.7322 99.2993 36.9484C99.2247 37.1646 99.0209 37.3095 98.7922 37.309V37.2937Z" fill="#372168"/>
<path d="M102.605 47.0882C102.486 47.0881 102.371 47.0482 102.278 46.9751L91.7369 38.7187C91.625 38.6317 91.5524 38.5038 91.5352 38.3631C91.518 38.2225 91.5576 38.0808 91.6452 37.9695C91.8282 37.7376 92.164 37.6967 92.3974 37.8777L102.935 46.1342C103.113 46.2755 103.182 46.5136 103.108 46.7282C103.034 46.9427 102.832 47.0871 102.605 47.0882Z" fill="#372168"/>
<path d="M89.7864 37.0429C89.6668 37.0434 89.5504 37.0036 89.4562 36.9298L80.0591 29.5571C79.9084 29.4391 79.832 29.2497 79.8588 29.0601C79.8856 28.8705 80.0115 28.7097 80.1891 28.6381C80.3666 28.5665 80.5689 28.5951 80.7196 28.7131L90.132 36.0889C90.3098 36.2302 90.379 36.4683 90.3047 36.6829C90.2304 36.8975 90.0288 37.0418 89.8017 37.0429H89.7864Z" fill="#372168"/>
<path d="M99.3028 51.3081C99.1832 51.3087 99.0668 51.2688 98.9726 51.195L76.7383 33.7648C76.5787 33.65 76.4949 33.4569 76.52 33.2619C76.5451 33.067 76.6751 32.9015 76.8586 32.8309C77.0421 32.7603 77.2495 32.796 77.3988 32.9238L99.6331 50.3541C99.8134 50.4947 99.8845 50.7344 99.8099 50.9506C99.7353 51.1668 99.5315 51.3117 99.3028 51.3112V51.3081Z" fill="#372168"/>
<path d="M95.9963 55.525C95.8766 55.5255 95.7603 55.4856 95.6661 55.4119L92.6509 53.0511C92.5002 52.9331 92.4238 52.7437 92.4506 52.5541C92.4774 52.3646 92.6033 52.2037 92.7809 52.1321C92.9584 52.0606 93.1607 52.0891 93.3114 52.2071L96.3266 54.5709C96.5044 54.7122 96.5736 54.9503 96.4993 55.1649C96.425 55.3795 96.2234 55.5239 95.9963 55.525Z" fill="#372168"/>
<path d="M90.7248 51.3968C90.6052 51.3973 90.4888 51.3575 90.3946 51.2837L73.4322 37.9939C73.1991 37.8115 73.1581 37.4747 73.3405 37.2416C73.5229 37.0086 73.8596 36.9675 74.0927 37.1499L91.0673 50.4397C91.2477 50.5803 91.3187 50.8201 91.2441 51.0363C91.1695 51.2524 90.9658 51.3973 90.7371 51.3968H90.7248Z" fill="#372168"/>
<path d="M91.1835 58.5647C91.0633 58.5653 90.9466 58.5242 90.8533 58.4485L70.1266 42.2108C69.9087 42.0243 69.8766 41.6993 70.0538 41.4738C70.2309 41.2483 70.5543 41.2025 70.7871 41.3699L91.5138 57.6075C91.6941 57.7482 91.7652 57.9879 91.6906 58.2041C91.616 58.4203 91.4122 58.5652 91.1835 58.5647Z" fill="#372168"/>
<path d="M116.448 41.1987C116.4 41.1977 116.352 41.1862 116.308 41.165C116.158 41.0865 116.101 40.9017 116.179 40.7522C116.482 40.2003 116.415 39.5194 116.011 39.0367C115.896 38.9126 115.904 38.7189 116.028 38.604C116.152 38.4892 116.346 38.4967 116.461 38.6208C117.039 39.2935 117.142 40.2531 116.721 41.0336C116.668 41.1352 116.563 41.1989 116.448 41.1987Z" fill="#372168"/>
<path d="M76.4161 4.39931C76.2798 4.39839 76.1606 4.30744 76.1237 4.17627C76.0869 4.0451 76.1412 3.90536 76.257 3.83359L77.8227 2.86728C77.9656 2.77954 78.1524 2.82319 78.2417 2.96513C78.2848 3.03403 78.2987 3.11727 78.2803 3.19645C78.262 3.27563 78.2128 3.34424 78.1438 3.38713L76.5781 4.35344C76.5295 4.3836 76.4733 4.39949 76.4161 4.39931Z" fill="#372168"/>
<path d="M74.4993 3.32606C74.3921 3.32577 74.2928 3.26934 74.2378 3.17733C74.1827 3.08532 74.1798 2.97119 74.2302 2.87654L75.1996 1.04178C75.2489 0.942366 75.3482 0.877458 75.459 0.872174C75.5698 0.86689 75.6748 0.92206 75.7333 1.01633C75.7919 1.1106 75.7947 1.22918 75.7408 1.32616L74.7715 3.16093C74.7188 3.26257 74.6138 3.32629 74.4993 3.32606Z" fill="#372168"/>
<path d="M72.4133 2.56769C72.2568 2.56864 72.1248 2.45116 72.1076 2.29553L71.8904 0.338454C71.8725 0.171456 71.9927 0.0212791 72.1595 0.00208077C72.2403 -0.00738175 72.3214 0.015679 72.3851 0.06617C72.4488 0.116661 72.4898 0.190428 72.499 0.271179L72.713 2.22826C72.7309 2.39526 72.6108 2.54544 72.4439 2.56463L72.4133 2.56769Z" fill="#372168"/>
<path fill-rule="evenodd" clip-rule="evenodd" d="M101.427 59.1426V96.7002C101.427 101.513 97.5253 105.415 92.7121 105.415H30.428C25.6148 105.415 21.7129 101.513 21.7129 96.7002V49.6538C21.7129 43.6483 26.5814 38.7798 32.5869 38.7798H57.7966C61.1054 38.7814 64.2337 40.2882 66.2976 42.8744L69.7103 47.1555C70.6166 48.2936 71.9922 48.9567 73.4471 48.9566H91.2382C93.9404 48.955 96.5326 50.0275 98.4436 51.938C100.355 53.8485 101.428 56.4403 101.427 59.1426Z" fill="#CECECE"/>
<path fill-rule="evenodd" clip-rule="evenodd" d="M30.4283 106.027H92.7124C97.8613 106.022 102.034 101.849 102.039 96.7003V59.1427C102.031 53.1833 97.2009 48.3549 91.2415 48.3481H73.4504C72.1807 48.3501 70.9798 47.7711 70.1907 46.7764L66.778 42.4952C64.6052 39.7532 61.2953 38.1585 57.7968 38.1683H32.5872C26.2466 38.175 21.1083 43.3133 21.1016 49.6539V96.7003C21.1066 101.849 25.2794 106.022 30.4283 106.027ZM22.325 49.6538C22.3301 43.9881 26.9217 39.3964 32.5874 39.3913H57.7971C60.9224 39.3838 63.8789 40.808 65.8211 43.2566L69.2338 47.5377C70.2541 48.8252 71.8079 49.5745 73.4507 49.5712H91.2418C96.5263 49.5763 100.809 53.8581 100.816 59.1426V96.7002C100.811 101.174 97.186 104.799 92.7126 104.804H30.4285C25.9552 104.799 22.3301 101.174 22.325 96.7002V49.6538Z" fill="#372168"/>
<path d="M96.5342 56.5342C96.4115 56.5341 96.3008 56.4606 96.2529 56.3476C95.6965 55.0373 94.5986 54.033 93.2439 53.5955C93.0943 53.5361 93.0163 53.371 93.0655 53.2177C93.1147 53.0645 93.2742 52.9756 93.4304 53.0145C94.9559 53.5051 96.1919 54.6361 96.8156 56.1122C96.8813 56.2675 96.8088 56.4468 96.6535 56.5127C96.6154 56.5271 96.575 56.5344 96.5342 56.5342Z" fill="#372168"/>
<path d="M60.9677 75.0868C60.9004 75.0874 60.8349 75.0659 60.7811 75.0256L57.6712 72.6374C57.5381 72.5342 57.5135 72.3428 57.6162 72.2093C57.7184 72.0751 57.91 72.0491 58.0443 72.1512L61.1542 74.5394C61.2873 74.6426 61.3119 74.834 61.2092 74.9675C61.1515 75.0425 61.0623 75.0865 60.9677 75.0868Z" fill="#372168"/>
<path d="M64.0745 74.4904C64.0084 74.4904 63.944 74.4689 63.891 74.4292L57.6712 69.6558C57.5381 69.5526 57.5135 69.3612 57.6162 69.2277C57.7184 69.0936 57.91 69.0676 58.0443 69.1696L64.2611 73.943C64.3642 74.0231 64.4051 74.1597 64.363 74.2832C64.3209 74.4068 64.205 74.49 64.0745 74.4904Z" fill="#372168"/>
<path d="M64.0749 71.4478C64.0087 71.4478 63.9444 71.4263 63.8914 71.3866L62.179 70.0717C62.0449 69.9694 62.0189 69.7779 62.1209 69.6436C62.17 69.5783 62.2433 69.5354 62.3243 69.5245C62.4053 69.5136 62.4873 69.5355 62.552 69.5855L64.2614 70.9004C64.3645 70.9804 64.4055 71.1171 64.3634 71.2406C64.3213 71.3642 64.2054 71.4474 64.0749 71.4478Z" fill="#372168"/>
<path d="M28.8967 101.917C28.8645 101.916 28.8326 101.911 28.8019 101.902C27.2781 101.408 26.0432 100.278 25.4168 98.804C25.3509 98.6478 25.4242 98.4677 25.5804 98.4019C25.7366 98.336 25.9166 98.4093 25.9825 98.5655C26.5399 99.8751 27.6374 100.879 28.9915 101.318C29.1604 101.344 29.2761 101.502 29.2499 101.671C29.2237 101.84 29.0656 101.955 28.8967 101.929V101.917Z" fill="#372168"/>
<path d="M80.8195 105.721C80.6506 105.721 80.5137 105.584 80.5137 105.415V102.789C80.5137 102.62 80.6506 102.483 80.8195 102.483C80.9884 102.483 81.1253 102.62 81.1253 102.789V105.415C81.1253 105.584 80.9884 105.721 80.8195 105.721Z" fill="#372168"/>
<path d="M83.6788 105.721C83.51 105.721 83.373 105.584 83.373 105.415V100.146C83.373 99.9776 83.51 99.8407 83.6788 99.8407C83.8477 99.8407 83.9846 99.9776 83.9846 100.146V105.415C83.9846 105.584 83.8477 105.721 83.6788 105.721Z" fill="#372168"/>
</svg>
