<svg width="128" height="132" viewBox="0 0 128 132" fill="none" xmlns="http://www.w3.org/2000/svg">
<path d="M122.38 7.07356C122.172 7.07234 121.993 6.92812 121.947 6.72557C121.901 6.52302 122.001 6.3156 122.188 6.22509L124.622 5.07742C124.844 4.97205 125.109 5.06584 125.216 5.2873C125.267 5.39496 125.274 5.51886 125.234 5.6313C125.193 5.74375 125.11 5.83537 125.001 5.8857L122.572 7.03336C122.511 7.05942 122.446 7.07309 122.38 7.07356Z" fill="#372168"/>
<path d="M119.776 5.18907C119.687 5.18795 119.6 5.15995 119.526 5.10869C119.428 5.04246 119.36 4.9398 119.337 4.82334C119.315 4.70689 119.339 4.58622 119.406 4.48797L121.112 1.98275C121.252 1.78273 121.528 1.73298 121.729 1.87113C121.931 2.00928 121.984 2.28396 121.848 2.48737L120.143 4.99258C120.06 5.11434 119.923 5.18782 119.776 5.18907Z" fill="#372168"/>
<path d="M116.861 3.76452C116.614 3.76452 116.414 3.56459 116.414 3.31796V0.446563C116.414 0.199933 116.614 0 116.861 0C117.107 0 117.307 0.199933 117.307 0.446563V3.31796C117.307 3.56459 117.107 3.76452 116.861 3.76452Z" fill="#372168"/>
<path d="M9.15405 116.776C9.06848 116.776 8.98478 116.751 8.91291 116.705C7.26602 115.688 5.76392 114.453 4.44728 113.034C-4.32322 103.049 1.07126 95.2028 10.3017 84.3781C10.3999 84.2417 10.5663 84.1719 10.7324 84.1976C10.8985 84.2233 11.0361 84.3401 11.0885 84.4998C11.1409 84.6595 11.0991 84.8351 10.9805 84.9542C1.78576 95.7431 -3.20234 102.977 5.11712 112.445C6.37853 113.8 7.81585 114.981 9.39073 115.955C9.55686 116.062 9.63261 116.266 9.57692 116.455C9.52123 116.645 9.34735 116.776 9.14958 116.776H9.15405Z" fill="#372168"/>
<path d="M18.6481 121.586C18.5886 121.586 18.5295 121.576 18.4739 121.554C16.5358 120.737 14.7451 119.911 13.1553 119.103C13.0125 119.03 12.9193 118.887 12.9108 118.727C12.9023 118.567 12.9797 118.415 13.114 118.327C13.2482 118.24 13.4189 118.231 13.5617 118.303C15.1336 119.107 16.902 119.92 18.8222 120.728C19.0173 120.811 19.127 121.02 19.0848 121.228C19.0426 121.436 18.8601 121.585 18.6481 121.586Z" fill="#372168"/>
<path fill-rule="evenodd" clip-rule="evenodd" d="M121.983 111.904C117.785 115.37 108.564 117.781 99.0074 119.42C92.6967 120.504 86.3309 121.237 79.9391 121.617H79.7337C72.9296 122.019 66.1076 122.019 59.3035 121.617H59.0891C52.7466 121.238 46.43 120.507 40.1683 119.429C30.6118 117.79 21.4126 115.378 17.1926 111.913C6.70284 103.25 14.2989 97.1051 22.2789 83.1947C28.0843 73.0845 29.1471 61.7597 29.2945 56.3384C29.417 51.2469 30.3843 46.2111 32.1569 41.4366C39.2707 22.5157 55.3782 17.7196 63.9567 16.5273L64.1353 16.5005C67.693 16.0404 71.2951 16.0404 74.8528 16.5005H75.0314C83.5652 17.6571 99.8424 22.3862 107.005 41.4366C108.778 46.2111 109.745 51.2469 109.868 56.3384C110.015 61.7686 111.082 73.0845 116.883 83.1947C124.877 97.0962 132.473 103.241 121.983 111.904Z" fill="#FFD87A"/>
<path fill-rule="evenodd" clip-rule="evenodd" d="M59.2495 122.515C62.6702 122.715 66.1176 122.818 69.574 122.818C72.9813 122.818 76.3975 122.72 79.7958 122.528H79.9923C86.4174 122.137 92.8159 121.391 99.1588 120.295C110.939 118.277 118.803 115.682 122.55 112.587C131.68 105.051 127.825 98.979 121.991 89.7877L121.987 89.7815C120.661 87.696 119.16 85.3293 117.673 82.7392C112.029 72.9014 110.926 61.9517 110.774 56.2982C110.65 51.1102 109.663 45.979 107.853 41.1151C100.588 21.7878 84.2525 16.8399 75.1694 15.6074H74.9819C73.1951 15.3553 71.3917 15.2403 69.5874 15.2636C67.717 15.2391 65.8476 15.3615 63.9964 15.6297L63.8312 15.6565C54.7973 16.9114 38.5558 21.8906 31.3215 41.1374C29.5123 46.0014 28.5253 51.1325 28.4009 56.3205C28.2491 61.9696 27.1461 72.9327 21.5015 82.7571C20.0145 85.3337 18.5274 87.7139 17.1877 89.7994L17.1838 89.8056C11.3494 98.9968 7.49493 105.069 16.6251 112.605C20.3673 115.7 28.2446 118.295 40.016 120.313C46.3107 121.394 52.6599 122.129 59.0351 122.515H59.2495ZM64.2564 17.3758C65.862 17.1517 67.4805 17.0323 69.1016 17.0186C69.3874 17.0186 69.5348 17.0409 69.5348 17.0409H69.6062C71.3134 17.0199 73.0197 17.1289 74.7104 17.3669H74.8489H74.9069C83.6015 18.5458 99.2267 23.2794 106.166 41.7313C107.904 46.413 108.851 51.3507 108.971 56.3429C109.136 62.1616 110.275 73.4462 116.116 83.6234C117.621 86.267 119.13 88.6338 120.47 90.7327L120.476 90.7426C126.362 100.016 129.318 104.672 121.407 111.208C117.951 114.066 110.15 116.593 98.8471 118.531C92.5672 119.607 86.2328 120.336 79.8727 120.715H79.6717C72.9033 121.115 66.1171 121.115 59.3487 120.715H59.1343C52.8247 120.338 46.5409 119.612 40.3117 118.54C29.0092 116.602 21.2077 114.07 17.7513 111.217C9.84106 104.681 12.7969 100.024 18.6828 90.7515L18.6891 90.7416C20.0243 88.6428 21.5382 86.2581 23.0431 83.6323C28.8931 73.4552 30.0318 62.1616 30.1881 56.3563C30.3071 51.3626 31.2548 46.4234 32.9925 41.7403C39.9053 23.3642 55.4368 18.6039 64.0956 17.4026L64.2564 17.3758Z" fill="#372168"/>
<path d="M78.9742 106.403C77.5274 106.403 76.0761 106.371 74.6337 106.313C74.387 106.303 74.1951 106.095 74.205 105.849C74.2148 105.602 74.4227 105.41 74.6694 105.42C83.3839 105.77 92.1086 105.056 100.65 103.294C101.928 103.031 103.173 102.75 104.357 102.459C104.597 102.4 104.84 102.547 104.899 102.788C104.959 103.028 104.812 103.271 104.571 103.33C103.379 103.62 102.12 103.902 100.829 104.17C93.638 105.649 86.3158 106.397 78.9742 106.403Z" fill="#372168"/>
<path d="M108.479 102.245C108.232 102.281 108.003 102.11 107.968 101.863C107.932 101.617 108.103 101.388 108.349 101.352C110.239 100.789 112.093 100.116 113.905 99.3379C114.052 99.2639 114.229 99.2774 114.363 99.373C114.498 99.4686 114.569 99.6308 114.548 99.7946C114.526 99.9583 114.417 100.097 114.262 100.155C112.419 100.949 110.531 101.635 108.608 102.209C108.567 102.228 108.524 102.24 108.479 102.245Z" fill="#372168"/>
<path d="M44.4277 32.2909C44.3128 32.2904 44.2024 32.2457 44.1196 32.1659C43.9465 31.9917 43.9465 31.7104 44.1196 31.5362C45.9173 29.6631 47.9764 28.0597 50.233 26.7759C50.4476 26.6525 50.7215 26.7265 50.8448 26.9411C50.9682 27.1556 50.8942 27.4296 50.6796 27.5529C48.4981 28.7921 46.508 30.3414 44.7716 32.1525C44.6824 32.2463 44.557 32.2968 44.4277 32.2909Z" fill="#372168"/>
<path d="M79.9389 121.617C79.0362 126.607 74.692 130.236 69.6211 130.236C64.5501 130.236 60.2059 126.607 59.3032 121.617C66.1074 122.019 72.9293 122.019 79.7335 121.617H79.9389Z" fill="white"/>
<path fill-rule="evenodd" clip-rule="evenodd" d="M58.4236 121.755C59.3824 127.185 64.1048 131.141 69.6189 131.133C75.1341 131.142 79.858 127.186 80.8187 121.755C80.8674 121.485 80.7889 121.207 80.6057 121.002C80.4226 120.797 80.1552 120.688 79.881 120.706H79.68C72.9115 121.106 66.1254 121.106 59.3569 120.706C59.0841 120.69 58.8192 120.801 58.638 121.005C58.4553 121.209 58.3763 121.486 58.4236 121.755ZM69.621 129.349C65.4106 129.349 61.692 126.605 60.4508 122.581C66.5601 122.901 72.6819 122.901 78.7911 122.581C77.55 126.605 73.8313 129.349 69.621 129.349Z" fill="#372168"/>
<path d="M75.0441 12.2224V16.4915H74.8655C71.3078 16.0314 67.7056 16.0314 64.1479 16.4915V12.2224C64.1479 9.44042 66.4032 7.18518 69.1852 7.18518H70.0203C72.797 7.19257 75.0441 9.44565 75.0441 12.2224Z" fill="white"/>
<path fill-rule="evenodd" clip-rule="evenodd" d="M74.9193 17.3847H75.0444V17.416C75.5376 17.416 75.9375 17.0161 75.9375 16.5229V12.2537C75.9326 8.98051 73.2803 6.32828 70.0071 6.32336H69.1721C65.8989 6.32828 63.2466 8.98051 63.2417 12.2537V16.5229C63.2407 16.7809 63.3515 17.0268 63.5454 17.1972C63.7405 17.3666 63.9995 17.4431 64.2554 17.4071C66.0091 17.1533 67.7799 17.0368 69.5516 17.0587H69.6231C71.3303 17.0378 73.0366 17.1468 74.7273 17.3847H74.8657H74.9193ZM74.1509 15.4823C72.8034 15.3249 71.4482 15.2414 70.0916 15.2323C69.8326 15.2323 69.6584 15.2367 69.587 15.2412C68.0635 15.2182 66.5402 15.2988 65.0276 15.4823V12.2224C65.03 9.93474 66.884 8.0808 69.1717 8.07834H70.0068C72.2945 8.0808 74.1484 9.93474 74.1509 12.2224V15.4823Z" fill="#372168"/>
<path d="M71.262 57.7853C71.1634 57.7849 71.0676 57.752 70.9896 57.6915L66.4481 54.2083C66.3534 54.1358 66.2916 54.0285 66.2765 53.9102C66.2614 53.792 66.2943 53.6726 66.3677 53.5786C66.5184 53.3842 66.7979 53.3483 66.9929 53.4982L71.5344 56.9814C71.6889 57.0973 71.7514 57.2992 71.6895 57.482C71.6275 57.6649 71.4551 57.7872 71.262 57.7853Z" fill="#372168"/>
<path d="M75.7988 56.9368C75.7017 56.9355 75.6076 56.9026 75.5309 56.843L66.4478 49.8722C66.2703 49.7167 66.2443 49.45 66.3885 49.2633C66.5327 49.0765 66.7973 49.0342 66.9926 49.1666L76.0578 56.1151C76.2537 56.2644 76.2916 56.5441 76.1427 56.7403C76.0649 56.8558 75.9378 56.9285 75.7988 56.9368Z" fill="#372168"/>
<path d="M75.7986 52.4712C75.7015 52.4699 75.6074 52.437 75.5307 52.3774L73.0299 50.4572C72.8924 50.3639 72.8181 50.2021 72.8369 50.037C72.8557 49.872 72.9645 49.731 73.1194 49.6711C73.2744 49.6111 73.4498 49.6422 73.5747 49.7516L76.071 51.6674C76.1664 51.7392 76.229 51.8462 76.245 51.9645C76.2609 52.0828 76.2288 52.2025 76.1559 52.297C76.0706 52.4078 75.9384 52.4722 75.7986 52.4712Z" fill="#372168"/>
<path d="M69.6682 127.449C69.4216 127.449 69.2217 127.249 69.2217 127.002C69.2217 126.756 69.4216 126.556 69.6682 126.556C70.7209 126.561 71.7452 126.215 72.5798 125.573C72.6743 125.5 72.7941 125.468 72.9124 125.484C73.0307 125.5 73.1377 125.563 73.2095 125.658C73.3584 125.854 73.3205 126.134 73.1246 126.283C72.1334 127.044 70.9177 127.454 69.6682 127.449Z" fill="#372168"/>
<path fill-rule="evenodd" clip-rule="evenodd" d="M104.657 46.3148C114.962 46.3148 123.315 37.9616 123.315 27.6574C123.315 17.3532 114.962 9 104.657 9C94.3532 9 86 17.3532 86 27.6574C86 37.9616 94.3532 46.3148 104.657 46.3148Z" fill="#FF6B6B"/>
<path fill-rule="evenodd" clip-rule="evenodd" d="M84.9131 27.5619C84.9131 38.3593 93.6662 47.1124 104.464 47.1124C115.256 47.1001 124.002 38.3542 124.014 27.5619C124.014 16.7644 115.261 8.01135 104.464 8.01135C93.6662 8.01135 84.9131 16.7644 84.9131 27.5619ZM86.6985 27.5618C86.6985 17.7509 94.6518 9.79758 104.463 9.79758V9.81097C114.264 9.8208 122.21 17.7602 122.227 27.5618C122.227 37.3728 114.274 45.3261 104.463 45.3261C94.6518 45.3261 86.6985 37.3728 86.6985 27.5618Z" fill="#372168"/>
<path d="M114.703 16.7461C114.597 16.7461 114.494 16.7081 114.413 16.6389C113.348 15.7289 112.18 14.9451 110.934 14.3034C110.715 14.19 110.629 13.9201 110.742 13.7006C110.856 13.4811 111.126 13.3951 111.345 13.5085C112.653 14.1811 113.877 15.0039 114.994 15.9602C115.136 16.0817 115.187 16.2789 115.122 16.4543C115.058 16.6297 114.89 16.7461 114.703 16.7461Z" fill="#372168"/>
<path d="M105 38.6667C98.5567 38.6667 93.3335 33.4435 93.3335 27C93.3335 20.5565 98.5567 15.3334 105 15.3334C111.444 15.3334 116.667 20.5565 116.667 27C116.667 33.4435 111.444 38.6667 105 38.6667ZM105 36.3334C107.476 36.3334 109.849 35.35 111.6 33.5997C113.35 31.8494 114.333 29.4754 114.333 27C114.333 24.5247 113.35 22.1507 111.6 20.4004C109.849 18.65 107.476 17.6667 105 17.6667C102.525 17.6667 100.151 18.65 98.4005 20.4004C96.6502 22.1507 95.6668 24.5247 95.6668 27C95.6668 29.4754 96.6502 31.8494 98.4005 33.5997C100.151 35.35 102.525 36.3334 105 36.3334ZM103.833 30.5H106.167V32.8334H103.833V30.5ZM103.833 21.1667H106.167V28.1667H103.833V21.1667Z" fill="white"/>
</svg>
