<svg width="44" height="55" viewBox="0 0 44 55" fill="none" xmlns="http://www.w3.org/2000/svg">
<path d="M27.2128 36.6391C26.7558 36.6391 26.2988 37.0546 26.2988 38.4463C26.2988 39.838 26.7558 40.2535 27.2128 40.2535C27.6698 40.2535 28.1268 39.838 28.1268 38.4463C28.1268 37.0545 27.6698 36.6391 27.2128 36.6391Z" fill="url(#paint0_linear)"/>
<path d="M16.5565 29.7842C16.0996 29.7842 15.6426 30.1997 15.6426 31.5914C15.6426 32.9831 16.0996 33.3986 16.5565 33.3986C17.0135 33.3986 17.4705 32.9831 17.4705 31.5914C17.4705 30.1997 17.0135 29.7842 16.5565 29.7842Z" fill="url(#paint1_linear)"/>
<path d="M37.6962 20.0401C33.1177 14.9833 30.3969 10.5319 28.9204 7.68795C27.3213 4.60755 26.7973 2.69741 26.7933 2.6822L26.3173 0.88269L24.6174 1.64094C24.4187 1.72951 19.7218 3.87147 17.0901 9.13489C15.769 11.7772 15.5047 14.7191 15.5158 16.7216C15.5223 17.887 14.6965 18.8989 13.5526 19.1277C12.7505 19.2879 11.9254 19.0386 11.3465 18.4597L8.18 15.2932L7.09071 16.7952C6.97765 16.9511 4.31559 20.6225 3.83095 21.356C1.46436 24.9385 0.23034 29.1116 0.262325 33.4244C0.305183 39.1844 2.57033 44.5808 6.64048 48.6198C10.7104 52.6585 16.1242 54.8827 21.8845 54.8827C33.8072 54.8826 43.5069 45.1828 43.5069 33.2601C43.507 28.9373 41.389 24.1188 37.6962 20.0401ZM27.2125 42.4968C25.0107 42.4968 23.3488 41.0428 23.3488 38.4463C23.3488 35.8706 25.0106 34.3956 27.2125 34.3956C29.4144 34.3956 31.0762 35.8705 31.0762 38.4463C31.0762 41.0428 29.4143 42.4968 27.2125 42.4968ZM25.0938 27.7485H28.6042L18.6751 42.289H15.1646L25.0938 27.7485ZM12.6928 31.5914C12.6928 29.0157 14.3545 27.5409 16.5564 27.5409C18.7584 27.5409 20.4201 29.0157 20.4201 31.5914C20.4201 34.1879 18.7584 35.642 16.5564 35.642C14.3545 35.642 12.6928 34.1879 12.6928 31.5914Z" fill="url(#paint2_linear)"/>
<defs>
<linearGradient id="paint0_linear" x1="27.2128" y1="36.6391" x2="27.2128" y2="40.2535" gradientUnits="userSpaceOnUse">
<stop stop-color="#FF4E4E"/>
<stop offset="1" stop-color="#FE8B4B"/>
</linearGradient>
<linearGradient id="paint1_linear" x1="16.5565" y1="29.7842" x2="16.5565" y2="33.3986" gradientUnits="userSpaceOnUse">
<stop stop-color="#FF4E4E"/>
<stop offset="1" stop-color="#FE8B4B"/>
</linearGradient>
<linearGradient id="paint2_linear" x1="21.8843" y1="0.88269" x2="21.8843" y2="54.8827" gradientUnits="userSpaceOnUse">
<stop stop-color="#FF4E4E"/>
<stop offset="1" stop-color="#FE8B4B"/>
</linearGradient>
</defs>
</svg>
