<svg width="132" height="136" viewBox="0 0 132 136" fill="none" xmlns="http://www.w3.org/2000/svg">
<path d="M21.3333 24H106.667C108.081 24 109.438 24.5619 110.438 25.5621C111.438 26.5623 112 27.9188 112 29.3333V66.6667H16V29.3333C16 27.9188 16.5619 26.5623 17.5621 25.5621C18.5623 24.5619 19.9188 24 21.3333 24ZM16 77.3333H112V114.667C112 116.081 111.438 117.438 110.438 118.438C109.438 119.438 108.081 120 106.667 120H21.3333C19.9188 120 18.5623 119.438 17.5621 118.438C16.5619 117.438 16 116.081 16 114.667V77.3333ZM37.3333 93.3333V104H53.3333V93.3333H37.3333ZM37.3333 40V50.6667H53.3333V40H37.3333Z" fill="url(#paint0_linear)" stroke="url(#paint1_linear)" stroke-width="2"/>
<path fill-rule="evenodd" clip-rule="evenodd" d="M110.744 46.3148C121.049 46.3148 129.402 37.9616 129.402 27.6574C129.402 17.3532 121.049 9 110.744 9C100.44 9 92.0869 17.3532 92.0869 27.6574C92.0869 37.9616 100.44 46.3148 110.744 46.3148Z" fill="#FF6B6B"/>
<path fill-rule="evenodd" clip-rule="evenodd" d="M91 27.5619C91 38.3593 99.7531 47.1124 110.551 47.1124C121.343 47.1001 130.089 38.3542 130.101 27.5619C130.101 16.7644 121.348 8.01135 110.551 8.01135C99.7531 8.01135 91 16.7644 91 27.5619ZM92.7854 27.5619C92.7854 17.7509 100.739 9.7976 110.55 9.7976V9.811C120.351 9.82083 128.297 17.7603 128.314 27.5619C128.314 37.3728 120.361 45.3261 110.55 45.3261C100.739 45.3261 92.7854 37.3728 92.7854 27.5619Z" fill="#372168"/>
<path d="M120.79 16.7461C120.684 16.7461 120.581 16.7081 120.5 16.6389C119.434 15.7289 118.267 14.9451 117.021 14.3034C116.802 14.19 116.716 13.9201 116.829 13.7006C116.943 13.4811 117.213 13.3951 117.432 13.5085C118.74 14.1811 119.964 15.0039 121.081 15.9602C121.223 16.0817 121.274 16.2789 121.209 16.4543C121.145 16.6297 120.977 16.7461 120.79 16.7461Z" fill="#372168"/>
<path d="M111.087 38.6667C104.644 38.6667 99.4204 33.4435 99.4204 27C99.4204 20.5565 104.644 15.3334 111.087 15.3334C117.531 15.3334 122.754 20.5565 122.754 27C122.754 33.4435 117.531 38.6667 111.087 38.6667ZM111.087 36.3334C113.562 36.3334 115.936 35.35 117.687 33.5997C119.437 31.8494 120.42 29.4754 120.42 27C120.42 24.5247 119.437 22.1507 117.687 20.4004C115.936 18.65 113.562 17.6667 111.087 17.6667C108.612 17.6667 106.238 18.65 104.487 20.4004C102.737 22.1507 101.754 24.5247 101.754 27C101.754 29.4754 102.737 31.8494 104.487 33.5997C106.238 35.35 108.612 36.3334 111.087 36.3334ZM109.92 30.5H112.254V32.8334H109.92V30.5ZM109.92 21.1667H112.254V28.1667H109.92V21.1667Z" fill="white"/>
<path d="M128.467 7.07356C128.259 7.07234 128.08 6.92812 128.034 6.72557C127.988 6.52302 128.088 6.3156 128.275 6.22509L130.709 5.07742C130.931 4.97205 131.196 5.06584 131.303 5.2873C131.354 5.39496 131.361 5.51886 131.321 5.6313C131.28 5.74375 131.197 5.83537 131.088 5.8857L128.659 7.03336C128.598 7.05942 128.533 7.07309 128.467 7.07356Z" fill="#372168"/>
<path d="M125.863 5.18907C125.774 5.18795 125.687 5.15995 125.613 5.10869C125.515 5.04246 125.447 4.9398 125.424 4.82334C125.402 4.70689 125.426 4.58622 125.493 4.48797L127.199 1.98275C127.339 1.78273 127.615 1.73298 127.816 1.87113C128.018 2.00928 128.071 2.28396 127.935 2.48737L126.23 4.99258C126.147 5.11434 126.01 5.18782 125.863 5.18907Z" fill="#372168"/>
<path d="M122.948 3.76452C122.701 3.76452 122.501 3.56459 122.501 3.31796V0.446563C122.501 0.199933 122.701 0 122.948 0C123.194 0 123.394 0.199933 123.394 0.446563V3.31796C123.394 3.56459 123.194 3.76452 122.948 3.76452Z" fill="#372168"/>
<defs>
<linearGradient id="paint0_linear" x1="64" y1="24" x2="64" y2="99" gradientUnits="userSpaceOnUse">
<stop stop-color="white"/>
<stop offset="1" stop-color="#9CA5D6" stop-opacity="0"/>
</linearGradient>
<linearGradient id="paint1_linear" x1="64" y1="24" x2="64" y2="120" gradientUnits="userSpaceOnUse">
<stop stop-color="#372168"/>
<stop offset="0.789128" stop-color="#372168" stop-opacity="0"/>
</linearGradient>
</defs>
</svg>
