<svg width="118" height="117" viewBox="0 0 118 117" fill="none" xmlns="http://www.w3.org/2000/svg">
<path d="M8.3335 108.667C8.3335 99.8261 11.8454 91.3476 18.0966 85.0964C24.3478 78.8452 32.8263 75.3333 41.6668 75.3333C50.5074 75.3333 58.9858 78.8452 65.2371 85.0964C71.4883 91.3476 75.0002 99.8261 75.0002 108.667H8.3335ZM41.6668 71.1666C27.8543 71.1666 16.6668 59.9791 16.6668 46.1666C16.6668 32.3541 27.8543 21.1666 41.6668 21.1666C55.4793 21.1666 66.6668 32.3541 66.6668 46.1666C66.6668 59.9791 55.4793 71.1666 41.6668 71.1666ZM72.346 80.4708C78.7195 82.1089 84.4138 85.716 88.6182 90.7784C92.8226 95.8409 95.3227 102.101 95.7627 108.667H83.3335C83.3335 97.7916 79.1668 87.8916 72.346 80.4708ZM63.9168 70.9875C67.4085 67.8644 70.2008 64.0389 72.1108 59.7614C74.0209 55.4839 75.0055 50.8512 75.0002 46.1666C75.009 40.4727 73.5526 34.8723 70.771 29.9041C75.4903 30.8524 79.7356 33.4057 82.7854 37.1299C85.8351 40.8542 87.5011 45.5197 87.5002 50.3333C87.5013 53.3019 86.8679 56.2365 85.6423 58.9403C84.4167 61.6441 82.6274 64.0547 80.3942 66.0106C78.1609 67.9664 75.5354 69.4223 72.6936 70.2806C69.8518 71.139 66.8594 71.38 63.9168 70.9875Z" fill="url(#paint0_linear)" stroke="url(#paint1_linear)" stroke-width="2"/>
<path fill-rule="evenodd" clip-rule="evenodd" d="M96.7443 46.3148C107.049 46.3148 115.402 37.9616 115.402 27.6574C115.402 17.3532 107.049 9 96.7443 9C86.4401 9 78.0869 17.3532 78.0869 27.6574C78.0869 37.9616 86.4401 46.3148 96.7443 46.3148Z" fill="#FF6B6B"/>
<path fill-rule="evenodd" clip-rule="evenodd" d="M77 27.5619C77 38.3593 85.7531 47.1124 96.5505 47.1124C107.343 47.1001 116.089 38.3542 116.101 27.5619C116.101 16.7644 107.348 8.01135 96.5505 8.01135C85.7531 8.01135 77 16.7644 77 27.5619ZM78.7854 27.5619C78.7854 17.7509 86.7387 9.7976 96.5497 9.7976V9.811C106.351 9.82083 114.297 17.7603 114.314 27.5619C114.314 37.3728 106.361 45.3261 96.5497 45.3261C86.7387 45.3261 78.7854 37.3728 78.7854 27.5619Z" fill="#372168"/>
<path d="M106.79 16.7461C106.684 16.7461 106.581 16.7081 106.5 16.6389C105.434 15.7289 104.267 14.9451 103.021 14.3034C102.802 14.19 102.716 13.9201 102.829 13.7006C102.943 13.4811 103.213 13.3951 103.432 13.5085C104.74 14.1811 105.964 15.0039 107.081 15.9602C107.223 16.0817 107.274 16.2789 107.209 16.4543C107.145 16.6297 106.977 16.7461 106.79 16.7461Z" fill="#372168"/>
<path d="M97.0871 38.6667C90.6436 38.6667 85.4204 33.4435 85.4204 27C85.4204 20.5565 90.6436 15.3334 97.0871 15.3334C103.531 15.3334 108.754 20.5565 108.754 27C108.754 33.4435 103.531 38.6667 97.0871 38.6667ZM97.0871 36.3334C99.5624 36.3334 101.936 35.35 103.687 33.5997C105.437 31.8494 106.42 29.4754 106.42 27C106.42 24.5247 105.437 22.1507 103.687 20.4004C101.936 18.65 99.5624 17.6667 97.0871 17.6667C94.6117 17.6667 92.2378 18.65 90.4874 20.4004C88.7371 22.1507 87.7537 24.5247 87.7537 27C87.7537 29.4754 88.7371 31.8494 90.4874 33.5997C92.2378 35.35 94.6117 36.3334 97.0871 36.3334ZM95.9204 30.5H98.2537V32.8334H95.9204V30.5ZM95.9204 21.1667H98.2537V28.1667H95.9204V21.1667Z" fill="white"/>
<path d="M114.467 7.07356C114.259 7.07234 114.08 6.92812 114.034 6.72557C113.988 6.52302 114.088 6.3156 114.275 6.22509L116.709 5.07742C116.931 4.97205 117.196 5.06584 117.303 5.2873C117.354 5.39496 117.361 5.51886 117.321 5.6313C117.28 5.74375 117.197 5.83537 117.088 5.8857L114.659 7.03336C114.598 7.05942 114.533 7.07309 114.467 7.07356Z" fill="#372168"/>
<path d="M111.863 5.18907C111.774 5.18795 111.687 5.15995 111.613 5.10869C111.515 5.04246 111.447 4.9398 111.424 4.82334C111.402 4.70689 111.426 4.58622 111.493 4.48797L113.199 1.98275C113.339 1.78273 113.615 1.73298 113.816 1.87113C114.018 2.00928 114.071 2.28396 113.935 2.48737L112.23 4.99258C112.147 5.11434 112.01 5.18782 111.863 5.18907Z" fill="#372168"/>
<path d="M108.948 3.76452C108.701 3.76452 108.501 3.56459 108.501 3.31796V0.446563C108.501 0.199933 108.701 0 108.948 0C109.194 0 109.394 0.199933 109.394 0.446563V3.31796C109.394 3.56459 109.194 3.76452 108.948 3.76452Z" fill="#372168"/>
<defs>
<linearGradient id="paint0_linear" x1="52.0481" y1="21.1666" x2="52" y2="101" gradientUnits="userSpaceOnUse">
<stop stop-color="white"/>
<stop offset="1" stop-color="#9CA5D6" stop-opacity="0"/>
</linearGradient>
<linearGradient id="paint1_linear" x1="52.0481" y1="21.1666" x2="52.0481" y2="108.667" gradientUnits="userSpaceOnUse">
<stop stop-color="#372168"/>
<stop offset="0.789128" stop-color="#372168" stop-opacity="0"/>
</linearGradient>
</defs>
</svg>
