<svg width="45" height="45" viewBox="0 0 45 45" fill="none" xmlns="http://www.w3.org/2000/svg">
<path d="M22.5 45C34.9264 45 45 34.9264 45 22.5C45 10.0736 34.9264 0 22.5 0C10.0736 0 0 10.0736 0 22.5C0 34.9264 10.0736 45 22.5 45Z" fill="url(#paint0_linear)"/>
<path d="M18.375 32.8125C17.646 32.8125 17.7699 32.5373 17.5185 31.8431L15.375 24.7888L31.875 15" fill="#C8DAEA"/>
<path d="M18.375 32.8125C18.9375 32.8125 19.1859 32.5553 19.5 32.25L22.5 29.3329L18.7579 27.0764" fill="#A9C9DD"/>
<path d="M18.7575 27.0769L27.825 33.7761C28.8598 34.347 29.6064 34.0513 29.8642 32.8155L33.5552 15.4224C33.933 13.9074 32.9777 13.2201 31.9877 13.6695L10.3146 22.0266C8.83518 22.62 8.84399 23.4454 10.0449 23.8131L15.6067 25.5491L28.4829 17.4257C29.0908 17.0571 29.6488 17.2551 29.1909 17.6616" fill="url(#paint1_linear)"/>
<defs>
<linearGradient id="paint0_linear" x1="30.015" y1="7.515" x2="18.765" y2="33.75" gradientUnits="userSpaceOnUse">
<stop stop-color="#37AEE2"/>
<stop offset="1" stop-color="#1E96C8"/>
</linearGradient>
<linearGradient id="paint1_linear" x1="25.3207" y1="22.5018" x2="28.8321" y2="30.5022" gradientUnits="userSpaceOnUse">
<stop stop-color="#EFF7FC"/>
<stop offset="1" stop-color="white"/>
</linearGradient>
</defs>
</svg>
