<svg width="18" height="20" viewBox="0 0 18 20" fill="none" xmlns="http://www.w3.org/2000/svg">
<path d="M3.74872 4.62019V14.5925L12.2952 9.60634L3.74872 4.62019ZM1.9799 0.308699L16.8731 8.99689C16.9799 9.05937 17.0684 9.14869 17.1299 9.25598C17.1914 9.36327 17.2238 9.48479 17.2238 9.60846C17.2238 9.73213 17.1914 9.85365 17.1299 9.96094C17.0684 10.0682 16.9799 10.1576 16.8731 10.22L1.9799 18.9082C1.87189 18.9713 1.74913 19.0046 1.62408 19.0048C1.49902 19.0051 1.37613 18.9722 1.26788 18.9096C1.15964 18.847 1.06988 18.7568 1.00774 18.6483C0.945604 18.5398 0.913288 18.4167 0.914077 18.2917V0.919564C0.91404 0.794873 0.946904 0.672379 1.00935 0.564451C1.0718 0.456523 1.16162 0.366983 1.26974 0.304871C1.37786 0.242759 1.50045 0.210274 1.62514 0.210697C1.74983 0.211121 1.87221 0.244437 1.9799 0.307281V0.308699Z" fill="white"/>
</svg>
