<svg width="127" height="34" viewBox="0 0 127 34" fill="none" xmlns="http://www.w3.org/2000/svg">
<path d="M36.0414 11H41.9414C43.4214 11 44.7347 11.2933 45.8814 11.88C47.0281 12.4667 47.9147 13.2933 48.5414 14.36C49.1814 15.4133 49.5014 16.6267 49.5014 18C49.5014 19.3733 49.1814 20.5933 48.5414 21.66C47.9147 22.7133 47.0281 23.5333 45.8814 24.12C44.7347 24.7067 43.4214 25 41.9414 25H36.0414V11ZM41.8214 23.26C42.9547 23.26 43.9481 23.04 44.8014 22.6C45.6681 22.16 46.3347 21.5467 46.8014 20.76C47.2681 19.96 47.5014 19.04 47.5014 18C47.5014 16.96 47.2681 16.0467 46.8014 15.26C46.3347 14.46 45.6681 13.84 44.8014 13.4C43.9481 12.96 42.9547 12.74 41.8214 12.74H38.0414V23.26H41.8214ZM56.8248 25.12C55.7715 25.12 54.8248 24.8867 53.9848 24.42C53.1448 23.9533 52.4848 23.3133 52.0048 22.5C51.5382 21.6733 51.3048 20.74 51.3048 19.7C51.3048 18.66 51.5382 17.7333 52.0048 16.92C52.4848 16.0933 53.1448 15.4533 53.9848 15C54.8248 14.5333 55.7715 14.3 56.8248 14.3C57.8782 14.3 58.8182 14.5333 59.6448 15C60.4848 15.4533 61.1382 16.0933 61.6048 16.92C62.0848 17.7333 62.3248 18.66 62.3248 19.7C62.3248 20.74 62.0848 21.6733 61.6048 22.5C61.1382 23.3133 60.4848 23.9533 59.6448 24.42C58.8182 24.8867 57.8782 25.12 56.8248 25.12ZM56.8248 23.44C57.5048 23.44 58.1115 23.2867 58.6448 22.98C59.1915 22.66 59.6182 22.22 59.9248 21.66C60.2315 21.0867 60.3848 20.4333 60.3848 19.7C60.3848 18.9667 60.2315 18.32 59.9248 17.76C59.6182 17.1867 59.1915 16.7467 58.6448 16.44C58.1115 16.1333 57.5048 15.98 56.8248 15.98C56.1448 15.98 55.5315 16.1333 54.9848 16.44C54.4515 16.7467 54.0248 17.1867 53.7048 17.76C53.3982 18.32 53.2448 18.9667 53.2448 19.7C53.2448 20.4333 53.3982 21.0867 53.7048 21.66C54.0248 22.22 54.4515 22.66 54.9848 22.98C55.5315 23.2867 56.1448 23.44 56.8248 23.44ZM69.6002 25.12C68.5202 25.12 67.5535 24.8867 66.7002 24.42C65.8602 23.9533 65.2002 23.3133 64.7202 22.5C64.2402 21.6733 64.0002 20.74 64.0002 19.7C64.0002 18.66 64.2402 17.7333 64.7202 16.92C65.2002 16.0933 65.8602 15.4533 66.7002 15C67.5535 14.5333 68.5202 14.3 69.6002 14.3C70.5602 14.3 71.4135 14.4933 72.1602 14.88C72.9202 15.2667 73.5068 15.8267 73.9202 16.56L72.4602 17.5C72.1268 16.9933 71.7135 16.6133 71.2202 16.36C70.7268 16.1067 70.1802 15.98 69.5802 15.98C68.8868 15.98 68.2602 16.1333 67.7002 16.44C67.1535 16.7467 66.7202 17.1867 66.4002 17.76C66.0935 18.32 65.9402 18.9667 65.9402 19.7C65.9402 20.4467 66.0935 21.1067 66.4002 21.68C66.7202 22.24 67.1535 22.6733 67.7002 22.98C68.2602 23.2867 68.8868 23.44 69.5802 23.44C70.1802 23.44 70.7268 23.3133 71.2202 23.06C71.7135 22.8067 72.1268 22.4267 72.4602 21.92L73.9202 22.84C73.5068 23.5733 72.9202 24.14 72.1602 24.54C71.4135 24.9267 70.5602 25.12 69.6002 25.12ZM82.5027 24.38C82.2227 24.62 81.876 24.8067 81.4627 24.94C81.0493 25.06 80.6227 25.12 80.1827 25.12C79.116 25.12 78.2893 24.8333 77.7027 24.26C77.116 23.6867 76.8227 22.8667 76.8227 21.8V15.98H75.0227V14.4H76.8227V12.08H78.7427V14.4H81.7827V15.98H78.7427V21.72C78.7427 22.2933 78.8827 22.7333 79.1627 23.04C79.456 23.3467 79.8693 23.5 80.4027 23.5C80.9893 23.5 81.4893 23.3333 81.9027 23L82.5027 24.38ZM86.6639 16.18C86.9972 15.5667 87.4906 15.1 88.1439 14.78C88.7972 14.46 89.5906 14.3 90.5239 14.3V16.16C90.4172 16.1467 90.2706 16.14 90.0839 16.14C89.0439 16.14 88.2239 16.4533 87.6239 17.08C87.0372 17.6933 86.7439 18.5733 86.7439 19.72V25H84.8239V14.4H86.6639V16.18ZM92.8903 14.4H94.8103V25H92.8903V14.4ZM93.8503 12.36C93.477 12.36 93.1636 12.24 92.9103 12C92.6703 11.76 92.5503 11.4667 92.5503 11.12C92.5503 10.7733 92.6703 10.48 92.9103 10.24C93.1636 9.98667 93.477 9.86 93.8503 9.86C94.2236 9.86 94.5303 9.98 94.7703 10.22C95.0236 10.4467 95.1503 10.7333 95.1503 11.08C95.1503 11.44 95.0236 11.7467 94.7703 12C94.5303 12.24 94.2236 12.36 93.8503 12.36ZM104.136 14.3C105.483 14.3 106.55 14.6933 107.336 15.48C108.136 16.2533 108.536 17.3933 108.536 18.9V25H106.616V19.12C106.616 18.0933 106.37 17.32 105.876 16.8C105.383 16.28 104.676 16.02 103.756 16.02C102.716 16.02 101.896 16.3267 101.296 16.94C100.696 17.54 100.396 18.4067 100.396 19.54V25H98.4763V14.4H100.316V16C100.703 15.4533 101.223 15.0333 101.876 14.74C102.543 14.4467 103.296 14.3 104.136 14.3ZM121.728 19.76C121.728 19.9067 121.715 20.1 121.688 20.34H113.088C113.208 21.2733 113.615 22.0267 114.308 22.6C115.015 23.16 115.888 23.44 116.928 23.44C118.195 23.44 119.215 23.0133 119.988 22.16L121.048 23.4C120.568 23.96 119.968 24.3867 119.248 24.68C118.541 24.9733 117.748 25.12 116.868 25.12C115.748 25.12 114.755 24.8933 113.888 24.44C113.021 23.9733 112.348 23.3267 111.868 22.5C111.401 21.6733 111.168 20.74 111.168 19.7C111.168 18.6733 111.395 17.7467 111.848 16.92C112.315 16.0933 112.948 15.4533 113.748 15C114.561 14.5333 115.475 14.3 116.488 14.3C117.501 14.3 118.401 14.5333 119.188 15C119.988 15.4533 120.608 16.0933 121.048 16.92C121.501 17.7467 121.728 18.6933 121.728 19.76ZM116.488 15.92C115.568 15.92 114.795 16.2 114.168 16.76C113.555 17.32 113.195 18.0533 113.088 18.96H119.888C119.781 18.0667 119.415 17.34 118.788 16.78C118.175 16.2067 117.408 15.92 116.488 15.92Z" fill="#1A1A1A"/>
<path d="M124.854 25.12C124.481 25.12 124.161 24.9933 123.894 24.74C123.628 24.4733 123.494 24.14 123.494 23.74C123.494 23.3533 123.628 23.0333 123.894 22.78C124.161 22.5133 124.481 22.38 124.854 22.38C125.228 22.38 125.541 22.5067 125.794 22.76C126.048 23.0133 126.174 23.34 126.174 23.74C126.174 24.14 126.041 24.4733 125.774 24.74C125.521 24.9933 125.214 25.12 124.854 25.12Z" fill="#7A76FF"/>
<g clip-path="url(#clip0)">
<path d="M13.7904 25.1331C12.2037 25.7842 10.4244 25.7842 8.83778 25.1331C8.1867 23.5465 8.1867 21.7672 8.83778 20.1806L10.4358 21.7786C10.3206 22.3549 10.3192 22.9517 10.4351 23.5358C11.0185 23.6525 11.616 23.6503 12.193 23.5358L13.7904 25.1331ZM19.2301 23.2261L19.0406 26.244L17.678 27.6066L6.36432 16.2929L7.72691 14.9303L10.7448 14.7408L14.8496 10.636C17.3125 8.17318 21.1789 7.84792 24.4274 9.54356C26.123 12.792 25.7977 16.6585 23.3349 19.1213L19.2301 23.2261ZM17.1618 24.262L17.282 22.3457L21.9207 17.7071C23.5597 16.068 23.943 13.4645 22.9248 11.0462C20.5065 10.0279 17.9036 10.4105 16.2638 12.0503L11.6252 16.6889L9.70893 16.8091L17.1618 24.262ZM17.678 16.2929C17.303 15.9178 17.0922 15.4091 17.0922 14.8787C17.0922 14.3482 17.303 13.8395 17.678 13.4645C18.0531 13.0894 18.5618 12.8787 19.0922 12.8787C19.6227 12.8787 20.1314 13.0894 20.5065 13.4645C20.8815 13.8395 21.0922 14.3482 21.0922 14.8787C21.0922 15.4091 20.8815 15.9178 20.5065 16.2929C20.1314 16.668 19.6227 16.8787 19.0922 16.8787C18.5618 16.8787 18.0531 16.668 17.678 16.2929Z" fill="#7A76FF"/>
</g>
<defs>
<clipPath id="clip0">
<rect width="24" height="24" fill="white" transform="translate(16.9707 0.0294342) rotate(45)"/>
</clipPath>
</defs>
</svg>
