<svg width="28" height="28" viewBox="0 0 28 28" fill="none" xmlns="http://www.w3.org/2000/svg">
<path d="M10.7904 22.1332C9.20369 22.7842 7.42444 22.7842 5.83778 22.1332C5.1867 20.5465 5.1867 18.7672 5.83778 17.1806L7.43584 18.7786C7.32058 19.3549 7.31917 19.9517 7.43513 20.5358C8.0185 20.6525 8.616 20.6504 9.193 20.5358L10.7904 22.1332ZM16.2301 20.2261L16.0406 23.244L14.678 24.6066L3.36432 13.2929L4.72691 11.9303L7.74485 11.7408L11.8496 7.63605C14.3125 5.1732 18.1789 4.84793 21.4274 6.54357C23.123 9.79202 22.7977 13.6585 20.3349 16.1213L16.2301 20.2261ZM14.1618 21.262L14.282 19.3457L18.9207 14.7071C20.5597 13.068 20.943 10.4645 19.9248 8.04617C17.5065 7.02794 14.9036 7.41049 13.2638 9.05027L8.62519 13.6889L6.70893 13.8091L14.1618 21.262ZM14.678 13.2929C14.303 12.9178 14.0922 12.4091 14.0922 11.8787C14.0922 11.3483 14.303 10.8396 14.678 10.4645C15.0531 10.0894 15.5618 9.87869 16.0922 9.87869C16.6227 9.87869 17.1314 10.0894 17.5065 10.4645C17.8815 10.8396 18.0922 11.3483 18.0922 11.8787C18.0922 12.4091 17.8815 12.9178 17.5065 13.2929C17.1314 13.668 16.6227 13.8787 16.0922 13.8787C15.5618 13.8787 15.0531 13.668 14.678 13.2929Z" fill="#7A76FF"/>
</svg>
