<?xml version="1.0" encoding="utf-8"?><svg viewBox="0 0 19 22" xmlns="http://www.w3.org/2000/svg" xmlns:xlink="http://www.w3.org/1999/xlink"><style>:root>svg{display:none}:root>svg:target{display:block}</style><svg viewBox="0 0 12 12" id="ic_course" xmlns="http://www.w3.org/2000/svg"><path d="M11.25 1.333H3.083a1.167 1.167 0 0 0 0 2.334h8.167v7.583a.583.583 0 0 1-.583.583H3.083A2.333 2.333 0 0 1 .75 9.5v-7A2.333 2.333 0 0 1 3.083.167h7.584a.583.583 0 0 1 .583.583v.583zM1.917 9.5a1.167 1.167 0 0 0 1.166 1.167h7V4.833h-7c-.41.001-.812-.107-1.166-.312V9.5zm8.75-6.417H3.083a.583.583 0 0 1 0-1.166h7.584v1.166z"/></svg><svg viewBox="0 0 18 18" id="ic_courses_lessons" xmlns="http://www.w3.org/2000/svg"><path d="M9.834 15.5v1.667H8.167V15.5H1.5a.833.833 0 0 1-.833-.833V1.333A.833.833 0 0 1 1.5.5h5A3.325 3.325 0 0 1 9 1.628 3.325 3.325 0 0 1 11.5.5h5a.833.833 0 0 1 .834.833v13.334a.833.833 0 0 1-.834.833H9.834zm5.833-1.667V2.167H11.5a1.667 1.667 0 0 0-1.666 1.666v10h5.833zm-7.5 0v-10A1.667 1.667 0 0 0 6.5 2.167H2.334v11.666h5.833z"/></svg><svg viewBox="0 0 18 18" id="ic_integration" xmlns="http://www.w3.org/2000/svg"><path d="M1.784 13.167a8.347 8.347 0 0 1-.815-1.939A2.5 2.5 0 0 0 .97 6.772a8.325 8.325 0 0 1 2.085-3.614A2.5 2.5 0 0 0 6.914.93a8.325 8.325 0 0 1 4.172.002 2.5 2.5 0 0 0 3.86 2.226c.483.492.911 1.051 1.271 1.675.36.624.63 1.275.815 1.939a2.5 2.5 0 0 0-.002 4.455 8.324 8.324 0 0 1-2.084 3.615 2.5 2.5 0 0 0-3.859 2.228 8.326 8.326 0 0 1-4.172-.002 2.5 2.5 0 0 0-3.86-2.226 8.346 8.346 0 0 1-1.271-1.675zm4.716.163a4.161 4.161 0 0 1 1.875 2.308c.416.04.834.04 1.25.001a4.161 4.161 0 0 1 1.875-2.308 4.16 4.16 0 0 1 2.938-.471c.242-.34.45-.702.623-1.082A4.16 4.16 0 0 1 14.001 9c0-1.05.391-2.03 1.06-2.778a6.776 6.776 0 0 0-.625-1.082 4.161 4.161 0 0 1-2.936-.47 4.16 4.16 0 0 1-1.875-2.308 6.654 6.654 0 0 0-1.249-.001A4.16 4.16 0 0 1 6.5 4.669a4.16 4.16 0 0 1-2.937.471c-.241.34-.45.702-.623 1.082A4.16 4.16 0 0 1 4 9c0 1.05-.391 2.03-1.06 2.778.174.38.383.741.625 1.082a4.16 4.16 0 0 1 2.935.47zM9 11.5a2.5 2.5 0 1 1 0-5 2.5 2.5 0 0 1 0 5zm0-1.667a.833.833 0 1 0 0-1.666.833.833 0 0 0 0 1.666z"/></svg><svg viewBox="0 0 12 13" id="ic_lesson" xmlns="http://www.w3.org/2000/svg"><path d="M3.766 1.75A1.75 1.75 0 0 1 5.417.583h1.167c.761 0 1.41.487 1.65 1.167h3.016a.583.583 0 0 1 .584.583v9.334a.583.583 0 0 1-.584.583H.75a.583.583 0 0 1-.583-.583V2.333A.583.583 0 0 1 .75 1.75h3.016zM1.334 2.917v8.166h9.333V2.917H8.234a1.75 1.75 0 0 1-1.65 1.166H5.417a1.75 1.75 0 0 1-1.65-1.166H1.333zM5.417 1.75a.583.583 0 1 0 0 1.167h1.167a.583.583 0 0 0 0-1.167H5.417zm-.583 3.5L7.75 7 4.834 8.75v-3.5z"/></svg><svg viewBox="0 0 16 18" id="ic_note" xmlns="http://www.w3.org/2000/svg"><path d="M3.783 10.697c-.194.52-.358 1-.505 1.486.8-.581 1.751-.95 2.849-1.087 2.094-.262 3.955-1.644 4.896-3.382L9.81 6.502l1.178-1.18.833-.834c.358-.358.762-1.02 1.19-1.973-4.661.723-7.515 3.577-9.228 8.182zM12.167 6.5l.833.832c-.833 2.5-3.333 5-6.667 5.417-2.224.278-3.613 1.806-4.168 4.583H.5c.833-5 2.5-16.666 15-16.666-.833 2.497-1.665 4.163-2.498 4.997l-.835.837z"/></svg><svg viewBox="0 0 19 22" id="ic_profile" xmlns="http://www.w3.org/2000/svg"><path d="M8 13v2a6 6 0 0 0-6 6H0a8 8 0 0 1 8-8zm0-1c-3.315 0-6-2.685-6-6s2.685-6 6-6 6 2.685 6 6-2.685 6-6 6zm0-2c2.21 0 4-1.79 4-4s-1.79-4-4-4-4 1.79-4 4 1.79 4 4 4zm2.595 7.812a3.51 3.51 0 0 1 0-1.623l-.992-.573 1-1.732.992.573c.398-.377.88-.655 1.405-.812V12.5h2v1.145c.532.158 1.012.44 1.405.812l.992-.573 1 1.732-.992.573a3.511 3.511 0 0 1 0 1.622l.992.573-1 1.732-.992-.573c-.398.377-.88.655-1.405.812V21.5h-2v-1.145a3.497 3.497 0 0 1-1.405-.812l-.992.573-1-1.732.992-.572zM14 18.5a1.5 1.5 0 1 0 0-3 1.5 1.5 0 0 0 0 3z"/></svg><svg viewBox="0 0 18 19" id="ic_tariffs" xmlns="http://www.w3.org/2000/svg"><path d="M2.334 12.333v-10H.667V.667h2.5A.833.833 0 0 1 4 1.5v10h10.365l1.667-6.667H5.667V3.167H17.1a.833.833 0 0 1 .809 1.035l-2.084 8.334a.833.833 0 0 1-.808.63H3.167a.833.833 0 0 1-.833-.833zM4 18.167a1.667 1.667 0 1 1 0-3.333 1.667 1.667 0 0 1 0 3.333zm10 0a1.667 1.667 0 1 1 0-3.334 1.667 1.667 0 0 1 0 3.334z"/></svg><svg viewBox="0 0 19 19" id="ic_users" xmlns="http://www.w3.org/2000/svg"><path d="M.667 18.333a6.667 6.667 0 1 1 13.333 0h-1.666a5 5 0 0 0-10 0H.667zm6.667-7.5c-2.763 0-5-2.237-5-5 0-2.762 2.237-5 5-5 2.762 0 5 2.238 5 5 0 2.763-2.238 5-5 5zm0-1.666a3.332 3.332 0 1 0 0-6.667 3.332 3.332 0 1 0 0 6.667zm6.903 3.085a6.668 6.668 0 0 1 3.93 6.081H16.5a5 5 0 0 0-2.947-4.56l.683-1.52h.001zm-.573-9.408a4.584 4.584 0 0 1-1.33 8.804V9.971a2.917 2.917 0 0 0 .867-5.508l.463-1.619z"/></svg></svg>