<?xml version="1.0" encoding="utf-8"?><svg viewBox="0 0 54 60" xmlns="http://www.w3.org/2000/svg" xmlns:xlink="http://www.w3.org/1999/xlink"><style>:root>svg{display:none}:root>svg:target{display:block}</style><svg viewBox="0 0 12 12" id="ic_access" xmlns="http://www.w3.org/2000/svg"><path d="M3.083 4.833h7.584a.583.583 0 0 1 .583.584v5.833a.583.583 0 0 1-.583.583H1.333a.583.583 0 0 1-.583-.583V5.417a.583.583 0 0 1 .583-.584h.584V4.25a4.083 4.083 0 0 1 7.736-1.826l-1.044.521A2.917 2.917 0 0 0 3.083 4.25v.583zM1.917 6v4.667h8.166V6H1.917zm2.916 1.75h2.334v1.167H4.833V7.75z"/></svg><svg viewBox="0 0 12 12" id="ic_access2" xmlns="http://www.w3.org/2000/svg"><path d="M10.083 4.833h.584a.583.583 0 0 1 .583.583v5.834a.583.583 0 0 1-.583.583H1.333a.583.583 0 0 1-.583-.583V5.417a.583.583 0 0 1 .583-.584h.584V4.25a4.084 4.084 0 0 1 8.166 0v.583zM1.917 6v4.666h8.166V6H1.917zm3.5 1.167h1.166V9.5H5.417V7.167zm3.5-2.334V4.25a2.917 2.917 0 1 0-5.834 0v.583h5.834z"/></svg><svg viewBox="0 0 22 16" id="ic_add_video" xmlns="http://www.w3.org/2000/svg"><path d="M15 0a1 1 0 0 1 1 1v4.2l5.213-3.65a.5.5 0 0 1 .787.41v12.08a.5.5 0 0 1-.787.41L16 10.8V15a1 1 0 0 1-1 1H1a1 1 0 0 1-1-1V1a1 1 0 0 1 1-1h14zm-1 2H2v12h12V2zM7 4h2v3h3v2H8.999L9 12H7l-.001-3H4V7h3V4zm13 .841l-4 2.8v.718l4 2.8V4.84v.001z"/></svg><svg viewBox="0 0 12 12" id="ic_android" xmlns="http://www.w3.org/2000/svg"><path d="M2.723 1.315A5.228 5.228 0 0 1 6 .167c1.24 0 2.379.429 3.277 1.148l.848-.848.825.825-.848.847a5.228 5.228 0 0 1 1.148 3.278V6H.75v-.583c0-1.24.43-2.38 1.148-3.277l-.848-.848.825-.824.848.847zM.75 7.167h10.5v4.083a.583.583 0 0 1-.583.583H1.333a.583.583 0 0 1-.583-.583V7.167zm3.5-2.917a.583.583 0 1 0 0-1.167.583.583 0 0 0 0 1.167zm3.5 0a.583.583 0 1 0 0-1.167.583.583 0 0 0 0 1.167z"/></svg><svg viewBox="0 0 20 18" id="ic_api" xmlns="http://www.w3.org/2000/svg"><path d="M2 15v-3.7A1.5 1.5 0 0 0 .5 9.8H0V8.2h.5A1.5 1.5 0 0 0 2 6.7V3a3 3 0 0 1 3-3h1v2H5a1 1 0 0 0-1 1v4.1A2 2 0 0 1 2.626 9 2 2 0 0 1 4 10.9V15a1 1 0 0 0 1 1h1v2H5a3 3 0 0 1-3-3zm16-3.7V15a3 3 0 0 1-3 3h-1v-2h1a1 1 0 0 0 1-1v-4.1A2 2 0 0 1 17.374 9 2 2 0 0 1 16 7.1V3a1 1 0 0 0-1-1h-1V0h1a3 3 0 0 1 3 3v3.7a1.5 1.5 0 0 0 1.5 1.5h.5v1.6h-.5a1.5 1.5 0 0 0-1.5 1.5z"/></svg><svg viewBox="0 0 11 14" id="ic_apple" xmlns="http://www.w3.org/2000/svg"><path d="M5.78 4.213c-.51 0-1.301-.581-2.134-.56-1.1.014-2.107.637-2.674 1.624-1.141 1.98-.294 4.907.819 6.517.546.784 1.19 1.666 2.044 1.638.819-.035 1.127-.532 2.12-.532.988 0 1.268.532 2.136.51.882-.013 1.442-.797 1.98-1.588.624-.91.883-1.792.897-1.841-.021-.007-1.715-.658-1.736-2.618-.014-1.638 1.337-2.422 1.4-2.457-.77-1.127-1.953-1.253-2.366-1.281-1.078-.084-1.981.588-2.485.588zM7.6 2.56c.456-.546.757-1.31.673-2.065-.651.028-1.435.434-1.904.98-.42.483-.784 1.26-.686 2.002.72.056 1.463-.371 1.918-.917z"/></svg><svg viewBox="0 0 12 7" id="ic_back" xmlns="http://www.w3.org/2000/svg"><path d="M3.494 0l.998.998-1.79 1.79H12V4.2H2.702l1.79 1.79-.998.998L0 3.494 3.494 0z"/></svg><svg viewBox="0 0 12 13" id="ic_chats" xmlns="http://www.w3.org/2000/svg"><path d="M2.765 10.083L.167 12.125V1.333A.583.583 0 0 1 .75.75h10.5a.583.583 0 0 1 .583.583V9.5a.583.583 0 0 1-.583.583H2.765zm-.403-1.166h8.305v-7H1.333v7.808l1.029-.808zm3.055-4.084h1.166V6H5.417V4.833zm-2.334 0H4.25V6H3.083V4.833zm4.667 0h1.167V6H7.75V4.833z"/></svg><svg viewBox="0 0 10 8" id="ic_check" xmlns="http://www.w3.org/2000/svg"><path d="M3.875 5.784l5.17-5.17.796.795-5.966 5.966-3.58-3.58L1.09 3l2.785 2.784z"/></svg><svg viewBox="0 0 16 16" id="ic_comment" xmlns="http://www.w3.org/2000/svg"><path d="M4.468 14.618L.5 15.5l.882-3.968a7.5 7.5 0 1 1 3.086 3.086zm.218-1.585l.49.263a6 6 0 1 0-2.47-2.471l.26.49-.49 2.21 2.21-.492zM4.25 8h1.5a2.25 2.25 0 1 0 4.5 0h1.5a3.75 3.75 0 0 1-7.5 0z"/></svg><svg viewBox="0 0 14 14" id="ic_completed" xmlns="http://www.w3.org/2000/svg"><path d="M7 13.667A6.667 6.667 0 1 1 7 .333a6.667 6.667 0 0 1 0 13.334zm0-1.334A5.334 5.334 0 1 0 7 1.665a5.334 5.334 0 0 0 0 10.668zm-.665-2.666l-2.828-2.83.942-.942 1.886 1.886 3.77-3.771.944.943-4.714 4.714z"/></svg><svg viewBox="0 0 16 15" id="ic_computer" xmlns="http://www.w3.org/2000/svg"><path d="M2 10h12V1.75H2V10zm6.75 1.5V13h3v1.5h-7.5V13h3v-1.5H1.244a.749.749 0 0 1-.744-.755v-9.74C.5.588.841.25 1.244.25h13.512c.411 0 .744.337.744.755v9.74a.755.755 0 0 1-.744.755H8.75z"/></svg><svg viewBox="0 0 16 16" id="ic_copy" xmlns="http://www.w3.org/2000/svg"><path d="M8.795 5.082l1.061 1.062a5.25 5.25 0 0 1 0 7.425l-.265.264a5.25 5.25 0 1 1-7.425-7.425L3.227 7.47a3.75 3.75 0 1 0 5.303 5.303l.266-.265a3.75 3.75 0 0 0 0-5.303L7.734 6.144l1.062-1.06-.001-.002zm5.038 4.509l-1.06-1.06A3.75 3.75 0 1 0 7.47 3.226l-.266.265a3.75 3.75 0 0 0 0 5.303l1.061 1.061-1.06 1.06-1.061-1.06a5.25 5.25 0 0 1 0-7.425l.265-.265a5.25 5.25 0 1 1 7.425 7.425z"/></svg><svg viewBox="0 0 12 12" id="ic_copy2" xmlns="http://www.w3.org/2000/svg"><path d="M3.083 2.5V.75a.583.583 0 0 1 .584-.583h7a.583.583 0 0 1 .583.583v8.167a.583.583 0 0 1-.583.583h-1.75v1.75a.585.585 0 0 1-.588.583H1.337a.585.585 0 0 1-.587-.583l.002-8.167c0-.322.262-.583.587-.583h1.744zM1.918 3.667l-.001 7H7.75v-7H1.918zM4.25 2.5h4.667v5.833h1.166v-7H4.25V2.5z"/></svg><svg viewBox="0 0 12 12" id="ic_course" xmlns="http://www.w3.org/2000/svg"><path d="M11.25 1.333H3.083a1.167 1.167 0 0 0 0 2.334h8.167v7.583a.583.583 0 0 1-.583.583H3.083A2.333 2.333 0 0 1 .75 9.5v-7A2.333 2.333 0 0 1 3.083.167h7.584a.583.583 0 0 1 .583.583v.583zM1.917 9.5a1.167 1.167 0 0 0 1.166 1.167h7V4.833h-7c-.41.001-.812-.107-1.166-.312V9.5zm8.75-6.417H3.083a.583.583 0 0 1 0-1.166h7.584v1.166z"/></svg><svg viewBox="0 0 16 16" id="ic_delete" xmlns="http://www.w3.org/2000/svg"><path d="M12 3.2h4v1.6h-1.6v10.4a.8.8 0 0 1-.8.8H2.4a.8.8 0 0 1-.8-.8V4.8H0V3.2h4V.8a.8.8 0 0 1 .8-.8h6.4a.8.8 0 0 1 .8.8v2.4zm.8 1.6H3.2v9.6h9.6V4.8zM5.6 7.2h1.6V12H5.6V7.2zm3.2 0h1.6V12H8.8V7.2zM5.6 1.6v1.6h4.8V1.6H5.6z"/></svg><svg viewBox="0 0 14 14" id="ic_discount" xmlns="http://www.w3.org/2000/svg"><path d="M11.125 13.75a2.625 2.625 0 1 1 0-5.25 2.625 2.625 0 0 1 0 5.25zm0-1.5a1.125 1.125 0 1 0 0-2.25 1.125 1.125 0 0 0 0 2.25zM2.875 5.5a2.625 2.625 0 1 1 0-5.25 2.625 2.625 0 0 1 0 5.25zm0-1.5a1.125 1.125 0 1 0 0-2.25 1.125 1.125 0 0 0 0 2.25zM12.303.636l1.06 1.06L1.699 13.365l-1.061-1.06L12.302.635h.001z"/></svg><svg viewBox="0 0 20 20" id="ic_doctrine" xmlns="http://www.w3.org/2000/svg"><path d="M17 20H3a3 3 0 0 1-3-3V1a1 1 0 0 1 1-1h14a1 1 0 0 1 1 1v12h4v4a3 3 0 0 1-3 3zm-1-5v2a1 1 0 0 0 2 0v-2h-2zm-2 3V2H2v15a1 1 0 0 0 1 1h11zM4 5h8v2H4V5zm0 4h8v2H4V9zm0 4h5v2H4v-2z"/></svg><svg viewBox="0 0 18 22" id="ic_doctrine2" xmlns="http://www.w3.org/2000/svg"><path d="M14 2h3a1 1 0 0 1 1 1v18a1 1 0 0 1-1 1H1a1 1 0 0 1-1-1V3a1 1 0 0 1 1-1h3V0h2v2h6V0h2v2zm0 2v2h-2V4H6v2H4V4H2v16h14V4h-2zM4 8h10v2H4V8zm0 4h10v2H4v-2z"/></svg><svg viewBox="0 0 18 16" id="ic_download" xmlns="http://www.w3.org/2000/svg"><path d="M9.75 8.75v4.189l1.371-1.371 1.061 1.061L9 15.81 5.818 12.63l1.061-1.061 1.371 1.37V8.75h1.5zM9 .5a5.25 5.25 0 0 1 5.216 4.646 4.125 4.125 0 0 1-.715 8.087v-1.51a2.624 2.624 0 1 0-.834-5.183 3.75 3.75 0 1 0-7.333 0 2.625 2.625 0 0 0-.969 5.16l.135.023v1.51a4.125 4.125 0 0 1-.715-8.088A5.25 5.25 0 0 1 9 .5z"/></svg><svg viewBox="0 0 16 16" id="ic_edit" xmlns="http://www.w3.org/2000/svg"><path d="M10.983 6.149L9.852 5.018l-7.451 7.45V13.6h1.131l7.451-7.451zm1.131-1.131l1.132-1.132-1.132-1.13-1.13 1.13 1.13 1.132zM4.194 15.2H.801v-3.394L11.549 1.058a.8.8 0 0 1 1.131 0l2.263 2.263a.8.8 0 0 1 0 1.131L4.195 15.2z"/></svg><svg viewBox="0 0 14 14" id="ic_email" xmlns="http://www.w3.org/2000/svg"><path d="M12.333 7a5.333 5.333 0 1 0-2.375 4.438l.74 1.11A6.667 6.667 0 1 1 13.666 7v.999a2.333 2.333 0 0 1-4.264 1.31A3.334 3.334 0 1 1 9 4.334h1.333V8a1 1 0 0 0 2 0V7zM7 5a2 2 0 1 0 0 4 2 2 0 0 0 0-4z"/></svg><svg viewBox="0 0 20 18" id="ic_feedback" xmlns="http://www.w3.org/2000/svg"><path d="M1 0h18a1 1 0 0 1 1 1v16a1 1 0 0 1-1 1H1a1 1 0 0 1-1-1V1a1 1 0 0 1 1-1zm17 4.238l-7.928 7.1L2 4.216V16h16V4.238zM2.511 2l7.55 6.662L17.502 2H2.511z"/></svg><svg viewBox="0 0 14 15" id="ic_file" xmlns="http://www.w3.org/2000/svg"><path d="M9.121 4.818L4.879 9.06a.75.75 0 1 0 1.06 1.06l4.243-4.241A2.25 2.25 0 1 0 7 2.697L2.757 6.939a3.75 3.75 0 1 0 5.303 5.303L12.303 8l1.06 1.06-4.242 4.243a5.252 5.252 0 0 1-7.425-7.425l4.243-4.242a3.75 3.75 0 0 1 5.303 5.303L7 11.183A2.25 2.25 0 1 1 3.818 8L8.06 3.757l1.061 1.06z"/></svg><svg viewBox="0 0 14 16" id="ic_files" xmlns="http://www.w3.org/2000/svg"><path d="M13 15.5H1a.75.75 0 0 1-.75-.75V1.25A.75.75 0 0 1 1 .5h12a.75.75 0 0 1 .75.75v13.5a.75.75 0 0 1-.75.75zm-.75-1.5V2H1.75v12h10.5zM4 5.75h6v1.5H4v-1.5zm0 3h6v1.5H4v-1.5z"/></svg><svg viewBox="0 0 14 10" id="ic_free_videos" xmlns="http://www.w3.org/2000/svg"><path d="M9.333.333a.583.583 0 0 1 .583.584v2.45l3.041-2.13a.292.292 0 0 1 .46.24v7.046a.291.291 0 0 1-.46.24l-3.04-2.13v2.45a.583.583 0 0 1-.584.584H1.166a.583.583 0 0 1-.583-.584V.917a.583.583 0 0 1 .583-.584h8.167zM8.75 1.5h-7v7h7v-7zM4.316 3.15c.045 0 .088.013.126.036l2.54 1.617a.233.233 0 0 1 0 .394l-2.54 1.617a.233.233 0 0 1-.359-.198V3.384c0-.129.105-.233.233-.233zm7.934.007L9.916 4.79v.419l2.334 1.633V3.157z"/></svg><svg viewBox="0 0 18 19" id="ic_home" xmlns="http://www.w3.org/2000/svg"><path d="M18 18a1 1 0 0 1-1 1H1a1 1 0 0 1-1-1V7.49a1 1 0 0 1 .386-.79l8-6.222a1 1 0 0 1 1.228 0l8 6.222a1 1 0 0 1 .386.79V18zm-2-1V7.978L9 2.534 2 7.978V17h14zM4 13h10v2H4v-2z"/></svg><svg viewBox="0 0 12 12" id="ic_image" xmlns="http://www.w3.org/2000/svg"><path d="M1.816 11.328l-.011.012-.012-.012H.745a.579.579 0 0 1-.578-.579V1.408a.583.583 0 0 1 .578-.58h10.51c.32 0 .579.26.579.58v9.341a.584.584 0 0 1-.58.58H1.817zm8.85-3.5V1.995H1.334v8.167l5.834-5.834 3.5 3.5zm0 1.65l-3.5-3.5-4.183 4.184h7.684v-.684zm-7-3.983a1.167 1.167 0 1 1 0-2.333 1.167 1.167 0 0 1 0 2.333z"/></svg><svg viewBox="0 0 18 10" id="ic_infinity" xmlns="http://www.w3.org/2000/svg"><path d="M13.95.969c-1.08 0-2.1.42-2.831 1.151L9 3.995l-.004-.004L7.86 4.992 7.867 5l-2.02 1.792a2.533 2.533 0 0 1-1.797.74A2.54 2.54 0 0 1 1.508 5 2.54 2.54 0 0 1 4.05 2.469c.679 0 1.316.262 1.83.772l.851.754 1.133-1.001-.949-.84A4.034 4.034 0 0 0 4.05.973C1.815.969 0 2.776 0 5s1.815 4.031 4.05 4.031a4.02 4.02 0 0 0 2.831-1.147L9 6.005l.004.004 1.132-1.005L10.133 5l2.02-1.789a2.521 2.521 0 0 1 1.797-.742A2.54 2.54 0 0 1 16.493 5a2.54 2.54 0 0 1-2.543 2.531 2.574 2.574 0 0 1-1.83-.768l-.851-.754-1.133 1.005.949.84a4.028 4.028 0 0 0 2.861 1.177C16.185 9.031 18 7.224 18 5 18 2.776 16.185.969 13.95.969z"/></svg><svg viewBox="0 0 20 20" id="ic_instagram" xmlns="http://www.w3.org/2000/svg"><path d="M10 7a3 3 0 1 0 0 6 3 3 0 0 0 0-6zm0-2a5 5 0 1 1 0 10 5 5 0 0 1 0-10zm6.5-.25a1.25 1.25 0 1 1-2.5 0 1.25 1.25 0 0 1 2.5 0zM10 2c-2.474 0-2.878.007-4.029.058-.784.037-1.31.142-1.798.332a2.886 2.886 0 0 0-1.08.703 2.89 2.89 0 0 0-.704 1.08c-.19.49-.295 1.015-.331 1.798C2.006 7.075 2 7.461 2 10c0 2.474.007 2.878.058 4.029.037.783.142 1.31.331 1.797.17.435.37.748.702 1.08.337.336.65.537 1.08.703.494.191 1.02.297 1.8.333C7.075 17.994 7.461 18 10 18c2.474 0 2.878-.007 4.029-.058.782-.037 1.309-.142 1.797-.331a2.92 2.92 0 0 0 1.08-.702c.337-.337.538-.65.704-1.08.19-.493.296-1.02.332-1.8.052-1.104.058-1.49.058-4.029 0-2.474-.007-2.878-.058-4.029-.037-.782-.142-1.31-.332-1.798a2.91 2.91 0 0 0-.703-1.08 2.884 2.884 0 0 0-1.08-.704c-.49-.19-1.016-.295-1.798-.331C12.925 2.006 12.539 2 10 2zm0-2c2.717 0 3.056.01 4.122.06 1.065.05 1.79.217 2.428.465.66.254 1.216.598 1.772 1.153.509.5.902 1.105 1.153 1.772.247.637.415 1.363.465 2.428.047 1.066.06 1.405.06 4.122 0 2.717-.01 3.056-.06 4.122-.05 1.065-.218 1.79-.465 2.428a4.883 4.883 0 0 1-1.153 1.772c-.5.508-1.105.902-1.772 1.153-.637.247-1.363.415-2.428.465-1.066.047-1.405.06-4.122.06-2.717 0-3.056-.01-4.122-.06-1.065-.05-1.79-.218-2.428-.465a4.89 4.89 0 0 1-1.772-1.153A4.904 4.904 0 0 1 .525 16.55C.277 15.913.11 15.187.06 14.122.013 13.056 0 12.717 0 10c0-2.717.01-3.056.06-4.122.05-1.066.217-1.79.465-2.428a4.88 4.88 0 0 1 1.153-1.772A4.897 4.897 0 0 1 3.45.525C4.088.277 4.812.11 5.878.06 6.944.013 7.283 0 10 0z"/></svg><svg viewBox="0 0 18 18" id="ic_integration" xmlns="http://www.w3.org/2000/svg"><path d="M1.784 13.167a8.347 8.347 0 0 1-.815-1.939A2.5 2.5 0 0 0 .97 6.772a8.325 8.325 0 0 1 2.085-3.614A2.5 2.5 0 0 0 6.914.93a8.325 8.325 0 0 1 4.172.002 2.5 2.5 0 0 0 3.86 2.226c.483.492.911 1.051 1.271 1.675.36.624.63 1.275.815 1.939a2.5 2.5 0 0 0-.002 4.455 8.324 8.324 0 0 1-2.084 3.615 2.5 2.5 0 0 0-3.859 2.228 8.326 8.326 0 0 1-4.172-.002 2.5 2.5 0 0 0-3.86-2.226 8.346 8.346 0 0 1-1.271-1.675zm4.716.163a4.161 4.161 0 0 1 1.875 2.308c.416.04.834.04 1.25.001a4.161 4.161 0 0 1 1.875-2.308 4.16 4.16 0 0 1 2.938-.471c.242-.34.45-.702.623-1.082A4.16 4.16 0 0 1 14.001 9c0-1.05.391-2.03 1.06-2.778a6.776 6.776 0 0 0-.625-1.082 4.161 4.161 0 0 1-2.936-.47 4.16 4.16 0 0 1-1.875-2.308 6.654 6.654 0 0 0-1.249-.001A4.16 4.16 0 0 1 6.5 4.669a4.16 4.16 0 0 1-2.937.471c-.241.34-.45.702-.623 1.082A4.16 4.16 0 0 1 4 9c0 1.05-.391 2.03-1.06 2.778.174.38.383.741.625 1.082a4.16 4.16 0 0 1 2.935.47zM9 11.5a2.5 2.5 0 1 1 0-5 2.5 2.5 0 0 1 0 5zm0-1.667a.833.833 0 1 0 0-1.666.833.833 0 0 0 0 1.666z"/></svg><svg viewBox="0 0 14 15" id="ic_invite" xmlns="http://www.w3.org/2000/svg"><path d="M7.334 9.501v1.394A3.999 3.999 0 0 0 2 14.667l-1.333-.001a5.333 5.333 0 0 1 6.667-5.165zM6 8.667c-2.21 0-4-1.79-4-4s1.79-4 4-4 4 1.79 4 4-1.79 4-4 4zm0-1.334A2.666 2.666 0 1 0 6 2a2.666 2.666 0 1 0 0 5.333zm4 4v-2h1.334v2h2v1.334h-2v2H10v-2H8v-1.334h2z"/></svg><svg viewBox="0 0 12 13" id="ic_lesson" xmlns="http://www.w3.org/2000/svg"><path d="M3.766 1.75A1.75 1.75 0 0 1 5.417.583h1.167c.761 0 1.41.487 1.65 1.167h3.016a.583.583 0 0 1 .584.583v9.334a.583.583 0 0 1-.584.583H.75a.583.583 0 0 1-.583-.583V2.333A.583.583 0 0 1 .75 1.75h3.016zM1.334 2.917v8.166h9.333V2.917H8.234a1.75 1.75 0 0 1-1.65 1.166H5.417a1.75 1.75 0 0 1-1.65-1.166H1.333zM5.417 1.75a.583.583 0 1 0 0 1.167h1.167a.583.583 0 0 0 0-1.167H5.417zm-.583 3.5L7.75 7 4.834 8.75v-3.5z"/></svg><svg viewBox="0 0 12 12" id="ic_limit" xmlns="http://www.w3.org/2000/svg"><path d="M6 .167a5.833 5.833 0 1 1 0 11.666A5.833 5.833 0 0 1 6 .167zm0 1.166a4.667 4.667 0 1 0 0 9.334 4.667 4.667 0 0 0 0-9.334zM8.236 3.28a.347.347 0 0 1 .445.039.345.345 0 0 1 .037.443C7.446 5.54 6.746 6.492 6.62 6.62A.876.876 0 0 1 5.381 5.38c.219-.218 1.17-.918 2.855-2.101zm.973 2.137a.584.584 0 1 1 0 1.167.584.584 0 0 1 0-1.167zm-6.417 0a.584.584 0 1 1 0 1.167.584.584 0 0 1 0-1.167zm1.352-2.098a.584.584 0 1 1-.826.825.584.584 0 0 1 .826-.825zM6 2.209a.584.584 0 1 1 0 1.166.584.584 0 0 1 0-1.167z"/></svg><svg viewBox="0 0 15 14" id="ic_logout" xmlns="http://www.w3.org/2000/svg"><path d="M3.333 6.333h5.334v1.334H3.333v2L0 7l3.333-2.667v2zM2.667 11h1.805a5.334 5.334 0 1 0 0-8H2.667A6.657 6.657 0 0 1 8 .333 6.667 6.667 0 1 1 2.667 11z"/></svg><svg viewBox="0 0 12 14" id="ic_materials" xmlns="http://www.w3.org/2000/svg"><path d="M11.333 13.667H.667A.667.667 0 0 1 0 13V1A.667.667 0 0 1 .667.333h10.666A.667.667 0 0 1 12 1v12a.666.666 0 0 1-.667.667zm-.666-1.334V1.667H1.333v10.666h9.334zM2.667 3h2.666v2.667H2.667V3zm0 4h6.666v1.333H2.667V7zm0 2.667h6.666V11H2.667V9.667zm4-6h2.666V5H6.667V3.667z"/></svg><svg viewBox="0 0 12 12" id="ic_memory" xmlns="http://www.w3.org/2000/svg"><path d="M1.917 5.417h8.166v-3.5H1.917v3.5zm9.333-4.084v9.334a.583.583 0 0 1-.583.583H1.333a.583.583 0 0 1-.583-.583V1.333A.583.583 0 0 1 1.333.75h9.334a.583.583 0 0 1 .583.583zm-1.167 5.25H1.917v3.5h8.166v-3.5zm-7 1.167h1.75v1.167h-1.75V7.75zm0-4.667h1.75V4.25h-1.75V3.083z"/></svg><svg viewBox="0 0 11 12" id="ic_next" xmlns="http://www.w3.org/2000/svg"><path d="M9 6.5l-7.667 5.111A.375.375 0 0 1 .75 11.3V.701a.375.375 0 0 1 .583-.312L9 5.498V.75a.75.75 0 0 1 1.5 0v10.5a.75.75 0 1 1-1.5 0V6.5zM2.25 2.803v6.394L7.045 6 2.25 2.803z"/></svg><svg viewBox="0 0 16 18" id="ic_note" xmlns="http://www.w3.org/2000/svg"><path d="M3.783 10.697c-.194.52-.358 1-.505 1.486.8-.581 1.751-.95 2.849-1.087 2.094-.262 3.955-1.644 4.896-3.382L9.81 6.502l1.178-1.18.833-.834c.358-.358.762-1.02 1.19-1.973-4.661.723-7.515 3.577-9.228 8.182zM12.167 6.5l.833.832c-.833 2.5-3.333 5-6.667 5.417-2.224.278-3.613 1.806-4.168 4.583H.5c.833-5 2.5-16.666 15-16.666-.833 2.497-1.665 4.163-2.498 4.997l-.835.837z"/></svg><svg viewBox="0 0 14 14" id="ic_pause" xmlns="http://www.w3.org/2000/svg"><path d="M7 13.667A6.667 6.667 0 1 1 7 .333a6.667 6.667 0 0 1 0 13.334zm0-1.334A5.334 5.334 0 1 0 7 1.665a5.334 5.334 0 0 0 0 10.668zM5 5h1.333v4H5V5zm2.667 0H9v4H7.667V5z"/></svg><svg viewBox="0 0 13 13" id="ic_people" xmlns="http://www.w3.org/2000/svg"><path d="M.167 12.833a4.667 4.667 0 0 1 9.333 0H8.334a3.5 3.5 0 1 0-7 0H.167zm4.667-5.25a3.499 3.499 0 0 1-3.5-3.5c0-1.933 1.566-3.5 3.5-3.5a3.499 3.499 0 1 1 0 7zm0-1.166a2.333 2.333 0 1 0 .001-4.666 2.333 2.333 0 0 0-.001 4.666zm4.832 2.16a4.667 4.667 0 0 1 2.751 4.256H11.25a3.5 3.5 0 0 0-2.063-3.192l.478-1.064h.001zM9.265 1.99a3.208 3.208 0 0 1-.931 6.163V6.98a2.042 2.042 0 0 0 .607-3.856l.324-1.133z"/></svg><svg viewBox="0 0 10 14" id="ic_phone" xmlns="http://www.w3.org/2000/svg"><path d="M1.666 1.667v10.666h6.667V1.667H1.666zM1 .333h8A.667.667 0 0 1 9.666 1v12a.667.667 0 0 1-.666.667H1A.667.667 0 0 1 .333 13V1A.667.667 0 0 1 1 .333zm4 10a.667.667 0 1 1 0 1.334.667.667 0 0 1 0-1.334z"/></svg><svg viewBox="0 0 14 12" id="ic_playlist" xmlns="http://www.w3.org/2000/svg"><path d="M.25 0h13.5v1.5H.25V0zm0 5.25h9v1.5h-9v-1.5zm0 5.25h13.5V12H.25v-1.5z"/></svg><svg viewBox="0 0 11 12" id="ic_prev" xmlns="http://www.w3.org/2000/svg"><path d="M2 5.5L9.667.388a.375.375 0 0 1 .583.313v10.598a.376.376 0 0 1-.583.313L2 6.5v4.75a.75.75 0 1 1-1.5 0V.75a.75.75 0 1 1 1.5 0V5.5zm6.75 3.697V2.803L3.954 6 8.75 9.197z"/></svg><svg viewBox="0 0 19 22" id="ic_profile" xmlns="http://www.w3.org/2000/svg"><path d="M8 13v2a6 6 0 0 0-6 6H0a8 8 0 0 1 8-8zm0-1c-3.315 0-6-2.685-6-6s2.685-6 6-6 6 2.685 6 6-2.685 6-6 6zm0-2c2.21 0 4-1.79 4-4s-1.79-4-4-4-4 1.79-4 4 1.79 4 4 4zm2.595 7.812a3.51 3.51 0 0 1 0-1.623l-.992-.573 1-1.732.992.573c.398-.377.88-.655 1.405-.812V12.5h2v1.145c.532.158 1.012.44 1.405.812l.992-.573 1 1.732-.992.573a3.511 3.511 0 0 1 0 1.622l.992.573-1 1.732-.992-.573c-.398.377-.88.655-1.405.812V21.5h-2v-1.145a3.497 3.497 0 0 1-1.405-.812l-.992.573-1-1.732.992-.572zM14 18.5a1.5 1.5 0 1 0 0-3 1.5 1.5 0 0 0 0 3z"/></svg><svg viewBox="0 0 54 54" id="ic_regret" xmlns="http://www.w3.org/2000/svg"><path d="M27 .333C41.728.333 53.666 12.272 53.666 27c0 1.939-.205 3.827-.6 5.648l-4.752-4.755A21.333 21.333 0 1 0 36.648 46.03a10.659 10.659 0 0 0 4.146 3.795A26.55 26.55 0 0 1 27 53.667C12.272 53.667.333 41.728.333 27 .333 12.272 12.272.333 27 .333zm18.666 32.459l3.771 3.77a5.333 5.333 0 1 1-7.813.294l.272-.293 3.77-3.771zM27 35a13.3 13.3 0 0 1 9.866 4.365l-2.52 2.294c-2.106-.84-4.632-1.326-7.346-1.326-2.715 0-5.24.488-7.347 1.323l-2.52-2.293A13.298 13.298 0 0 1 27 35zm-9.334-13.333a4 4 0 1 1 0 8 4 4 0 0 1 0-8zm18.667 0a4 4 0 1 1 0 8 4 4 0 0 1 0-8z"/></svg><svg viewBox="0 0 14 12" id="ic_reply" xmlns="http://www.w3.org/2000/svg"><path d="M7.334 11.333L.667 6 7.334.667V4a6.666 6.666 0 0 1 6.645 7.207 6.002 6.002 0 0 0-5.103-3.204L8.667 8H7.334v3.333zM6 6.667h2.69l.231.004a7.316 7.316 0 0 1 2.45.511 5.323 5.323 0 0 0-4.037-1.849H6V3.441L2.802 6 6 8.56V6.666z"/></svg><svg viewBox="0 0 16 16" id="ic_rouble" xmlns="http://www.w3.org/2000/svg"><path d="M1.09 13.454h2.546v2.182A.352.352 0 0 0 4 16h1.897a.359.359 0 0 0 .364-.364v-2.182h5.738a.353.353 0 0 0 .262-.102.353.353 0 0 0 .102-.261v-1.455a.353.353 0 0 0-.102-.26.353.353 0 0 0-.262-.103H6.261V9.932h3.863c1.515 0 2.752-.462 3.71-1.387.959-.923 1.438-2.117 1.438-3.58 0-1.46-.48-2.654-1.438-3.579C12.876.463 11.64 0 10.124 0H4a.355.355 0 0 0-.261.102.355.355 0 0 0-.102.262V7.51H1.09a.36.36 0 0 0-.364.364v1.693c0 .106.035.193.103.261a.353.353 0 0 0 .261.103h2.546v1.34H1.09a.354.354 0 0 0-.261.103.353.353 0 0 0-.102.261v1.455c0 .106.034.193.102.261a.353.353 0 0 0 .261.102zM6.26 2.421h3.637c.803 0 1.45.234 1.943.704.492.47.739 1.084.739 1.841 0 .758-.247 1.372-.739 1.84-.493.47-1.14.706-1.943.706H6.26V2.42z"/></svg><svg viewBox="0 0 14 14" id="ic_save" xmlns="http://www.w3.org/2000/svg"><path d="M3.25 12.25v-4.5h7.5v4.5h1.5V3.871L10.129 1.75H1.75v10.5h1.5zM1 .25h9.75l3 3V13a.75.75 0 0 1-.75.75H1A.75.75 0 0 1 .25 13V1A.75.75 0 0 1 1 .25zm3.75 9v3h4.5v-3h-4.5z"/></svg><svg viewBox="0 0 16 16" id="ic_search" xmlns="http://www.w3.org/2000/svg"><path d="M7.25.5A6.752 6.752 0 0 1 14 7.25 6.752 6.752 0 0 1 7.25 14 6.752 6.752 0 0 1 .5 7.25 6.752 6.752 0 0 1 7.25.5zm0 12c2.9 0 5.25-2.35 5.25-5.25C12.5 4.349 10.15 2 7.25 2A5.248 5.248 0 0 0 2 7.25c0 2.9 2.349 5.25 5.25 5.25zm6.364.053l2.121 2.121-1.06 1.062-2.122-2.122 1.06-1.06z"/></svg><svg viewBox="0 0 16 16" id="ic_send" xmlns="http://www.w3.org/2000/svg"><path d="M.442 6.027c-.382-.153-.378-.382.026-.516L14.782.739c.397-.132.624.09.513.479l-4.09 14.314c-.113.397-.357.415-.538.053L7.25 8.75.442 6.027zm3.668-.15L8.337 7.57l2.28 4.561 2.66-9.307-9.168 3.054z"/></svg><svg viewBox="0 0 10 10" id="ic_settings" xmlns="http://www.w3.org/2000/svg"><path d="M.67 7.5a5.009 5.009 0 0 1-.49-1.163 1.5 1.5 0 0 0 .002-2.673 4.995 4.995 0 0 1 1.25-2.169A1.5 1.5 0 0 0 3.748.158 4.995 4.995 0 0 1 6.25.159a1.5 1.5 0 0 0 2.316 1.336c.29.295.547.63.763 1.005.216.375.378.765.489 1.163a1.5 1.5 0 0 0-.001 2.674 4.995 4.995 0 0 1-1.25 2.168 1.5 1.5 0 0 0-2.316 1.337 4.995 4.995 0 0 1-2.504-.001 1.5 1.5 0 0 0-2.316-1.336A5.009 5.009 0 0 1 .67 7.5zm2.83.098c.532.307.933.8 1.125 1.385.25.024.5.024.75 0A2.497 2.497 0 0 1 6.5 7.6a2.497 2.497 0 0 1 1.762-.283c.145-.204.27-.421.374-.649a2.497 2.497 0 0 1 0-3.334 4.062 4.062 0 0 0-.375-.649 2.496 2.496 0 0 1-2.886-1.667c-.25-.023-.5-.024-.75 0A2.496 2.496 0 0 1 3.5 2.402a2.496 2.496 0 0 1-1.763.282c-.145.204-.27.421-.374.649a2.496 2.496 0 0 1 0 3.334c.105.227.23.445.375.649a2.497 2.497 0 0 1 1.762.282zM5 6.5a1.5 1.5 0 1 1 0-3 1.5 1.5 0 0 1 0 3zm0-1a.5.5 0 1 0 0-1 .5.5 0 0 0 0 1z"/></svg><svg viewBox="0 0 28 24" id="ic_students" xmlns="http://www.w3.org/2000/svg"><path d="M27.947 17.127a2.459 2.459 0 0 0-1.637-2.314V6.347L28 5.672 13.982.069 0 5.672l6.618 2.652v3.893c0 1.2.842 2.283 2.37 3.047 1.348.674 3.121 1.045 4.994 1.045 1.873 0 3.647-.371 4.995-1.045 1.528-.764 2.37-1.846 2.37-3.046V8.33l3.327-1.33v7.812a2.459 2.459 0 0 0-1.637 2.314c0 .976.573 1.82 1.4 2.216l-1.358 4.071 1.553.517.86-2.58.86 2.58 1.553-.517-1.357-4.071a2.458 2.458 0 0 0 1.399-2.216zm-8.237-4.91c0 1.16-2.45 2.455-5.728 2.455-3.278 0-5.727-1.296-5.727-2.455V8.98l5.727 2.296 5.728-2.29v3.232zm-5.727-2.705l-9.584-3.84 9.584-3.84 9.608 3.84-9.608 3.84zm11.51 8.433a.82.82 0 0 1 0-1.636.82.82 0 0 1 0 1.636z"/></svg><svg viewBox="0 0 48 60" id="ic_success" xmlns="http://www.w3.org/2000/svg"><path fill-rule="evenodd" clip-rule="evenodd" d="M24 .667l21.912 4.869A2.667 2.667 0 0 1 48 8.139V34.77c0 5.349-2.675 10.346-7.125 13.312L24 59.333 7.125 48.083A15.994 15.994 0 0 1 0 34.773V8.14c0-1.251.87-2.331 2.088-2.603L24 .666zm0 5.464L5.333 10.277v24.494c0 3.565 1.782 6.896 4.75 8.874L24 52.925l13.917-9.28a10.661 10.661 0 0 0 4.75-8.872V10.277L24 6.133v-.002zm15.646 17.565l-3.774-3.77v-.003l-13.2 13.2-7.541-7.542-3.77 3.771 11.314 11.315 16.97-16.971z"/></svg><svg viewBox="0 0 18 19" id="ic_tariffs" xmlns="http://www.w3.org/2000/svg"><path d="M2.334 12.333v-10H.667V.667h2.5A.833.833 0 0 1 4 1.5v10h10.365l1.667-6.667H5.667V3.167H17.1a.833.833 0 0 1 .809 1.035l-2.084 8.334a.833.833 0 0 1-.808.63H3.167a.833.833 0 0 1-.833-.833zM4 18.167a1.667 1.667 0 1 1 0-3.333 1.667 1.667 0 0 1 0 3.333zm10 0a1.667 1.667 0 1 1 0-3.334 1.667 1.667 0 0 1 0 3.334z"/></svg><svg viewBox="0 0 12 12" id="ic_task" xmlns="http://www.w3.org/2000/svg"><path d="M.75 9.792V1.917A1.75 1.75 0 0 1 2.5.167h8.167a.583.583 0 0 1 .583.583v10.5a.583.583 0 0 1-.583.583H2.792A2.042 2.042 0 0 1 .75 9.792zm9.333.875v-1.75H2.792a.875.875 0 1 0 0 1.75h7.291zm-5.25-9.334H2.5a.583.583 0 0 0-.583.584v6.03c.273-.13.572-.197.875-.197h7.291V1.333H8.917V6L6.875 4.833 4.833 6V1.333z"/></svg><svg viewBox="0 0 14 14" id="ic_time" xmlns="http://www.w3.org/2000/svg"><path d="M7 13.667A6.667 6.667 0 1 1 7 .334a6.667 6.667 0 0 1 0 13.333zm0-1.334A5.333 5.333 0 1 0 7 1.667a5.333 5.333 0 0 0 0 10.666zM7.666 7h2.667v1.333h-4V3.667h1.333V7z"/></svg><svg viewBox="0 0 11 11" id="ic_tooltip" xmlns="http://www.w3.org/2000/svg"><path d="M5.5 10.083a4.583 4.583 0 1 1 0-9.166 4.583 4.583 0 0 1 0 9.166zm0-.916a3.667 3.667 0 1 0 0-7.334 3.667 3.667 0 0 0 0 7.334zM5.04 3.208h.917v.917H5.04v-.917zm0 1.834h.917v2.75H5.04v-2.75z"/></svg><svg viewBox="0 0 16 16" id="ic_tooltip2" xmlns="http://www.w3.org/2000/svg"><path d="M8 15.5a7.5 7.5 0 1 1 0-15 7.5 7.5 0 0 1 0 15zM8 14A6 6 0 1 0 8 2a6 6 0 0 0 0 12zm-.75-3.75h1.5v1.5h-1.5v-1.5zm1.5-1.234V9.5h-1.5V8.375a.75.75 0 0 1 .75-.75 1.125 1.125 0 1 0-1.103-1.346l-1.472-.294A2.626 2.626 0 1 1 8.75 9.016z"/></svg><svg viewBox="0 0 12 15" id="ic_user" xmlns="http://www.w3.org/2000/svg"><path d="M.667 14.667a5.333 5.333 0 0 1 10.667 0H10a4 4 0 1 0-8 0H.667zm5.333-6c-2.21 0-4-1.79-4-4s1.79-4 4-4 4 1.79 4 4-1.79 4-4 4zm0-1.334A2.666 2.666 0 1 0 6 2a2.666 2.666 0 1 0 0 5.333z"/></svg><svg viewBox="0 0 16 14" id="ic_video" xmlns="http://www.w3.org/2000/svg"><path d="M.5.995A.75.75 0 0 1 1.244.25h13.512c.411 0 .744.334.744.745v12.01a.75.75 0 0 1-.744.745H1.244a.745.745 0 0 1-.744-.745V.995zM5 1.75v10.5h6V1.75H5zm-3 0v1.5h1.5v-1.5H2zm10.5 0v1.5H14v-1.5h-1.5zM2 4.75v1.5h1.5v-1.5H2zm10.5 0v1.5H14v-1.5h-1.5zM2 7.75v1.5h1.5v-1.5H2zm10.5 0v1.5H14v-1.5h-1.5zm-10.5 3v1.5h1.5v-1.5H2zm10.5 0v1.5H14v-1.5h-1.5z"/></svg><svg viewBox="0 0 14 15" id="ic_video_cover" xmlns="http://www.w3.org/2000/svg"><path d="M4.44 10.75H.25v-1.5h13.5v1.5H9.56l2.433 2.432-1.06 1.06L7.75 11.06V13h-1.5v-1.94l-3.182 3.183-1.06-1.06 2.431-2.433zM1.75.25h10.5A.75.75 0 0 1 13 1v7.5H1V1a.75.75 0 0 1 .75-.75zm.75 1.5V7h9V1.75h-9z"/></svg><svg viewBox="0 0 16 15" id="ic_video_file" xmlns="http://www.w3.org/2000/svg"><path d="M9.5 11.5V13l1.5.75v.75H5l-.003-.747L6.5 13v-1.5H1.244a.749.749 0 0 1-.744-.755v-9.74C.5.588.841.25 1.244.25h13.512c.411 0 .744.337.744.755v9.74a.755.755 0 0 1-.744.755H9.5zM2 1.75V8.5h12V1.75H2z"/></svg><svg viewBox="0 0 12 12" id="ic_video_link" xmlns="http://www.w3.org/2000/svg"><path d="M6.618 3.73l.826.826a4.083 4.083 0 0 1 0 5.775l-.207.206a4.084 4.084 0 1 1-5.775-5.775l.826.826a2.917 2.917 0 1 0 4.124 4.124l.207-.206a2.917 2.917 0 0 0 0-4.124l-.826-.826.826-.825zm3.92 3.507l-.826-.825a2.916 2.916 0 1 0-4.124-4.124l-.207.206a2.917 2.917 0 0 0 0 4.124l.825.826-.825.825-.825-.825a4.083 4.083 0 0 1 0-5.775l.207-.206a4.084 4.084 0 1 1 5.775 5.775z"/></svg><svg viewBox="0 0 9 10" id="ic_video_play" xmlns="http://www.w3.org/2000/svg"><path d="M1.75 2.361v5.277L6.273 5 1.75 2.36zM.814.08l7.881 4.597a.375.375 0 0 1 0 .648L.814 9.922a.375.375 0 0 1-.564-.326V.403A.375.375 0 0 1 .814.08z"/></svg><svg viewBox="0 0 16 16" id="ic_video_play2" xmlns="http://www.w3.org/2000/svg"><path d="M8 15.5a7.5 7.5 0 1 1 0-15 7.5 7.5 0 0 1 0 15zM8 14A6 6 0 1 0 8 2a6 6 0 0 0 0 12zM6.966 5.311l3.66 2.44a.3.3 0 0 1 0 .499l-3.66 2.439a.3.3 0 0 1-.466-.25V5.56a.3.3 0 0 1 .466-.249z"/></svg><svg viewBox="0 0 18 11" id="ic_view" xmlns="http://www.w3.org/2000/svg"><path d="M7.007 10.086l-1.449-.388.59-2.204A8.241 8.241 0 0 1 3.722 6.09L2.106 7.705 1.045 6.644 2.66 5.029A8.218 8.218 0 0 1 .882 1.227l1.476-.27a6.752 6.752 0 0 0 13.284 0l1.476.269a8.217 8.217 0 0 1-1.777 3.803l1.614 1.615-1.06 1.061-1.616-1.615a8.241 8.241 0 0 1-2.427 1.404l.59 2.205-1.448.387-.591-2.204c-.929.159-1.877.159-2.805 0l-.591 2.204z"/></svg><svg viewBox="0 0 18 14" id="ic_view_a" xmlns="http://www.w3.org/2000/svg"><path d="M9 .25A8.253 8.253 0 0 1 17.114 7 8.253 8.253 0 0 1 .886 7 8.253 8.253 0 0 1 9 .25zm0 12A6.754 6.754 0 0 0 15.583 7 6.754 6.754 0 0 0 2.417 7 6.754 6.754 0 0 0 9 12.25zm0-1.875a3.375 3.375 0 1 1 0-6.75 3.375 3.375 0 0 1 0 6.75zm0-1.5a1.875 1.875 0 1 0 0-3.75 1.875 1.875 0 0 0 0 3.75z"/></svg><svg viewBox="0 0 16 16" id="ic_write" xmlns="http://www.w3.org/2000/svg"><path d="M8 14A6 6 0 1 0 8 2a6 6 0 0 0 0 12zm0 1.5a7.5 7.5 0 1 1 0-15 7.5 7.5 0 0 1 0 15zM5.668 8.877l-1.874-.584c-.405-.123-.407-.402.09-.603l7.3-2.82c.424-.172.664.046.527.593l-1.243 5.865c-.087.418-.338.517-.687.325l-1.913-1.417-.892.861c-.091.089-.165.165-.306.184-.14.019-.256-.023-.341-.256l-.652-2.153-.01.006z"/></svg></svg>