<?xml version="1.0" encoding="utf-8"?><svg viewBox="0 0 14 17" xmlns="http://www.w3.org/2000/svg" xmlns:xlink="http://www.w3.org/1999/xlink"><style>:root>svg{display:none}:root>svg:target{display:block}</style><svg viewBox="0 0 14 16" id="ic_type_author" xmlns="http://www.w3.org/2000/svg"><path fill-rule="evenodd" clip-rule="evenodd" d="M2.875 15.5H13a.75.75 0 0 0 .75-.75V1.25A.75.75 0 0 0 13 .5H2.5A2.25 2.25 0 0 0 .25 2.75v10.125A2.625 2.625 0 0 0 2.875 15.5zm9.375-3.75V14H2.875a1.125 1.125 0 0 1 0-2.25h9.375z"/></svg><svg viewBox="0 0 12 17" id="ic_type_user" xmlns="http://www.w3.org/2000/svg"><path fill-rule="evenodd" clip-rule="evenodd" d="M6 9.75a4.5 4.5 0 1 1 0-9 4.5 4.5 0 0 1 0 9zm6 6.75h-1.5V15a2.25 2.25 0 0 0-2.25-2.25h-4.5A2.25 2.25 0 0 0 1.5 15v1.5H0V15a3.75 3.75 0 0 1 3.75-3.75h4.5A3.75 3.75 0 0 1 12 15v1.5zM9 5.25a3 3 0 1 1-6 0 3 3 0 0 1 6 0z"/></svg></svg>