<svg width="12" height="12" viewBox="0 0 12 12" xmlns="http://www.w3.org/2000/svg">
<path d="M3.08333 4.8333H10.6667C10.8214 4.8333 10.9697 4.89476 11.0791 5.00416C11.1885 5.11356 11.25 5.26193 11.25 5.41664V11.25C11.25 11.4047 11.1885 11.5531 11.0791 11.6624C10.9697 11.7718 10.8214 11.8333 10.6667 11.8333H1.33333C1.17862 11.8333 1.03025 11.7718 0.920854 11.6624C0.811458 11.5531 0.75 11.4047 0.75 11.25V5.41664C0.75 5.26193 0.811458 5.11356 0.920854 5.00416C1.03025 4.89476 1.17862 4.8333 1.33333 4.8333H1.91667V4.24997C1.91633 3.32988 2.22676 2.43665 2.79761 1.71506C3.36847 0.99347 4.16629 0.485826 5.06177 0.274416C5.95724 0.0630054 6.89787 0.160221 7.73117 0.550303C8.56448 0.940385 9.24162 1.60047 9.65283 2.42355L8.60925 2.94505C8.31554 2.35706 7.83184 1.88552 7.23657 1.60686C6.64129 1.3282 5.96935 1.25877 5.32968 1.40982C4.69001 1.56088 4.12011 1.92356 3.71238 2.43908C3.30464 2.95459 3.08298 3.59271 3.08333 4.24997V4.8333ZM1.91667 5.99997V10.6666H10.0833V5.99997H1.91667ZM4.83333 7.74997H7.16667V8.91664H4.83333V7.74997Z"/>
</svg>
