<svg width="12" height="12" viewBox="0 0 12 12" xmlns="http://www.w3.org/2000/svg">
<path d="M2.72283 1.31466C3.65252 0.569785 4.80872 0.164764 6 0.166663C7.23958 0.166663 8.37883 0.595996 9.27717 1.31466L10.1247 0.46708L10.9496 1.29191L10.102 2.1395C10.8469 3.06918 11.2519 4.22538 11.25 5.41666V6H0.75V5.41666C0.75 4.17708 1.17933 3.03783 1.898 2.1395L1.05042 1.2925L1.87525 0.467663L2.72283 1.31525V1.31466ZM0.75 7.16666H11.25V11.25C11.25 11.4047 11.1885 11.5531 11.0791 11.6625C10.9697 11.7719 10.8214 11.8333 10.6667 11.8333H1.33333C1.17862 11.8333 1.03025 11.7719 0.920854 11.6625C0.811458 11.5531 0.75 11.4047 0.75 11.25V7.16666ZM4.25 4.25C4.40471 4.25 4.55308 4.18854 4.66248 4.07914C4.77187 3.96975 4.83333 3.82137 4.83333 3.66666C4.83333 3.51195 4.77187 3.36358 4.66248 3.25418C4.55308 3.14479 4.40471 3.08333 4.25 3.08333C4.09529 3.08333 3.94692 3.14479 3.83752 3.25418C3.72812 3.36358 3.66667 3.51195 3.66667 3.66666C3.66667 3.82137 3.72812 3.96975 3.83752 4.07914C3.94692 4.18854 4.09529 4.25 4.25 4.25ZM7.75 4.25C7.90471 4.25 8.05308 4.18854 8.16248 4.07914C8.27187 3.96975 8.33333 3.82137 8.33333 3.66666C8.33333 3.51195 8.27187 3.36358 8.16248 3.25418C8.05308 3.14479 7.90471 3.08333 7.75 3.08333C7.59529 3.08333 7.44692 3.14479 7.33752 3.25418C7.22812 3.36358 7.16667 3.51195 7.16667 3.66666C7.16667 3.82137 7.22812 3.96975 7.33752 4.07914C7.44692 4.18854 7.59529 4.25 7.75 4.25Z"/>
</svg>
