<svg width="16" height="15" viewBox="0 0 16 15" xmlns="http://www.w3.org/2000/svg">
<path d="M2.00003 10H14V1.75H2.00003V10ZM8.75003 11.5V13H11.75V14.5H4.25003V13H7.25003V11.5H1.24403C1.14555 11.4994 1.04814 11.4794 0.957409 11.4411C0.866674 11.4028 0.784391 11.347 0.715274 11.2768C0.646157 11.2066 0.591567 11.1235 0.554631 11.0322C0.517695 10.9409 0.499141 10.8432 0.500031 10.7448V1.00525C0.500031 0.58825 0.841281 0.25 1.24403 0.25H14.756C15.167 0.25 15.5 0.58675 15.5 1.00525V10.7448C15.5 11.1618 15.1588 11.5 14.756 11.5H8.75003V11.5Z"/>
</svg>
