<svg width="16" height="16" viewBox="0 0 16 16" xmlns="http://www.w3.org/2000/svg">
<path d="M8.79495 5.08249L9.8562 6.14374C10.3438 6.63126 10.7305 7.21004 10.9944 7.84703C11.2583 8.48402 11.3941 9.16676 11.3941 9.85624C11.3941 10.5457 11.2583 11.2285 10.9944 11.8655C10.7305 12.5024 10.3438 13.0812 9.8562 13.5687L9.5907 13.8335C8.60608 14.8181 7.27066 15.3713 5.8782 15.3713C4.48574 15.3713 3.15031 14.8181 2.1657 13.8335C1.18108 12.8489 0.62793 11.5134 0.62793 10.121C0.62793 8.72853 1.18108 7.39311 2.1657 6.40849L3.22695 7.46974C2.87622 7.81741 2.59763 8.23092 2.40714 8.68654C2.21666 9.14217 2.11805 9.63093 2.11697 10.1248C2.11589 10.6186 2.21236 11.1078 2.40084 11.5642C2.58933 12.0207 2.86611 12.4354 3.21531 12.7846C3.56451 13.1338 3.97924 13.4106 4.43569 13.5991C4.89215 13.7876 5.38133 13.8841 5.87517 13.883C6.36901 13.8819 6.85777 13.7833 7.31339 13.5928C7.76902 13.4023 8.18253 13.1237 8.5302 12.773L8.7957 12.5075C9.49871 11.8043 9.89365 10.8506 9.89365 9.85624C9.89365 8.86188 9.49871 7.90822 8.7957 7.20499L7.73445 6.14374L8.7957 5.08324L8.79495 5.08249ZM13.8334 9.59074L12.7729 8.53024C13.1237 8.18258 13.4023 7.76906 13.5928 7.31344C13.7832 6.85781 13.8818 6.36905 13.8829 5.87521C13.884 5.38138 13.7875 4.89219 13.5991 4.43573C13.4106 3.97928 13.1338 3.56455 12.7846 3.21535C12.4354 2.86616 12.0207 2.58937 11.5642 2.40089C11.1077 2.2124 10.6186 2.11593 10.1247 2.11701C9.63089 2.11809 9.14213 2.21671 8.6865 2.40719C8.23088 2.59767 7.81736 2.87627 7.4697 3.22699L7.2042 3.49249C6.50118 4.19572 6.10625 5.14938 6.10625 6.14374C6.10625 7.13811 6.50118 8.09176 7.2042 8.79499L8.26545 9.85624L7.2042 10.9167L6.1437 9.85624C5.65613 9.36873 5.26937 8.78995 5.0055 8.15295C4.74163 7.51596 4.60582 6.83323 4.60582 6.14374C4.60582 5.45426 4.74163 4.77152 5.0055 4.13453C5.26937 3.49754 5.65613 2.91876 6.1437 2.43124L6.4092 2.16649C7.39381 1.18187 8.72924 0.628723 10.1217 0.628723C11.5142 0.628723 12.8496 1.18187 13.8342 2.16649C14.8188 3.15111 15.372 4.48653 15.372 5.87899C15.372 7.27145 14.8188 8.60688 13.8342 9.59149L13.8334 9.59074Z"/>
</svg>
