<svg width="14" height="10" viewBox="0 0 14 10" xmlns="http://www.w3.org/2000/svg">
<path d="M9.33301 0.333252C9.48772 0.333252 9.63609 0.39471 9.74549 0.504106C9.85488 0.613503 9.91634 0.761876 9.91634 0.916585V3.36658L12.9573 1.23742C13.001 1.20677 13.0523 1.18871 13.1056 1.18521C13.1589 1.18171 13.2121 1.19291 13.2594 1.21758C13.3068 1.24225 13.3465 1.27945 13.3741 1.32512C13.4018 1.3708 13.4164 1.42319 13.4163 1.47659V8.52325C13.4164 8.57665 13.4018 8.62904 13.3741 8.67471C13.3465 8.72038 13.3068 8.75758 13.2594 8.78225C13.2121 8.80693 13.1589 8.81812 13.1056 8.81463C13.0523 8.81113 13.001 8.79307 12.9573 8.76242L9.91634 6.63325V9.08325C9.91634 9.23796 9.85488 9.38633 9.74549 9.49573C9.63609 9.60513 9.48772 9.66658 9.33301 9.66658H1.16634C1.01163 9.66658 0.863258 9.60513 0.753862 9.49573C0.644466 9.38633 0.583008 9.23796 0.583008 9.08325V0.916585C0.583008 0.761876 0.644466 0.613503 0.753862 0.504106C0.863258 0.39471 1.01163 0.333252 1.16634 0.333252H9.33301ZM8.74967 1.49992H1.74967V8.49992H8.74967V1.49992ZM4.31634 3.15017C4.36074 3.15005 4.40424 3.16259 4.44176 3.18633L6.98217 4.80333C7.01517 4.82443 7.04233 4.8535 7.06114 4.88786C7.07995 4.92221 7.08981 4.96075 7.08981 4.99992C7.08981 5.03909 7.07995 5.07762 7.06114 5.11198C7.04233 5.14633 7.01517 5.1754 6.98217 5.1965L4.44176 6.81408C4.40637 6.83664 4.36556 6.84924 4.32362 6.85055C4.28168 6.85186 4.24016 6.84183 4.20344 6.82153C4.16672 6.80123 4.13615 6.7714 4.11496 6.73519C4.09376 6.69897 4.08272 6.65771 4.08301 6.61575V3.38408C4.08301 3.25517 4.18801 3.15075 4.31634 3.15075V3.15017ZM12.2497 3.15658L9.91634 4.78992V5.20875L12.2497 6.84208V3.15658Z"/>
</svg>
