<svg width="12" height="12" viewBox="0 0 12 12" xmlns="http://www.w3.org/2000/svg">
<path d="M1.81649 11.3282L1.80483 11.3399L1.79258 11.3282H0.745495C0.591969 11.3281 0.444785 11.267 0.33628 11.1584C0.227776 11.0498 0.166828 10.9025 0.166828 10.749V1.4075C0.167896 1.2543 0.229187 1.10767 0.337461 0.999291C0.445735 0.890908 0.5923 0.829469 0.745495 0.828247H11.2548C11.5745 0.828247 11.8335 1.08783 11.8335 1.4075V10.749C11.8324 10.9022 11.7711 11.0488 11.6629 11.1572C11.5546 11.2656 11.408 11.327 11.2548 11.3282H1.81649ZM10.6668 7.82825V1.99491H1.33349V10.1616L7.16683 4.32825L10.6668 7.82825ZM10.6668 9.47791L7.16683 5.97791L2.98316 10.1616H10.6668V9.47791ZM3.66683 5.49491C3.35741 5.49491 3.06066 5.372 2.84187 5.1532C2.62308 4.93441 2.50016 4.63767 2.50016 4.32825C2.50016 4.01883 2.62308 3.72208 2.84187 3.50329C3.06066 3.2845 3.35741 3.16158 3.66683 3.16158C3.97625 3.16158 4.27299 3.2845 4.49179 3.50329C4.71058 3.72208 4.8335 4.01883 4.8335 4.32825C4.8335 4.63767 4.71058 4.93441 4.49179 5.1532C4.27299 5.372 3.97625 5.49491 3.66683 5.49491Z"/>
</svg>
