<svg width="12" height="13" viewBox="0 0 12 13" xmlns="http://www.w3.org/2000/svg">
<path d="M3.76616 1.75C3.88692 1.4087 4.11051 1.11324 4.40616 0.904301C4.70181 0.695363 5.05497 0.583224 5.41699 0.583328H6.58366C7.34549 0.583328 7.99358 1.07041 8.23449 1.75H11.2503C11.405 1.75 11.5534 1.81145 11.6628 1.92085C11.7722 2.03025 11.8337 2.17862 11.8337 2.33333V11.6667C11.8337 11.8214 11.7722 11.9697 11.6628 12.0791C11.5534 12.1885 11.405 12.25 11.2503 12.25H0.750326C0.595616 12.25 0.447243 12.1885 0.337847 12.0791C0.22845 11.9697 0.166992 11.8214 0.166992 11.6667V2.33333C0.166992 2.17862 0.22845 2.03025 0.337847 1.92085C0.447243 1.81145 0.595616 1.75 0.750326 1.75H3.76616ZM1.33366 2.91666V11.0833H10.667V2.91666H8.23449C8.11374 3.25796 7.89014 3.55342 7.59449 3.76236C7.29884 3.97129 6.94569 4.08343 6.58366 4.08333H5.41699C5.05497 4.08343 4.70181 3.97129 4.40616 3.76236C4.11051 3.55342 3.88692 3.25796 3.76616 2.91666H1.33366ZM5.41699 1.75C5.26228 1.75 5.11391 1.81145 5.00451 1.92085C4.89512 2.03025 4.83366 2.17862 4.83366 2.33333C4.83366 2.48804 4.89512 2.63641 5.00451 2.74581C5.11391 2.8552 5.26228 2.91666 5.41699 2.91666H6.58366C6.73837 2.91666 6.88674 2.8552 6.99614 2.74581C7.10553 2.63641 7.16699 2.48804 7.16699 2.33333C7.16699 2.17862 7.10553 2.03025 6.99614 1.92085C6.88674 1.81145 6.73837 1.75 6.58366 1.75H5.41699ZM4.83366 5.25L7.75033 7L4.83366 8.75V5.25Z"/>
</svg>
