<svg width="11" height="12" viewBox="0 0 11 12" xmlns="http://www.w3.org/2000/svg">
<path d="M9 6.50025L1.33275 11.6115C1.27628 11.6491 1.21067 11.6706 1.14292 11.6739C1.07516 11.6771 1.0078 11.6619 0.948 11.6299C0.888199 11.5979 0.838203 11.5503 0.803336 11.4921C0.768468 11.4339 0.750035 11.3673 0.75 11.2995V0.7005C0.750035 0.632668 0.768468 0.566117 0.803336 0.507932C0.838203 0.449748 0.888199 0.402111 0.948 0.370094C1.0078 0.338078 1.07516 0.322881 1.14292 0.326122C1.21067 0.329363 1.27628 0.350921 1.33275 0.3885L9 5.49975V0.75C9 0.551088 9.07902 0.360322 9.21967 0.21967C9.36032 0.0790178 9.55109 0 9.75 0C9.94891 0 10.1397 0.0790178 10.2803 0.21967C10.421 0.360322 10.5 0.551088 10.5 0.75V11.25C10.5 11.4489 10.421 11.6397 10.2803 11.7803C10.1397 11.921 9.94891 12 9.75 12C9.55109 12 9.36032 11.921 9.21967 11.7803C9.07902 11.6397 9 11.4489 9 11.25V6.50025ZM2.25 2.80275V9.19725L7.0455 6L2.25 2.80275Z"/>
</svg>
