<svg width="11" height="12" viewBox="0 0 11 12" xmlns="http://www.w3.org/2000/svg">
<path d="M2 5.49975L9.66725 0.3885C9.72372 0.350921 9.78933 0.329364 9.85708 0.326122C9.92484 0.322881 9.9922 0.338078 10.052 0.370094C10.1118 0.402111 10.1618 0.449748 10.1967 0.507932C10.2315 0.566115 10.25 0.632668 10.25 0.7005L10.25 11.2995C10.25 11.3673 10.2315 11.4339 10.1967 11.4921C10.1618 11.5503 10.1118 11.5979 10.052 11.6299C9.9922 11.6619 9.92484 11.6771 9.85708 11.6739C9.78933 11.6706 9.72372 11.6491 9.66725 11.6115L2 6.50025V11.25C2 11.4489 1.92098 11.6397 1.78033 11.7803C1.63968 11.921 1.44891 12 1.25 12C1.05109 12 0.860322 11.921 0.719669 11.7803C0.579017 11.6397 0.5 11.4489 0.5 11.25L0.5 0.75C0.5 0.551087 0.579017 0.360322 0.719669 0.219669C0.860322 0.0790167 1.05109 0 1.25 0C1.44891 0 1.63968 0.0790167 1.78033 0.219669C1.92098 0.360322 2 0.551087 2 0.75L2 5.49975ZM8.75 9.19725L8.75 2.80275L3.9545 6L8.75 9.19725Z"/>
</svg>
