<svg width="54" height="54" viewBox="0 0 54 54" xmlns="http://www.w3.org/2000/svg">
<path d="M26.9997 0.333328C41.7277 0.333328 53.6663 12.272 53.6663 27C53.6663 28.9387 53.461 30.8267 53.0663 32.648L48.3143 27.8933C48.51 23.2127 47.1595 18.5977 44.4713 14.761C41.7831 10.9242 37.9068 8.07903 33.4407 6.66459C28.9745 5.25015 24.167 5.34514 19.7602 6.9349C15.3535 8.52466 11.5925 11.5208 9.058 15.4607C6.52348 19.4007 5.35633 24.0653 5.73674 28.7346C6.11714 33.4039 8.02394 37.8181 11.1628 41.2959C14.3016 44.7736 18.4979 47.1215 23.1039 47.977C27.7099 48.8324 32.4694 48.148 36.6477 46.0293C37.6655 47.6425 39.0975 48.9529 40.7943 49.824C36.6349 52.3442 31.8631 53.6734 26.9997 53.6667C12.2717 53.6667 0.333008 41.728 0.333008 27C0.333008 12.272 12.2717 0.333328 26.9997 0.333328ZM45.6663 32.792L49.437 36.5627C50.171 37.2964 50.675 38.2284 50.8872 39.2444C51.0993 40.2603 51.0104 41.3161 50.6314 42.2823C50.2524 43.2485 49.5997 44.0831 48.7533 44.6838C47.9069 45.2845 46.9037 45.6252 45.8665 45.6642C44.8294 45.7031 43.8034 45.4386 42.9144 44.903C42.0254 44.3675 41.3119 43.5841 40.8615 42.6491C40.4111 41.714 40.2433 40.6679 40.3787 39.6389C40.5141 38.6099 40.9467 37.6427 41.6237 36.856L41.8957 36.5627L45.6663 32.792ZM26.9997 35C30.909 35 34.4263 36.6827 36.8663 39.3653L34.3463 41.6587C32.2397 40.8187 29.7143 40.3333 26.9997 40.3333C24.285 40.3333 21.7597 40.8213 19.653 41.656L17.133 39.3627C18.3816 37.9865 19.9047 36.8873 21.6041 36.1359C23.3035 35.3845 25.1415 34.9975 26.9997 35ZM17.6663 21.6667C18.7272 21.6667 19.7446 22.0881 20.4948 22.8382C21.2449 23.5884 21.6663 24.6058 21.6663 25.6667C21.6663 26.7275 21.2449 27.7449 20.4948 28.4951C19.7446 29.2452 18.7272 29.6667 17.6663 29.6667C16.6055 29.6667 15.5881 29.2452 14.8379 28.4951C14.0878 27.7449 13.6663 26.7275 13.6663 25.6667C13.6663 24.6058 14.0878 23.5884 14.8379 22.8382C15.5881 22.0881 16.6055 21.6667 17.6663 21.6667ZM36.333 21.6667C37.3939 21.6667 38.4113 22.0881 39.1614 22.8382C39.9116 23.5884 40.333 24.6058 40.333 25.6667C40.333 26.7275 39.9116 27.7449 39.1614 28.4951C38.4113 29.2452 37.3939 29.6667 36.333 29.6667C35.2721 29.6667 34.2547 29.2452 33.5046 28.4951C32.7544 27.7449 32.333 26.7275 32.333 25.6667C32.333 24.6058 32.7544 23.5884 33.5046 22.8382C34.2547 22.0881 35.2721 21.6667 36.333 21.6667Z"/>
</svg>
