<svg width="10" height="10" viewBox="0 0 10 10" xmlns="http://www.w3.org/2000/svg">
<path d="M0.669664 7.50003C0.458299 7.13453 0.293996 6.74376 0.180664 6.33703C0.427318 6.21158 0.634461 6.02035 0.779179 5.78448C0.923896 5.54861 1.00055 5.27731 1.00065 5.00059C1.00075 4.72387 0.924306 4.45251 0.779765 4.21653C0.635224 3.98056 0.428224 3.78917 0.181664 3.66353C0.407682 2.84628 0.838029 2.10001 1.43216 1.49503C1.66421 1.6459 1.93347 1.72961 2.21015 1.73692C2.48683 1.74423 2.76014 1.67485 2.99983 1.53645C3.23952 1.39805 3.43624 1.19603 3.56823 0.952754C3.70021 0.709475 3.76232 0.434422 3.74766 0.158034C4.56872 -0.0541554 5.43028 -0.0538112 6.25116 0.159034C6.23664 0.435416 6.29887 0.710428 6.43095 0.953638C6.56304 1.19685 6.75984 1.39877 6.99958 1.53706C7.23931 1.67536 7.51264 1.74463 7.7893 1.73721C8.06597 1.72979 8.33518 1.64597 8.56716 1.49503C8.85666 1.79003 9.11366 2.12553 9.32966 2.50003C9.54616 2.87453 9.70816 3.26503 9.81866 3.66303C9.57201 3.78848 9.36487 3.97972 9.22015 4.21559C9.07543 4.45145 8.99878 4.72275 8.99868 4.99948C8.99857 5.2762 9.07502 5.54756 9.21956 5.78353C9.3641 6.01951 9.5711 6.2109 9.81766 6.33653C9.59165 7.15379 9.1613 7.90006 8.56716 8.50503C8.33512 8.35417 8.06585 8.27045 7.78918 8.26314C7.5125 8.25583 7.23919 8.32522 6.9995 8.46362C6.75981 8.60202 6.56309 8.80403 6.4311 9.04731C6.29911 9.29059 6.23701 9.56565 6.25166 9.84203C5.43061 10.0542 4.56905 10.0539 3.74816 9.84103C3.76269 9.56465 3.70046 9.28964 3.56837 9.04643C3.43629 8.80322 3.23949 8.6013 2.99975 8.463C2.76001 8.32471 2.48669 8.25544 2.21003 8.26286C1.93336 8.27028 1.66414 8.35409 1.43216 8.50503C1.13666 8.20351 0.880461 7.86583 0.669664 7.50003ZM3.49966 7.59803C4.03248 7.90535 4.43309 8.39854 4.62466 8.98303C4.87416 9.00653 5.12466 9.00703 5.37416 8.98353C5.56587 8.39896 5.96666 7.90575 6.49966 7.59853C7.03227 7.29038 7.65993 7.18977 8.26216 7.31603C8.40716 7.11203 8.53216 6.89453 8.63616 6.66703C8.22588 6.20875 7.99922 5.61514 7.99966 5.00003C7.99966 4.37003 8.23466 3.78153 8.63616 3.33303C8.53143 3.10561 8.4059 2.88835 8.26116 2.68403C7.65931 2.81019 7.03206 2.70977 6.49966 2.40203C5.96685 2.09472 5.56624 1.60152 5.37466 1.01703C5.12516 0.993533 4.87466 0.993033 4.62516 1.01653C4.43346 1.60111 4.03267 2.09431 3.49966 2.40153C2.96706 2.70969 2.3394 2.81029 1.73716 2.68403C1.59245 2.88818 1.46723 3.10546 1.36316 3.33303C1.77345 3.79131 2.00011 4.38493 1.99966 5.00003C1.99966 5.63003 1.76466 6.21853 1.36316 6.66703C1.4679 6.89446 1.59343 7.11172 1.73816 7.31603C2.34002 7.18988 2.96727 7.29029 3.49966 7.59803ZM4.99966 6.50003C4.60184 6.50003 4.22031 6.342 3.939 6.06069C3.6577 5.77939 3.49966 5.39786 3.49966 5.00003C3.49966 4.60221 3.6577 4.22068 3.939 3.93937C4.22031 3.65807 4.60184 3.50003 4.99966 3.50003C5.39749 3.50003 5.77902 3.65807 6.06032 3.93937C6.34163 4.22068 6.49966 4.60221 6.49966 5.00003C6.49966 5.39786 6.34163 5.77939 6.06032 6.06069C5.77902 6.342 5.39749 6.50003 4.99966 6.50003ZM4.99966 5.50003C5.13227 5.50003 5.25945 5.44735 5.35322 5.35359C5.44699 5.25982 5.49966 5.13264 5.49966 5.00003C5.49966 4.86742 5.44699 4.74025 5.35322 4.64648C5.25945 4.55271 5.13227 4.50003 4.99966 4.50003C4.86706 4.50003 4.73988 4.55271 4.64611 4.64648C4.55234 4.74025 4.49966 4.86742 4.49966 5.00003C4.49966 5.13264 4.55234 5.25982 4.64611 5.35359C4.73988 5.44735 4.86706 5.50003 4.99966 5.50003Z"/>
</svg>
