<svg width="12" height="12" viewBox="0 0 12 12" xmlns="http://www.w3.org/2000/svg">
<path d="M0.75 9.79175V1.91675C0.75 1.45262 0.934375 1.0075 1.26256 0.679311C1.59075 0.351123 2.03587 0.166748 2.5 0.166748H10.6667C10.8214 0.166748 10.9697 0.228206 11.0791 0.337602C11.1885 0.446999 11.25 0.595372 11.25 0.750081V11.2501C11.25 11.4048 11.1885 11.5532 11.0791 11.6626C10.9697 11.772 10.8214 11.8334 10.6667 11.8334H2.79167C2.25018 11.8334 1.73088 11.6183 1.34799 11.2354C0.965104 10.8525 0.75 10.3332 0.75 9.79175V9.79175ZM10.0833 10.6667V8.91675H2.79167C2.5596 8.91675 2.33704 9.00894 2.17295 9.17303C2.00885 9.33713 1.91667 9.55968 1.91667 9.79175C1.91667 10.0238 2.00885 10.2464 2.17295 10.4105C2.33704 10.5746 2.5596 10.6667 2.79167 10.6667H10.0833ZM4.83333 1.33341H2.5C2.34529 1.33341 2.19692 1.39487 2.08752 1.50427C1.97812 1.61367 1.91667 1.76204 1.91667 1.91675V7.94667C2.19007 7.81684 2.489 7.74968 2.79167 7.75008H10.0833V1.33341H8.91667V6.00008L6.875 4.83342L4.83333 6.00008V1.33341Z"/>
</svg>
