<svg width="9" height="10" viewBox="0 0 9 10" xmlns="http://www.w3.org/2000/svg">
<path d="M1.75001 2.36144V7.63844L6.27251 4.99994L1.75001 2.36144ZM0.814007 0.0799372L8.69501 4.67744C8.75148 4.7105 8.79833 4.75777 8.83088 4.81454C8.86343 4.87132 8.88056 4.93562 8.88056 5.00106C8.88056 5.06651 8.86343 5.13081 8.83088 5.18758C8.79833 5.24436 8.75148 5.29163 8.69501 5.32469L0.814007 9.92219C0.756853 9.95554 0.69189 9.97318 0.625716 9.9733C0.559541 9.97343 0.494512 9.95604 0.437231 9.92291C0.379949 9.88977 0.332456 9.84207 0.299573 9.78464C0.266691 9.72722 0.24959 9.66211 0.250007 9.59594V0.403187C0.249988 0.337204 0.267379 0.272385 0.300423 0.215273C0.333468 0.158161 0.380997 0.110779 0.438211 0.0779116C0.495425 0.045044 0.560298 0.0278543 0.626281 0.0280783C0.692263 0.0283023 0.757018 0.045932 0.814007 0.0791873V0.0799372Z"/>
</svg>
