<svg width="18" height="18" viewBox="0 0 18 18" xmlns="http://www.w3.org/2000/svg">
<path d="M9.83366 15.5V17.1667H8.16699V15.5H1.50033C1.27931 15.5 1.06735 15.4122 0.91107 15.2559C0.75479 15.0996 0.666992 14.8877 0.666992 14.6667V1.33334C0.666992 1.11232 0.75479 0.90036 0.91107 0.74408C1.06735 0.5878 1.27931 0.500002 1.50033 0.500002H6.50033C6.97331 0.499441 7.44098 0.599799 7.87209 0.794375C8.30321 0.988951 8.68785 1.27327 9.00033 1.62834C9.31281 1.27327 9.69745 0.988951 10.1286 0.794375C10.5597 0.599799 11.0273 0.499441 11.5003 0.500002H16.5003C16.7213 0.500002 16.9333 0.5878 17.0896 0.74408C17.2459 0.90036 17.3337 1.11232 17.3337 1.33334V14.6667C17.3337 14.8877 17.2459 15.0996 17.0896 15.2559C16.9333 15.4122 16.7213 15.5 16.5003 15.5H9.83366ZM15.667 13.8333V2.16667H11.5003C11.0583 2.16667 10.6344 2.34226 10.3218 2.65482C10.0093 2.96738 9.83366 3.39131 9.83366 3.83334V13.8333H15.667ZM8.16699 13.8333V3.83334C8.16699 3.39131 7.9914 2.96738 7.67884 2.65482C7.36628 2.34226 6.94235 2.16667 6.50033 2.16667H2.33366V13.8333H8.16699Z"/>
</svg>
