<svg width="18" height="18" viewBox="0 0 18 18" xmlns="http://www.w3.org/2000/svg">
<path d="M1.78375 13.1666C1.43148 12.5575 1.15764 11.9062 0.96875 11.2283C1.37984 11.0192 1.72508 10.7005 1.96627 10.3074C2.20747 9.91428 2.33522 9.46211 2.33539 9.0009C2.33557 8.5397 2.20815 8.08743 1.96725 7.69414C1.72635 7.30085 1.38135 6.98187 0.970417 6.77247C1.34711 5.41038 2.06436 4.1666 3.05458 3.15831C3.44133 3.40974 3.8901 3.54928 4.35123 3.56146C4.81236 3.57364 5.26788 3.458 5.66736 3.22733C6.06684 2.99667 6.39471 2.65997 6.61469 2.25451C6.83467 1.84904 6.93817 1.39062 6.91375 0.929974C8.28217 0.576326 9.71811 0.5769 11.0863 0.931641C11.062 1.39228 11.1658 1.85063 11.3859 2.25598C11.606 2.66133 11.934 2.99787 12.3336 3.22836C12.7332 3.45885 13.1887 3.5743 13.6498 3.56193C14.1109 3.54957 14.5596 3.40988 14.9462 3.15831C15.4288 3.64997 15.8571 4.20914 16.2171 4.83331C16.5779 5.45747 16.8479 6.10831 17.0321 6.77164C16.621 6.98073 16.2758 7.29945 16.0346 7.69256C15.7934 8.08567 15.6656 8.53784 15.6654 8.99905C15.6653 9.46025 15.7927 9.91252 16.0336 10.3058C16.2745 10.6991 16.6195 11.0181 17.0304 11.2275C16.6537 12.5896 15.9365 13.8333 14.9462 14.8416C14.5595 14.5902 14.1107 14.4507 13.6496 14.4385C13.1885 14.4263 12.733 14.5419 12.3335 14.7726C11.934 15.0033 11.6061 15.34 11.3861 15.7454C11.1662 16.1509 11.0627 16.6093 11.0871 17.07C9.71866 17.4236 8.28272 17.423 6.91458 17.0683C6.93879 16.6077 6.83508 16.1493 6.61493 15.744C6.39479 15.3386 6.06679 15.0021 5.66723 14.7716C5.26767 14.5411 4.81213 14.4257 4.35102 14.438C3.88991 14.4504 3.44122 14.5901 3.05458 14.8416C2.56208 14.3391 2.13508 13.7763 1.78375 13.1666ZM6.50042 13.33C7.38844 13.8422 8.05612 14.6642 8.37542 15.6383C8.79125 15.6775 9.20875 15.6783 9.62458 15.6391C9.94408 14.6649 10.6121 13.8428 11.5004 13.3308C12.3881 12.8172 13.4342 12.6495 14.4379 12.86C14.6796 12.52 14.8879 12.1575 15.0613 11.7783C14.3774 11.0145 13.9997 10.0251 14.0004 8.99997C14.0004 7.94997 14.3921 6.96914 15.0613 6.22164C14.8867 5.8426 14.6775 5.4805 14.4363 5.13997C13.4332 5.35023 12.3877 5.18287 11.5004 4.66997C10.6124 4.15778 9.94471 3.33579 9.62542 2.36164C9.20958 2.32247 8.79208 2.32164 8.37625 2.36081C8.05675 3.3351 7.38875 4.15711 6.50042 4.66914C5.61274 5.18274 4.56665 5.35041 3.56292 5.13997C3.32172 5.48021 3.11303 5.84236 2.93958 6.22164C3.62339 6.98544 4.00115 7.9748 4.00042 8.99997C4.00042 10.05 3.60875 11.0308 2.93958 11.7783C3.11414 12.1574 3.32337 12.5194 3.56458 12.86C4.56768 12.6497 5.61309 12.8171 6.50042 13.33ZM9.00042 11.5C8.33738 11.5 7.70149 11.2366 7.23265 10.7677C6.76381 10.2989 6.50042 9.66302 6.50042 8.99997C6.50042 8.33693 6.76381 7.70105 7.23265 7.23221C7.70149 6.76337 8.33738 6.49997 9.00042 6.49997C9.66346 6.49997 10.2993 6.76337 10.7682 7.23221C11.237 7.70105 11.5004 8.33693 11.5004 8.99997C11.5004 9.66302 11.237 10.2989 10.7682 10.7677C10.2993 11.2366 9.66346 11.5 9.00042 11.5ZM9.00042 9.83331C9.22143 9.83331 9.43339 9.74551 9.58967 9.58923C9.74595 9.43295 9.83375 9.22099 9.83375 8.99997C9.83375 8.77896 9.74595 8.567 9.58967 8.41072C9.43339 8.25444 9.22143 8.16664 9.00042 8.16664C8.7794 8.16664 8.56744 8.25444 8.41116 8.41072C8.25488 8.567 8.16708 8.77896 8.16708 8.99997C8.16708 9.22099 8.25488 9.43295 8.41116 9.58923C8.56744 9.74551 8.7794 9.83331 9.00042 9.83331Z"/>
</svg>
