<svg width="12" height="12" viewBox="0 0 12 12" xmlns="http://www.w3.org/2000/svg">
<path d="M10.0833 4.83317H10.6667C10.8214 4.83317 10.9697 4.89463 11.0791 5.00403C11.1885 5.11342 11.25 5.26179 11.25 5.4165V11.2498C11.25 11.4045 11.1885 11.5529 11.0791 11.6623C10.9697 11.7717 10.8214 11.8332 10.6667 11.8332H1.33333C1.17862 11.8332 1.03025 11.7717 0.920854 11.6623C0.811458 11.5529 0.75 11.4045 0.75 11.2498V5.4165C0.75 5.26179 0.811458 5.11342 0.920854 5.00403C1.03025 4.89463 1.17862 4.83317 1.33333 4.83317H1.91667V4.24984C1.91667 3.71361 2.02229 3.18263 2.22749 2.68721C2.4327 2.1918 2.73347 1.74166 3.11265 1.36248C3.49182 0.983312 3.94196 0.682536 4.43738 0.477329C4.93279 0.272122 5.46377 0.166504 6 0.166504C6.53623 0.166504 7.06721 0.272122 7.56262 0.477329C8.05804 0.682536 8.50818 0.983312 8.88735 1.36248C9.26652 1.74166 9.5673 2.1918 9.77251 2.68721C9.97771 3.18263 10.0833 3.71361 10.0833 4.24984V4.83317ZM1.91667 5.99984V10.6665H10.0833V5.99984H1.91667ZM5.41667 7.1665H6.58333V9.49984H5.41667V7.1665ZM8.91667 4.83317V4.24984C8.91667 3.47629 8.60938 2.73442 8.06239 2.18744C7.51541 1.64046 6.77355 1.33317 6 1.33317C5.22645 1.33317 4.48459 1.64046 3.93761 2.18744C3.39062 2.73442 3.08333 3.47629 3.08333 4.24984V4.83317H8.91667Z"/>
</svg>
