<svg width="11" height="14" viewBox="0 0 11 14" xmlns="http://www.w3.org/2000/svg">
<path d="M5.78082 4.21283C5.26982 4.21283 4.47882 3.63183 3.64582 3.65283C2.54682 3.66683 1.53882 4.28983 0.971825 5.27683C-0.169175 7.25783 0.677825 10.1838 1.79082 11.7938C2.33682 12.5778 2.98082 13.4598 3.83482 13.4318C4.65382 13.3968 4.96182 12.8998 5.95582 12.8998C6.94282 12.8998 7.22282 13.4318 8.09082 13.4108C8.97282 13.3968 9.53282 12.6128 10.0718 11.8218C10.6948 10.9118 10.9538 10.0298 10.9678 9.98083C10.9468 9.97383 9.25282 9.32283 9.23182 7.36283C9.21782 5.72483 10.5688 4.94083 10.6318 4.90583C9.86182 3.77883 8.67882 3.65283 8.26582 3.62483C7.18782 3.54083 6.28482 4.21283 5.78082 4.21283ZM7.60082 2.56083C8.05582 2.01483 8.35682 1.25183 8.27282 0.495834C7.62182 0.523834 6.83782 0.929834 6.36882 1.47583C5.94882 1.95883 5.58482 2.73583 5.68282 3.47783C6.40382 3.53383 7.14582 3.10683 7.60082 2.56083Z"/>
</svg>
