<svg width="12" height="13" viewBox="0 0 12 13" xmlns="http://www.w3.org/2000/svg">
<path d="M2.7655 10.0833L0.166748 12.125V1.33333C0.166748 1.17862 0.228206 1.03025 0.337602 0.920854C0.446999 0.811458 0.595372 0.75 0.750081 0.75H11.2501C11.4048 0.75 11.5532 0.811458 11.6626 0.920854C11.772 1.03025 11.8334 1.17862 11.8334 1.33333V9.5C11.8334 9.65471 11.772 9.80308 11.6626 9.91248C11.5532 10.0219 11.4048 10.0833 11.2501 10.0833H2.7655ZM2.36183 8.91667H10.6667V1.91667H1.33341V9.72458L2.36183 8.91667ZM5.41675 4.83333H6.58342V6H5.41675V4.83333ZM3.08342 4.83333H4.25008V6H3.08342V4.83333ZM7.75008 4.83333H8.91675V6H7.75008V4.83333Z"/>
</svg>
