<svg width="12" height="12" viewBox="0 0 12 12" xmlns="http://www.w3.org/2000/svg">
<path d="M11.25 1.33333H3.08333C2.77391 1.33333 2.47717 1.45625 2.25838 1.67504C2.03958 1.89383 1.91667 2.19058 1.91667 2.5C1.91667 2.80942 2.03958 3.10616 2.25838 3.32496C2.47717 3.54375 2.77391 3.66666 3.08333 3.66666H11.25V11.25C11.25 11.4047 11.1885 11.5531 11.0791 11.6625C10.9697 11.7719 10.8214 11.8333 10.6667 11.8333H3.08333C2.46449 11.8333 1.871 11.5875 1.43342 11.1499C0.995833 10.7123 0.75 10.1188 0.75 9.5V2.5C0.75 1.88116 0.995833 1.28767 1.43342 0.850082C1.871 0.412497 2.46449 0.166664 3.08333 0.166664H10.6667C10.8214 0.166664 10.9697 0.228122 11.0791 0.337518C11.1885 0.446915 11.25 0.595288 11.25 0.749997V1.33333ZM1.91667 9.5C1.91667 9.80942 2.03958 10.1062 2.25838 10.325C2.47717 10.5437 2.77391 10.6667 3.08333 10.6667H10.0833V4.83333H3.08333C2.67373 4.83399 2.27124 4.72632 1.91667 4.52125V9.5ZM10.6667 3.08333H3.08333C2.92862 3.08333 2.78025 3.02187 2.67085 2.91248C2.56146 2.80308 2.5 2.65471 2.5 2.5C2.5 2.34529 2.56146 2.19691 2.67085 2.08752C2.78025 1.97812 2.92862 1.91666 3.08333 1.91666H10.6667V3.08333Z"/>
</svg>
