<svg width="12" height="12" viewBox="0 0 12 12" xmlns="http://www.w3.org/2000/svg">
<path d="M3.08333 2.50002V0.75002C3.08333 0.595311 3.14479 0.446938 3.25419 0.337541C3.36358 0.228145 3.51196 0.166687 3.66667 0.166687H10.6667C10.8214 0.166687 10.9697 0.228145 11.0791 0.337541C11.1885 0.446938 11.25 0.595311 11.25 0.75002V8.91669C11.25 9.0714 11.1885 9.21977 11.0791 9.32917C10.9697 9.43856 10.8214 9.50002 10.6667 9.50002H8.91667V11.25C8.91667 11.572 8.65417 11.8334 8.32925 11.8334H1.33742C1.26049 11.8338 1.18423 11.8191 1.11302 11.79C1.04181 11.7609 0.977053 11.718 0.922467 11.6638C0.867882 11.6096 0.824546 11.5451 0.794948 11.4741C0.765351 11.4031 0.750075 11.3269 0.75 11.25L0.75175 3.08335C0.75175 2.76135 1.01425 2.50002 1.33917 2.50002H3.08333ZM1.91842 3.66669L1.91667 10.6667H7.75V3.66669H1.91842ZM4.25 2.50002H8.91667V8.33335H10.0833V1.33335H4.25V2.50002Z"/>
</svg>
