<svg width="14" height="14" viewBox="0 0 14 14" xmlns="http://www.w3.org/2000/svg">
<path d="M12.333 7.00001C12.3329 5.81126 11.9356 4.65664 11.2043 3.71947C10.473 2.78231 9.4495 2.11633 8.29643 1.8273C7.14335 1.53827 5.92677 1.64275 4.83986 2.12415C3.75295 2.60555 2.85803 3.43627 2.2972 4.4844C1.73637 5.53254 1.54178 6.738 1.74434 7.90936C1.94689 9.08072 2.53498 10.1508 3.41521 10.9498C4.29544 11.7487 5.41736 12.2307 6.60281 12.3191C7.78826 12.4076 8.96929 12.0975 9.95834 11.438L10.6983 12.5473C9.60381 13.2792 8.31631 13.6688 6.99967 13.6667C3.31767 13.6667 0.333008 10.682 0.333008 7.00001C0.333008 3.31801 3.31767 0.333344 6.99967 0.333344C10.6817 0.333344 13.6663 3.31801 13.6663 7.00001V8.00001C13.6664 8.49918 13.5064 8.98521 13.2098 9.38672C12.9132 9.78822 12.4957 10.084 12.0186 10.2307C11.5414 10.3774 11.0298 10.3671 10.5589 10.2015C10.088 10.0359 9.68266 9.7237 9.40234 9.31068C8.95739 9.77334 8.38831 10.0977 7.76348 10.2448C7.13866 10.3918 6.48465 10.3554 5.88005 10.1397C5.27545 9.9241 4.74596 9.53849 4.35521 9.02922C3.96446 8.51995 3.72906 7.90869 3.6773 7.26888C3.62554 6.62907 3.75962 5.98792 4.06342 5.42246C4.36723 4.857 4.82784 4.39129 5.38992 4.08128C5.952 3.77127 6.59164 3.63014 7.23198 3.67485C7.87232 3.71957 8.48614 3.94822 8.99967 4.33334H10.333V8.00001C10.333 8.26523 10.4384 8.51958 10.6259 8.70712C10.8134 8.89465 11.0678 9.00001 11.333 9.00001C11.5982 9.00001 11.8526 8.89465 12.0401 8.70712C12.2277 8.51958 12.333 8.26523 12.333 8.00001V7.00001ZM6.99967 5.00001C6.46924 5.00001 5.96053 5.21072 5.58546 5.5858C5.21039 5.96087 4.99967 6.46958 4.99967 7.00001C4.99967 7.53044 5.21039 8.03915 5.58546 8.41422C5.96053 8.7893 6.46924 9.00001 6.99967 9.00001C7.53011 9.00001 8.03882 8.7893 8.41389 8.41422C8.78896 8.03915 8.99967 7.53044 8.99967 7.00001C8.99967 6.46958 8.78896 5.96087 8.41389 5.5858C8.03882 5.21072 7.53011 5.00001 6.99967 5.00001Z"/>
</svg>
