<svg width="14" height="15" viewBox="0 0 14 15" xmlns="http://www.w3.org/2000/svg">
<path d="M9.12097 4.81767L4.87897 9.06042C4.80734 9.1296 4.7502 9.21236 4.7109 9.30386C4.67159 9.39537 4.6509 9.49378 4.65003 9.59336C4.64917 9.69295 4.66814 9.79171 4.70585 9.88388C4.74357 9.97605 4.79926 10.0598 4.86967 10.1302C4.94009 10.2006 5.02383 10.2563 5.11601 10.294C5.20818 10.3317 5.30694 10.3507 5.40652 10.3499C5.50611 10.349 5.60452 10.3283 5.69602 10.289C5.78753 10.2497 5.87029 10.1925 5.93947 10.1209L10.1822 5.87892C10.6042 5.45692 10.8413 4.88458 10.8413 4.28779C10.8413 3.691 10.6042 3.11866 10.1822 2.69667C9.76023 2.27467 9.18788 2.0376 8.5911 2.0376C7.99431 2.0376 7.42196 2.27467 6.99997 2.69667L2.75722 6.93942C2.40178 7.28601 2.11869 7.69974 1.92439 8.15659C1.73009 8.61344 1.62843 9.10433 1.62532 9.60077C1.62221 10.0972 1.71771 10.5893 1.90627 11.0486C2.09483 11.5078 2.37271 11.9251 2.72378 12.2761C3.07485 12.6271 3.49213 12.905 3.95141 13.0934C4.41069 13.2819 4.90283 13.3774 5.39927 13.3742C5.89572 13.371 6.38659 13.2693 6.84342 13.0749C7.30024 12.8806 7.71393 12.5974 8.06047 12.2419L12.3032 7.99992L13.3637 9.06042L9.12097 13.3032C8.63344 13.7907 8.05465 14.1774 7.41766 14.4413C6.78067 14.7051 6.09795 14.8409 5.40847 14.8409C4.719 14.8409 4.03627 14.7051 3.39928 14.4413C2.76229 14.1774 2.1835 13.7907 1.69597 13.3032C1.20844 12.8156 0.821707 12.2368 0.557856 11.5999C0.294005 10.9629 0.158203 10.2801 0.158203 9.59067C0.158203 8.90119 0.294005 8.21847 0.557856 7.58148C0.821707 6.94448 1.20844 6.3657 1.69597 5.87817L5.93947 1.63617C6.64673 0.953073 7.59399 0.575094 8.57723 0.583638C9.56046 0.592182 10.501 0.986566 11.1963 1.68185C11.8916 2.37713 12.286 3.31767 12.2945 4.30091C12.303 5.28415 11.9251 6.23141 11.242 6.93867L6.99997 11.1829C6.79097 11.3919 6.54286 11.5576 6.26981 11.6707C5.99676 11.7837 5.70411 11.8419 5.40858 11.8419C5.11305 11.8418 4.82041 11.7836 4.54739 11.6705C4.27436 11.5573 4.0263 11.3915 3.81735 11.1825C3.6084 10.9735 3.44266 10.7254 3.32959 10.4524C3.21653 10.1793 3.15836 9.88668 3.15839 9.59115C3.15843 9.29562 3.21667 9.00298 3.3298 8.72996C3.44293 8.45693 3.60872 8.20887 3.81772 7.99992L8.06047 3.75717L9.12097 4.81767Z"/>
</svg>
