<svg width="14" height="15" viewBox="0 0 14 15" xmlns="http://www.w3.org/2000/svg">
<path d="M7.33366 9.50134V10.8947C6.73027 10.6813 6.08451 10.6159 5.45059 10.7039C4.81668 10.7918 4.21312 11.0306 3.69061 11.4001C3.1681 11.7697 2.74189 12.2592 2.44777 12.8276C2.15365 13.396 2.0002 14.0267 2.00033 14.6667L0.666992 14.666C0.666785 13.8519 0.85294 13.0486 1.21119 12.3176C1.56944 11.5866 2.09028 10.9473 2.7338 10.4487C3.37732 9.9501 4.12644 9.60543 4.92376 9.4411C5.72108 9.27678 6.54543 9.29715 7.33366 9.50067V9.50134ZM6.00033 8.66667C3.79033 8.66667 2.00033 6.87667 2.00033 4.66667C2.00033 2.45667 3.79033 0.666672 6.00033 0.666672C8.21033 0.666672 10.0003 2.45667 10.0003 4.66667C10.0003 6.87667 8.21033 8.66667 6.00033 8.66667ZM6.00033 7.33334C7.47366 7.33334 8.66699 6.14001 8.66699 4.66667C8.66699 3.19334 7.47366 2.00001 6.00033 2.00001C4.52699 2.00001 3.33366 3.19334 3.33366 4.66667C3.33366 6.14001 4.52699 7.33334 6.00033 7.33334ZM10.0003 11.3333V9.33334H11.3337V11.3333H13.3337V12.6667H11.3337V14.6667H10.0003V12.6667H8.00033V11.3333H10.0003Z"/>
</svg>
