<svg width="18" height="10" viewBox="0 0 18 10" xmlns="http://www.w3.org/2000/svg">
<path d="M13.95 0.96875C12.87 0.96875 11.85 1.38876 11.1188 2.12001L9 3.995L8.99624 3.99124L7.85999 4.99249L7.86748 4.99998L5.84624 6.79249C5.36625 7.26875 4.72876 7.53126 4.05 7.53126C2.64751 7.53126 1.5075 6.39501 1.5075 5.00001C1.5075 3.60501 2.64751 2.46876 4.05 2.46876C4.72876 2.46876 5.36625 2.73127 5.87999 3.24125L6.73123 3.995L7.86371 2.99375L6.91495 2.15376C6.14995 1.39252 5.13369 0.972512 4.04996 0.972512C1.81501 0.96875 0 2.77627 0 5.00001C0 7.22375 1.81501 9.03127 4.05 9.03127C5.13 9.03127 6.14626 8.61126 6.88124 7.88378L9 6.00502L9.00376 6.00879L10.1363 5.00377L10.1325 5.00001L12.1537 3.21126C12.6337 2.73127 13.2712 2.46876 13.95 2.46876C15.3525 2.46876 16.4925 3.60501 16.4925 5.00001C16.4925 6.39501 15.3525 7.53126 13.95 7.53126C13.2712 7.53126 12.6337 7.26875 12.12 6.7625L11.2688 6.00875L10.1363 7.01376L11.085 7.85375C11.85 8.61499 12.8663 9.03124 13.9463 9.03124C16.185 9.03127 18 7.22375 18 5.00001C18 2.77627 16.185 0.96875 13.95 0.96875Z"/>
</svg>
