<svg width="15" height="14" viewBox="0 0 15 14" xmlns="http://www.w3.org/2000/svg">
<path d="M3.33333 6.33333H8.66667V7.66667H3.33333V9.66667L0 7L3.33333 4.33333V6.33333ZM2.66667 11H4.472C5.24179 11.6789 6.19112 12.1212 7.20608 12.274C8.22105 12.4267 9.25852 12.2833 10.194 11.861C11.1295 11.4387 11.9233 10.7554 12.48 9.89321C13.0368 9.03097 13.333 8.02639 13.333 7C13.333 5.97361 13.0368 4.96903 12.48 4.10679C11.9233 3.24455 11.1295 2.56129 10.194 2.139C9.25852 1.7167 8.22105 1.57332 7.20608 1.72604C6.19112 1.87876 5.24179 2.32111 4.472 3H2.66667C3.28711 2.17145 4.09222 1.49901 5.01805 1.0361C5.94387 0.573182 6.9649 0.332556 8 0.333334C11.682 0.333334 14.6667 3.318 14.6667 7C14.6667 10.682 11.682 13.6667 8 13.6667C6.9649 13.6674 5.94387 13.4268 5.01805 12.9639C4.09222 12.501 3.28711 11.8285 2.66667 11Z"/>
</svg>
