<svg width="12" height="12" viewBox="0 0 12 12" xmlns="http://www.w3.org/2000/svg">
<path d="M6.00033 0.166664C9.22208 0.166664 11.8337 2.77825 11.8337 6C11.8337 9.22175 9.22208 11.8333 6.00033 11.8333C2.77858 11.8333 0.166992 9.22175 0.166992 6C0.166992 2.77825 2.77858 0.166664 6.00033 0.166664ZM6.00033 1.33333C3.42316 1.33333 1.33366 3.42283 1.33366 6C1.33366 8.57716 3.42316 10.6667 6.00033 10.6667C8.57749 10.6667 10.667 8.57716 10.667 6C10.667 3.42283 8.57749 1.33333 6.00033 1.33333ZM8.23624 3.27991C8.37449 3.18308 8.56233 3.19941 8.68133 3.319C8.80033 3.438 8.81549 3.62583 8.71808 3.76233C7.44641 5.53916 6.74641 6.49116 6.61924 6.61891C6.27741 6.96016 5.72324 6.96016 5.38141 6.61891C5.04016 6.27708 5.04016 5.72291 5.38141 5.38108C5.59958 5.1635 6.55099 4.46291 8.23624 3.27991ZM9.20866 5.41666C9.53066 5.41666 9.79199 5.678 9.79199 6C9.79199 6.322 9.53066 6.58333 9.20866 6.58333C8.88666 6.58333 8.62533 6.322 8.62533 6C8.62533 5.678 8.88666 5.41666 9.20866 5.41666ZM2.79199 5.41666C3.11399 5.41666 3.37533 5.678 3.37533 6C3.37533 6.322 3.11399 6.58333 2.79199 6.58333C2.46999 6.58333 2.20866 6.322 2.20866 6C2.20866 5.678 2.46999 5.41666 2.79199 5.41666ZM4.14416 3.319C4.37166 3.5465 4.37166 3.91575 4.14416 4.14383C3.91666 4.37133 3.54683 4.37133 3.31933 4.14383C3.09183 3.91633 3.09183 3.5465 3.31933 3.319C3.54683 3.0915 3.91608 3.0915 4.14416 3.319ZM6.00033 2.20833C6.32233 2.20833 6.58366 2.46966 6.58366 2.79166C6.58366 3.11366 6.32233 3.375 6.00033 3.375C5.67833 3.375 5.41699 3.11366 5.41699 2.79166C5.41699 2.46966 5.67833 2.20833 6.00033 2.20833Z"/>
</svg>
