<svg width="12" height="14" viewBox="0 0 12 14" xmlns="http://www.w3.org/2000/svg">
<path d="M11.3333 13.6667H0.666667C0.489856 13.6667 0.320286 13.5964 0.195262 13.4714C0.0702379 13.3464 0 13.1768 0 13V1.00001C0 0.823199 0.0702379 0.65363 0.195262 0.528606C0.320286 0.403581 0.489856 0.333344 0.666667 0.333344H11.3333C11.5101 0.333344 11.6797 0.403581 11.8047 0.528606C11.9298 0.65363 12 0.823199 12 1.00001V13C12 13.1768 11.9298 13.3464 11.8047 13.4714C11.6797 13.5964 11.5101 13.6667 11.3333 13.6667ZM10.6667 12.3333V1.66668H1.33333V12.3333H10.6667ZM2.66667 3.00001H5.33333V5.66668H2.66667V3.00001ZM2.66667 7.00001H9.33333V8.33334H2.66667V7.00001ZM2.66667 9.66668H9.33333V11H2.66667V9.66668ZM6.66667 3.66668H9.33333V5.00001H6.66667V3.66668Z"/>
</svg>
