<svg width="10" height="14" viewBox="0 0 10 14" xmlns="http://www.w3.org/2000/svg">
<path d="M1.66634 1.66668V12.3333H8.33301V1.66668H1.66634ZM0.999674 0.333344H8.99967C9.17649 0.333344 9.34606 0.403581 9.47108 0.528606C9.5961 0.65363 9.66634 0.823199 9.66634 1.00001V13C9.66634 13.1768 9.5961 13.3464 9.47108 13.4714C9.34606 13.5964 9.17649 13.6667 8.99967 13.6667H0.999674C0.822863 13.6667 0.653294 13.5964 0.52827 13.4714C0.403246 13.3464 0.333008 13.1768 0.333008 13V1.00001C0.333008 0.823199 0.403246 0.65363 0.52827 0.528606C0.653294 0.403581 0.822863 0.333344 0.999674 0.333344ZM4.99967 10.3333C5.17649 10.3333 5.34605 10.4036 5.47108 10.5286C5.5961 10.6536 5.66634 10.8232 5.66634 11C5.66634 11.1768 5.5961 11.3464 5.47108 11.4714C5.34605 11.5964 5.17649 11.6667 4.99967 11.6667C4.82286 11.6667 4.65329 11.5964 4.52827 11.4714C4.40325 11.3464 4.33301 11.1768 4.33301 11C4.33301 10.8232 4.40325 10.6536 4.52827 10.5286C4.65329 10.4036 4.82286 10.3333 4.99967 10.3333Z"/>
</svg>
