<svg width="13" height="13" viewBox="0 0 13 13" xmlns="http://www.w3.org/2000/svg">
<path d="M0.166992 12.8333C0.166992 11.5957 0.658657 10.4087 1.53383 9.5335C2.409 8.65833 3.59598 8.16666 4.83366 8.16666C6.07134 8.16666 7.25832 8.65833 8.13349 9.5335C9.00866 10.4087 9.50033 11.5957 9.50033 12.8333H8.33366C8.33366 11.9051 7.96491 11.0148 7.30853 10.3585C6.65215 9.70208 5.76192 9.33333 4.83366 9.33333C3.9054 9.33333 3.01516 9.70208 2.35879 10.3585C1.70241 11.0148 1.33366 11.9051 1.33366 12.8333H0.166992ZM4.83366 7.58333C2.89991 7.58333 1.33366 6.01708 1.33366 4.08333C1.33366 2.14958 2.89991 0.583328 4.83366 0.583328C6.76741 0.583328 8.33366 2.14958 8.33366 4.08333C8.33366 6.01708 6.76741 7.58333 4.83366 7.58333ZM4.83366 6.41666C6.12283 6.41666 7.16699 5.3725 7.16699 4.08333C7.16699 2.79416 6.12283 1.74999 4.83366 1.74999C3.54449 1.74999 2.50033 2.79416 2.50033 4.08333C2.50033 5.3725 3.54449 6.41666 4.83366 6.41666ZM9.66599 8.57675C10.4858 8.94595 11.1815 9.54405 11.6695 10.2992C12.1575 11.0543 12.4171 11.9342 12.417 12.8333H11.2503C11.2505 12.159 11.0558 11.499 10.6898 10.9326C10.3238 10.3662 9.80195 9.91763 9.18707 9.64075L9.66541 8.57675H9.66599ZM9.26466 1.99091C9.85238 2.23317 10.3549 2.64456 10.7084 3.17288C11.0619 3.7012 11.2506 4.32264 11.2503 4.95833C11.2506 5.75886 10.9515 6.53054 10.4118 7.12181C9.87213 7.71308 9.13088 8.08119 8.33366 8.15383V6.97958C8.76587 6.91768 9.16686 6.71884 9.47775 6.41226C9.78864 6.10569 9.99306 5.70752 10.061 5.27621C10.1289 4.8449 10.0568 4.40317 9.85522 4.01587C9.65362 3.62857 9.33317 3.3161 8.94091 3.12433L9.26466 1.99091Z"/>
</svg>
