<svg width="28" height="24" viewBox="0 0 28 24" xmlns="http://www.w3.org/2000/svg">
<path d="M27.9469 17.1269C27.9469 16.0601 27.2628 15.1507 26.3104 14.8129V6.34687L28.0001 5.67154L13.9819 0.0685425L0 5.67154L6.61816 8.32366V12.2175C6.61816 13.4178 7.45969 14.4996 8.98771 15.2637C10.3355 15.9376 12.1092 16.3087 13.9823 16.3087C15.8553 16.3087 17.6291 15.9376 18.9768 15.2637C20.5048 14.4996 21.3464 13.4178 21.3464 12.2175V8.33099L24.6739 7.00099V14.8129C23.7215 15.1507 23.0374 16.0602 23.0374 17.1269C23.0374 18.1028 23.6098 18.9473 24.4365 19.3426L23.0794 23.414L24.6319 23.9315L25.4921 21.3509L26.3524 23.9315L27.9049 23.414L26.5478 19.3426C27.3744 18.9472 27.9469 18.1027 27.9469 17.1269ZM19.7099 12.2174C19.7099 13.3761 17.2605 14.6721 13.9823 14.6721C10.7041 14.6721 8.25468 13.3761 8.25468 12.2174V8.97942L13.9819 11.2745L19.71 8.98499V12.2174H19.7099ZM13.9827 9.51191L4.39933 5.67154L13.9827 1.83117L23.5908 5.67154L13.9827 9.51191ZM25.4921 17.9451C25.041 17.9451 24.6739 17.578 24.6739 17.1269C24.6739 16.6757 25.041 16.3086 25.4921 16.3086C25.9433 16.3086 26.3104 16.6757 26.3104 17.1269C26.3104 17.578 25.9433 17.9451 25.4921 17.9451Z"/>
</svg>
