<svg width="48" height="60" viewBox="0 0 48 60" xmlns="http://www.w3.org/2000/svg">
<path fill-rule="evenodd" clip-rule="evenodd" d="M24 0.666656L45.912 5.53599C47.1307 5.80799 48 6.88799 48 8.13866V34.7707C48 40.12 45.3253 45.1173 40.8747 48.0827L24 59.3333L7.12533 48.0827C2.672 45.1147 0 40.12 0 34.7733V8.13866C0 6.88799 0.869333 5.80799 2.088 5.53599L24 0.666656ZM24 6.13067L5.33333 10.2773V34.7707C5.33333 38.336 7.11467 41.6667 10.0827 43.6453L24 52.9253L37.9173 43.6453C40.8853 41.6667 42.6667 38.3387 42.6667 34.7733V10.2773L24 6.13334V6.13067ZM39.6456 23.696L35.8722 19.9253V19.9227L22.6722 33.1227L15.1309 25.5813L11.3602 29.352L22.6749 40.6667L39.6456 23.696Z"/>
</svg>
