<svg width="11" height="11" viewBox="0 0 11 11" xmlns="http://www.w3.org/2000/svg">
<path d="M5.49935 10.0833C2.96797 10.0833 0.916016 8.03136 0.916016 5.49999C0.916016 2.96862 2.96797 0.916656 5.49935 0.916656C8.03072 0.916656 10.0827 2.96862 10.0827 5.49999C10.0827 8.03136 8.03072 10.0833 5.49935 10.0833ZM5.49935 9.16666C6.47181 9.16666 7.40444 8.78035 8.09207 8.09271C8.77971 7.40508 9.16602 6.47245 9.16602 5.49999C9.16602 4.52753 8.77971 3.5949 8.09207 2.90727C7.40444 2.21963 6.47181 1.83332 5.49935 1.83332C4.52689 1.83332 3.59426 2.21963 2.90662 2.90727C2.21899 3.5949 1.83268 4.52753 1.83268 5.49999C1.83268 6.47245 2.21899 7.40508 2.90662 8.09271C3.59426 8.78035 4.52689 9.16666 5.49935 9.16666ZM5.04102 3.20832H5.95768V4.12499H5.04102V3.20832ZM5.04102 5.04166H5.95768V7.79166H5.04102V5.04166Z"/>
</svg>
