<svg width="18" height="19" viewBox="0 0 18 19" xmlns="http://www.w3.org/2000/svg">
<path d="M2.33366 12.3333V2.33332H0.666992V0.666656H3.16699C3.38801 0.666656 3.59997 0.754454 3.75625 0.910734C3.91253 1.06701 4.00033 1.27898 4.00033 1.49999V11.5H14.3653L16.032 4.83332H5.66699V3.16666H17.1003C17.227 3.16666 17.352 3.19554 17.4658 3.2511C17.5797 3.30667 17.6793 3.38745 17.7573 3.48731C17.8352 3.58717 17.8893 3.70349 17.9156 3.82741C17.9418 3.95134 17.9394 4.07962 17.9087 4.20249L15.8253 12.5358C15.7802 12.716 15.6761 12.876 15.5297 12.9903C15.3832 13.1046 15.2028 13.1667 15.017 13.1667H3.16699C2.94598 13.1667 2.73402 13.0789 2.57774 12.9226C2.42146 12.7663 2.33366 12.5543 2.33366 12.3333V12.3333ZM4.00033 18.1667C3.5583 18.1667 3.13437 17.9911 2.82181 17.6785C2.50925 17.3659 2.33366 16.942 2.33366 16.5C2.33366 16.058 2.50925 15.634 2.82181 15.3215C3.13437 15.0089 3.5583 14.8333 4.00033 14.8333C4.44235 14.8333 4.86628 15.0089 5.17884 15.3215C5.4914 15.634 5.66699 16.058 5.66699 16.5C5.66699 16.942 5.4914 17.3659 5.17884 17.6785C4.86628 17.9911 4.44235 18.1667 4.00033 18.1667ZM14.0003 18.1667C13.5583 18.1667 13.1344 17.9911 12.8218 17.6785C12.5093 17.3659 12.3337 16.942 12.3337 16.5C12.3337 16.058 12.5093 15.634 12.8218 15.3215C13.1344 15.0089 13.5583 14.8333 14.0003 14.8333C14.4424 14.8333 14.8663 15.0089 15.1788 15.3215C15.4914 15.634 15.667 16.058 15.667 16.5C15.667 16.942 15.4914 17.3659 15.1788 17.6785C14.8663 17.9911 14.4424 18.1667 14.0003 18.1667Z"/>
</svg>
