<svg width="12" height="15" viewBox="0 0 12 15" xmlns="http://www.w3.org/2000/svg">
<path d="M0.666992 14.6667C0.666992 13.2522 1.2289 11.8956 2.22909 10.8954C3.22928 9.89524 4.58584 9.33334 6.00033 9.33334C7.41481 9.33334 8.77137 9.89524 9.77156 10.8954C10.7718 11.8956 11.3337 13.2522 11.3337 14.6667H10.0003C10.0003 13.6058 9.5789 12.5884 8.82875 11.8382C8.07861 11.0881 7.06119 10.6667 6.00033 10.6667C4.93946 10.6667 3.92204 11.0881 3.1719 11.8382C2.42175 12.5884 2.00033 13.6058 2.00033 14.6667H0.666992ZM6.00033 8.66667C3.79033 8.66667 2.00033 6.87667 2.00033 4.66667C2.00033 2.45667 3.79033 0.666672 6.00033 0.666672C8.21033 0.666672 10.0003 2.45667 10.0003 4.66667C10.0003 6.87667 8.21033 8.66667 6.00033 8.66667ZM6.00033 7.33334C7.47366 7.33334 8.66699 6.14001 8.66699 4.66667C8.66699 3.19334 7.47366 2.00001 6.00033 2.00001C4.52699 2.00001 3.33366 3.19334 3.33366 4.66667C3.33366 6.14001 4.52699 7.33334 6.00033 7.33334Z"/>
</svg>
