<svg width="12" height="12" viewBox="0 0 12 12" xmlns="http://www.w3.org/2000/svg">
<path d="M6.6183 3.73089L7.44372 4.5563C7.82293 4.93548 8.12375 5.38564 8.32898 5.88108C8.53421 6.37652 8.63984 6.90754 8.63984 7.4438C8.63984 7.98007 8.53421 8.51109 8.32898 9.00653C8.12375 9.50196 7.82293 9.95213 7.44372 10.3313L7.23722 10.5372C6.4714 11.303 5.43274 11.7333 4.34972 11.7333C3.26669 11.7333 2.22803 11.303 1.46222 10.5372C0.696403 9.77141 0.266174 8.73274 0.266174 7.64972C0.266174 6.5667 0.696403 5.52803 1.46222 4.76222L2.28763 5.58764C2.01485 5.85804 1.79816 6.17966 1.65001 6.53404C1.50186 6.88841 1.42516 7.26856 1.42432 7.65266C1.42347 8.03675 1.49851 8.41723 1.64511 8.77225C1.79171 9.12727 2.00698 9.44984 2.27858 9.72144C2.55018 9.99304 2.87275 10.2083 3.22777 10.3549C3.58279 10.5015 3.96327 10.5765 4.34736 10.5757C4.73146 10.5749 5.11161 10.4982 5.46598 10.35C5.82036 10.2019 6.14198 9.98517 6.41238 9.71239L6.61888 9.50589C7.16567 8.95893 7.47284 8.2172 7.47284 7.4438C7.47284 6.67041 7.16567 5.92868 6.61888 5.38172L5.79347 4.5563L6.61888 3.73147L6.6183 3.73089ZM10.5371 7.2373L9.7123 6.41247C9.98508 6.14206 10.2018 5.82044 10.3499 5.46607C10.4981 5.11169 10.5748 4.73155 10.5756 4.34745C10.5765 3.96335 10.5014 3.58287 10.3548 3.22785C10.2082 2.87283 9.99295 2.55027 9.72135 2.27867C9.44976 2.00707 9.12719 1.79179 8.77217 1.64519C8.41715 1.4986 8.03667 1.42356 7.65257 1.4244C7.26847 1.42524 6.88833 1.50194 6.53395 1.6501C6.17958 1.79825 5.85796 2.01494 5.58755 2.28772L5.38105 2.49422C4.83426 3.04118 4.52709 3.78291 4.52709 4.5563C4.52709 5.3297 4.83426 6.07143 5.38105 6.61839L6.20647 7.4438L5.38105 8.26864L4.55622 7.4438C4.177 7.06463 3.87619 6.61446 3.67095 6.11902C3.46572 5.62358 3.36009 5.09257 3.36009 4.5563C3.36009 4.02004 3.46572 3.48902 3.67095 2.99358C3.87619 2.49814 4.177 2.04798 4.55622 1.6688L4.76272 1.46289C5.52853 0.697075 6.56719 0.266846 7.65022 0.266846C8.73324 0.266846 9.7719 0.697075 10.5377 1.46289C11.3035 2.2287 11.7338 3.26736 11.7338 4.35039C11.7338 5.43341 11.3035 6.47207 10.5377 7.23789L10.5371 7.2373Z"/>
</svg>
