<svg width="18" height="11" viewBox="0 0 18 11" xmlns="http://www.w3.org/2000/svg">
<path d="M7.00658 10.0865L5.55833 9.69802L6.14858 7.49377C5.26506 7.16792 4.44392 6.69304 3.72083 6.08977L2.10608 7.70527L1.04483 6.64402L2.66033 5.02927C1.74839 3.93709 1.13565 2.62684 0.88208 1.22677L2.35808 0.95752C2.92733 4.10902 5.68433 6.50002 9.00008 6.50002C12.3151 6.50002 15.0728 4.10902 15.6421 0.95752L17.1181 1.22602C16.8649 2.62628 16.2524 3.9368 15.3406 5.02927L16.9553 6.64402L15.8941 7.70527L14.2793 6.08977C13.5562 6.69304 12.7351 7.16792 11.8516 7.49377L12.4418 9.69877L10.9936 10.0865L10.4026 7.88152C9.47435 8.04058 8.52582 8.04058 7.59758 7.88152L7.00658 10.0865Z"/>
</svg>
