<svg width="16" height="18" viewBox="0 0 16 18" xmlns="http://www.w3.org/2000/svg">
<path d="M3.78333 10.6967C3.58917 11.2167 3.425 11.6967 3.27833 12.1826C4.07833 11.6017 5.02917 11.2334 6.12667 11.0959C8.22083 10.8342 10.0817 9.45175 11.0233 7.71425L9.81 6.50175L10.9875 5.32258L11.8208 4.48841C12.1792 4.13008 12.5833 3.46841 13.0108 2.51508C8.35 3.23758 5.49583 6.09175 3.7825 10.6967H3.78333ZM12.1667 6.50092L13 7.33342C12.1667 9.83342 9.66667 12.3334 6.33333 12.7501C4.10917 13.0284 2.72 14.5559 2.165 17.3334H0.5C1.33333 12.3334 3 0.666748 15.5 0.666748C14.6667 3.16425 13.835 4.83008 13.0025 5.66425L12.1667 6.50092Z"/>
</svg>
